<?xml version="1.0" encoding="utf-8"?>
<!-- Generator: Adobe Illustrator 17.1.0, SVG Export Plug-In . SVG Version: 6.00 Build 0)  -->
<!DOCTYPE svg PUBLIC "-//W3C//DTD SVG 1.1//EN" "http://www.w3.org/Graphics/SVG/1.1/DTD/svg11.dtd">
<svg version="1.1" id="Layer_1" xmlns="http://www.w3.org/2000/svg" xmlns:xlink="http://www.w3.org/1999/xlink" x="0px" y="0px"
	 viewBox="0 0 360 125" enable-background="new 0 0 360 125" xml:space="preserve">
<g>
	<path fill="#004971" d="M334.7,112.5c-0.4,1.1-1.6,1.6-2.6,1.2l-99.2-36.8c-1.1-0.4-1.6-1.6-1.2-2.6l25.1-67.8
		c0.4-1.1,1.6-1.6,2.6-1.2L358.7,42c1.1,0.4,1.6,1.6,1.2,2.6L334.7,112.5z"/>
	<path fill="#1D6C91" d="M303.3,46.7c-0.5-1.1-1.8-1.6-2.9-1.1L233,75.3c-1.1,0.5-1.1,1.2,0.1,1.6l98.9,36.7
		c1.1,0.4,1.6-0.1,1.1-1.2L303.3,46.7z"/>
	<path fill="#004971" d="M301.1,52.7c-0.5-1-1.8-1.5-2.9-1.1l-65.3,23.9c-1.1,0.4-1.1,1,0,1.4l99.2,36.8c1.1,0.4,1.5-0.1,1-1.1
		L301.1,52.7z"/>
	<path fill="#06334A" d="M293.7,72.4c-1,0.5-2.3,0-2.8-1L258.5,6.4c-0.5-1,0-1.5,1-1.1L358.7,42c1.1,0.4,1.1,1.1,0,1.5L293.7,72.4z"
		/>
	<path fill="#004971" d="M295.4,68.1c-1.1,0.4-2.4-0.1-2.9-1L258.5,6.3c-0.5-1-0.1-1.5,0.9-1.1L358.7,42c1.1,0.4,1.1,1,0,1.5
		L295.4,68.1z"/>
</g>
<g>
	<path fill="#F2EFE1" d="M344.5,93.4c-0.2,1.1-1.2,1.9-2.3,1.7L237.5,79.7c-1.1-0.2-1.9-1.2-1.7-2.3l10.5-71.6
		c0.2-1.1,1.2-1.9,2.3-1.7l104.7,15.4c1.1,0.2,1.9,1.2,1.7,2.3L344.5,93.4z"/>
	<path fill="#FFFFFF" d="M300.1,35.5c-0.7-1-2.1-1.2-3.1-0.5l-59.8,43.1c-1,0.7-0.8,1.4,0.4,1.6L342,95.1c1.2,0.2,1.6-0.5,0.9-1.4
		L300.1,35.5z"/>
	<path fill="#F2EFE1" d="M299.1,41.9c-0.7-0.9-2.1-1.1-3.1-0.5l-58.9,37c-1,0.6-0.8,1.2,0.3,1.4l104.7,15.4c1.1,0.2,1.4-0.4,0.7-1.3
		L299.1,41.9z"/>
	<path fill="#CEC8B1" d="M296,62.7c-0.9,0.7-2.2,0.5-2.9-0.4L247.8,5.4c-0.7-0.9-0.4-1.5,0.8-1.3l104.7,15.4
		c1.1,0.2,1.3,0.8,0.4,1.5L296,62.7z"/>
	<path fill="#F2EFE1" d="M296.7,58.1c-0.9,0.6-2.3,0.4-3.1-0.4L247.9,5.3c-0.7-0.8-0.4-1.4,0.7-1.2l104.7,15.4
		c1.1,0.2,1.3,0.8,0.3,1.4L296.7,58.1z"/>
</g>
<g>
	<path fill="#F2EFE1" d="M109.6,90.2c0,1.1-0.9,2-2,2H2c-1.1,0-2-0.9-2-2V17.5c0-1.1,0.9-2,2-2h105.5c1.1,0,2,0.9,2,2V90.2z"/>
	<path fill="#FFFFFF" d="M57.6,38.7c-0.8-0.9-2.2-0.9-3.1,0L1.7,89.9c-0.9,0.8-0.6,1.4,0.6,1.4h105.5c1.2,0,1.5-0.5,0.6-1.4
		L57.6,38.7z"/>
	<path fill="#F2EFE1" d="M57.6,45.1c-0.8-0.7-2.2-0.8-3.1,0l-52.9,45c-0.9,0.7-0.6,1.2,0.5,1.2h105.8c1.1,0,1.4-0.5,0.5-1.2
		L57.6,45.1z"/>
	<path fill="#CEC8B1" d="M57.6,66.2c-0.8,0.8-2.1,0.8-3,0l-53-49.6c-0.8-0.8-0.6-1.2,0.6-1.2h105.8c1.1,0,1.4,0.5,0.6,1.3L57.6,66.2
		z"/>
	<path fill="#F2EFE1" d="M57.6,61.5c-0.8,0.7-2.2,0.8-3.1,0L1.6,16.6c-0.9-0.7-0.6-1.2,0.5-1.2h105.8c1.1,0,1.4,0.4,0.5,1.2
		L57.6,61.5z"/>
	<g opacity="5.000310e-02">
		<g>
			<defs>
				<rect id="SVGID_1_" x="47.6" y="18.7" width="10.5" height="8.1"/>
			</defs>
			<clipPath id="SVGID_2_">
				<use xlink:href="#SVGID_1_"  overflow="visible"/>
			</clipPath>
			<path clip-path="url(#SVGID_2_)" fill="#010202" d="M58.1,22.7c0,2.2-2.3,4.1-5.2,4.1c-2.9,0-5.2-1.8-5.2-4.1
				c0-2.2,2.3-4.1,5.2-4.1C55.8,18.7,58.1,20.5,58.1,22.7"/>
		</g>
	</g>
	<path fill="#818282" d="M53,22.9c-0.1,0-0.3-0.1-0.4-0.2l-0.9-4.2l2.2-0.1l-0.6,4.3C53.2,22.9,53.1,22.9,53,22.9"/>
	<path fill="#E73833" d="M57.3,19.2c0,1.7-2,3-4.4,3c-2.4,0-4.4-1.3-4.4-3c0-1.7,2-3,4.4-3C55.3,16.2,57.3,17.6,57.3,19.2"/>
	<path fill="#AB241F" d="M55.1,18.2C55,19.4,54,20,52.9,20c-1.2,0-2.2-0.9-2.1-1.9l0.5-2.2l3.1,0L55.1,18.2z"/>
	<path fill="#E73833" d="M53,12c-1.8,0-3.3,1-3.4,2.4c0,1.3,1.4,2.5,3.2,2.5c1.8,0,3.3-1,3.4-2.4C56.3,13.2,54.8,12.1,53,12"/>
	<path fill="#E73833" d="M52.9,16.9c1.8,0,3.3-1,3.4-2.3c0,0.1,0,0.2,0,0.3c0,1.5-1.6,2.6-3.4,2.6c-1.8,0-3.2-1.2-3.2-2.7
		c0,0,0,0,0-0.1C49.8,15.9,51.2,16.8,52.9,16.9"/>
	<path fill="#EA6260" d="M54.8,19.7c0,0-0.7,0.7-2,0.6c-0.4,0-0.8,0.1-0.7,0.3c0.1,0.4,0.3,0.5,0.3,0.5s2,0.9,3.2-1.4
		c0.3-0.5,0.1-0.9-0.3-0.6C55.1,19.3,54.8,19.7,54.8,19.7"/>
</g>
<g>
	<path fill="#E73833" d="M334,81.7c0,1.1-0.9,2.1-2,2.1l-105.8,2.9c-1.1,0-2.1-0.9-2.1-2l-2-72.3c0-1.1,0.9-2.1,2-2.1L330,7.4
		c1.1,0,2.1,0.9,2.1,2L334,81.7z"/>
	<path fill="#EA6260" d="M280.3,32.4c-0.9-0.8-2.3-0.8-3.1,0.1l-51.5,52.8c-0.8,0.9-0.5,1.5,0.7,1.5l105.5-2.9
		c1.2,0,1.5-0.7,0.6-1.6L280.3,32.4z"/>
	<path fill="#E73833" d="M280.5,38.8c-0.9-0.7-2.3-0.7-3.1,0.1l-51.7,46.5c-0.8,0.8-0.6,1.3,0.5,1.3L332,83.8c1.1,0,1.3-0.6,0.5-1.4
		L280.5,38.8z"/>
	<path fill="#AB241F" d="M281,59.9c-0.8,0.8-2.1,0.9-3,0.1l-54.4-48.3c-0.8-0.7-0.6-1.4,0.5-1.4L330,7.4c1.1,0,1.4,0.6,0.6,1.4
		L281,59.9z"/>
	<path fill="#E73833" d="M281,55.2c-0.8,0.8-2.2,0.8-3.1,0.1l-54.1-43.7c-0.9-0.7-0.7-1.3,0.5-1.3L330,7.4c1.1,0,1.4,0.6,0.6,1.3
		L281,55.2z"/>
	<polygon fill-rule="evenodd" clip-rule="evenodd" fill="#818282" points="266.3,7.1 266.4,4.7 266.4,4.3 266.3,4.2 266.3,4 
		266.1,3.7 266,3.5 265.9,3.4 265.6,3.2 265.3,3.1 264.9,3 264.8,3 264.6,3 264.3,3.1 264,3.3 263.8,3.5 263.6,3.7 263.5,3.9 
		263.4,4.3 263.4,4.4 263.2,15 263.2,15.2 263.3,15.3 263.4,15.5 263.6,15.7 263.8,15.9 264,15.9 264.3,15.9 264.6,15.8 264.8,15.7 
		264.9,15.6 265,15.5 265.1,15.2 265.1,15 265.2,7.8 265.2,7.8 266,7.8 266.1,7.9 265.9,15 265.9,15.2 265.8,15.6 265.7,15.9 
		265.5,16.2 265.3,16.4 265.1,16.5 264.9,16.7 264.3,16.8 263.8,16.7 263.5,16.6 263.1,16.4 262.8,16.1 262.5,15.7 262.4,15.5 
		262.4,15.2 262.3,14.9 262.5,4.3 262.6,4 262.7,3.8 262.7,3.6 262.9,3.2 263.2,2.9 263.5,2.6 263.9,2.4 264.4,2.2 264.8,2.2 
		265.3,2.2 265.7,2.3 266,2.5 266.4,2.7 266.7,3 266.9,3.4 267.1,3.8 267.2,4.3 267.2,4.3 267.1,7.3 266.8,7.2 	"/>
	<g opacity="5.000310e-02">
		<g>
			<defs>
				<rect id="SVGID_3_" x="282.2" y="8.4" width="10.5" height="8.1"/>
			</defs>
			<clipPath id="SVGID_4_">
				<use xlink:href="#SVGID_3_"  overflow="visible"/>
			</clipPath>
			<path clip-path="url(#SVGID_4_)" fill="#010202" d="M292.7,12.5c0,2.2-2.3,4.1-5.2,4.1c-2.9,0-5.2-1.8-5.2-4.1
				c0-2.2,2.3-4.1,5.2-4.1C290.4,8.4,292.7,10.2,292.7,12.5"/>
		</g>
	</g>
	<path fill="#818282" d="M287.6,12.7c-0.1,0-0.3-0.1-0.4-0.2l-0.9-4.2l2.2-0.1l-0.6,4.3C287.8,12.6,287.7,12.7,287.6,12.7"/>
	<path fill="#004971" d="M291.9,9c0,1.7-2,3-4.4,3c-2.4,0-4.4-1.3-4.4-3c0-1.7,2-3,4.4-3C289.9,6,291.9,7.3,291.9,9"/>
	<path fill="#06334A" d="M289.7,7.9c-0.1,1.2-1,1.9-2.2,1.8c-1.2,0-2.2-0.9-2.1-1.9l0.5-2.2l3.1,0L289.7,7.9z"/>
	<path fill="#004971" d="M287.6,1.8c-1.8,0-3.3,1-3.4,2.4c0,1.3,1.4,2.5,3.2,2.5c1.8,0,3.3-1,3.4-2.4C290.9,2.9,289.4,1.8,287.6,1.8
		"/>
	<path fill="#004971" d="M287.5,6.6c1.8,0,3.3-1,3.4-2.3c0,0.1,0,0.2,0,0.3c0,1.5-1.6,2.6-3.4,2.6c-1.8,0-3.2-1.2-3.2-2.7
		c0,0,0,0,0-0.1C284.4,5.6,285.8,6.6,287.5,6.6"/>
	<path fill="#1D6C91" d="M289.4,9.5c0,0-0.7,0.7-2,0.6c-0.4,0-0.8,0.1-0.7,0.3c0.1,0.4,0.3,0.5,0.3,0.5s2,0.9,3.2-1.4
		c0.3-0.5,0.1-0.9-0.3-0.6C289.7,9,289.4,9.5,289.4,9.5"/>
</g>
<g>
	<path fill="#F2EFE1" d="M207.2,96.6c0.3,1.1-0.4,2.2-1.5,2.5l-103.1,23.9c-1.1,0.3-2.2-0.4-2.5-1.5L83.8,50.9
		c-0.3-1.1,0.4-2.2,1.5-2.5l103.1-23.9c1.1-0.3,2.2,0.4,2.5,1.5L207.2,96.6z"/>
	<path fill="#FFFFFF" d="M144.8,58.9c-1-0.6-2.4-0.3-3,0.7l-39.9,62c-0.7,1-0.2,1.6,0.9,1.3l102.8-23.8c1.2-0.3,1.3-1,0.3-1.7
		L144.8,58.9z"/>
	<path fill="#F2EFE1" d="M146.2,65.2c-1-0.5-2.3-0.2-3,0.7l-41.4,55.9c-0.7,0.9-0.3,1.4,0.8,1.2l103.1-23.9c1.1-0.3,1.2-0.9,0.2-1.4
		L146.2,65.2z"/>
	<path fill="#CEC8B1" d="M150.9,85.8c-0.6,0.9-1.9,1.3-2.9,0.7L85.2,49.9c-1-0.6-0.9-1.2,0.2-1.5l103.1-23.9
		c1.1-0.3,1.5,0.3,0.9,1.3L150.9,85.8z"/>
	<path fill="#F2EFE1" d="M149.9,81.2c-0.7,0.9-2,1.2-3,0.7l-61.7-32c-1-0.5-0.9-1.2,0.2-1.4l103.1-23.9c1.1-0.3,1.5,0.3,0.8,1.2
		L149.9,81.2z"/>
	<g opacity="5.000310e-02">
		<g>
			<defs>
				<rect id="SVGID_5_" x="173.1" y="29.2" width="8.6" height="8.6"/>
			</defs>
			<clipPath id="SVGID_6_">
				<use xlink:href="#SVGID_5_"  overflow="visible"/>
			</clipPath>
			<path clip-path="url(#SVGID_6_)" fill="#010202" d="M181.1,29.8c1.2,1.2,0.6,3.9-1.5,5.9c-2,2-4.7,2.7-5.9,1.5
				c-1.2-1.2-0.6-3.9,1.5-5.9C177.2,29.2,179.9,28.6,181.1,29.8"/>
		</g>
	</g>
	<path fill="#818282" d="M177.5,33.6c-0.1,0.1-0.2,0.2-0.4,0.1l-4.4-3.1l1.5-1.7l3.4,4.2C177.7,33.4,177.6,33.5,177.5,33.6"/>
	<path fill="#E73833" d="M177.2,27.6c1.3,1.3,0.9,3.7-0.8,5.4c-1.7,1.7-4.1,2.1-5.4,0.8c-1.3-1.3-0.9-3.7,0.8-5.4
		C173.5,26.7,175.9,26.4,177.2,27.6"/>
	<path fill="#AB241F" d="M174.6,28c0.8,0.9,0.6,2-0.2,2.9c-0.9,0.8-2.2,1-2.9,0.1l-1.2-1.9l2.1-2.2L174.6,28z"/>
	<path fill="#E73833" d="M168.7,25.1c-1.3,1.3-1.6,3.1-0.7,4c0.9,1,2.8,0.7,4.1-0.6c1.3-1.3,1.6-3.1,0.7-4
		C171.9,23.6,170.1,23.8,168.7,25.1"/>
	<path fill="#E73833" d="M172.1,28.6c1.3-1.3,1.6-3,0.7-4c0.1,0.1,0.1,0.1,0.2,0.2c1.1,1.1,0.7,3-0.6,4.2c-1.3,1.3-3.1,1.5-4.2,0.4
		c0,0,0,0,0-0.1C169.3,30.1,170.9,29.8,172.1,28.6"/>
	<path fill="#EA6260" d="M175.5,29.2c0,0,0,1-1,1.8c-0.3,0.2-0.5,0.6-0.3,0.7c0.4,0.2,0.6,0.1,0.6,0.1s2-0.7,1.3-3.3
		c-0.2-0.5-0.6-0.6-0.6-0.2C175.4,28.7,175.5,29.2,175.5,29.2"/>
</g>
</svg>
