<?xml version="1.0" encoding="utf-8"?>
<!-- Generator: Adobe Illustrator 18.0.0, SVG Export Plug-In . SVG Version: 6.00 Build 0)  -->
<!DOCTYPE svg PUBLIC "-//W3C//DTD SVG 1.1//EN" "http://www.w3.org/Graphics/SVG/1.1/DTD/svg11.dtd">
<svg version="1.1" xmlns="http://www.w3.org/2000/svg" xmlns:xlink="http://www.w3.org/1999/xlink" x="0px" y="0px"
	 viewBox="0 0 180 180" enable-background="new 0 0 180 180" xml:space="preserve">
<g id="magazine" display="none">
	<circle display="inline" fill="#F2F6F8" cx="90" cy="90.2" r="90"/>
	<g display="inline">
		<g>
			<polygon fill="none" stroke="#004970" stroke-width="2" stroke-miterlimit="10" points="110.7,138.2 63.3,126.4 63.3,65.7 
				110.7,71.1 			"/>
			<polyline fill="none" stroke="#004970" stroke-width="2" stroke-miterlimit="10" points="63.3,65.7 117.2,59.7 117.2,123.5 
				114.2,123.8 			"/>
		</g>
		<g>
			<polyline fill="none" stroke="#004970" stroke-width="2" stroke-miterlimit="10" points="63.3,65.8 114.4,65.1 114.4,132.2 
				111.4,131.9 			"/>
			<polyline fill="none" stroke="#004970" stroke-width="2" stroke-miterlimit="10" points="62.8,65.7 115.3,55 115.3,59.7 			"/>
		</g>
		<g>
			<polyline fill="none" stroke="#004970" stroke-width="2" stroke-miterlimit="10" points="63.5,65.1 112.5,51.2 112.5,55.5 			"/>
			<polyline fill="none" stroke="#004970" stroke-width="2" stroke-miterlimit="10" points="63.5,65.1 105.5,44.1 105.5,48.7 			"/>
		</g>
		<g>
			<polyline fill="none" stroke="#004970" stroke-width="2" stroke-miterlimit="10" points="63.5,65.1 109,47.7 109,52.2 			"/>
			<polyline fill="none" stroke="#004970" stroke-width="2" stroke-miterlimit="10" points="62.9,65.1 100,42.3 100,46.9 			"/>
		</g>
	</g>
</g>
<g id="booklet">
	<circle fill="#F2F6F8" cx="90" cy="90" r="90"/>
	<g>
		<line fill="none" stroke="#004970" stroke-width="2" stroke-miterlimit="10" x1="37" y1="56" x2="144" y2="56"/>
		<line fill="none" stroke="#004970" stroke-width="2" stroke-miterlimit="10" x1="143" y1="55" x2="143" y2="126"/>
		<line fill="none" stroke="#004970" stroke-width="2" stroke-miterlimit="10" x1="89" y1="55" x2="89" y2="126"/>
		<line fill="none" stroke="#004970" stroke-width="2" stroke-miterlimit="10" x1="144" y1="126" x2="36" y2="126"/>
		<line fill="none" stroke="#004970" stroke-width="2" stroke-miterlimit="10" x1="37" y1="126" x2="37" y2="55"/>
	</g>
</g>
<g id="brochure" display="none">
	<circle display="inline" fill="#F2F6F8" cx="90" cy="90" r="90"/>
	<g display="inline">
		<g>
			<polygon fill="none" stroke="#004970" stroke-width="2" stroke-miterlimit="10" points="110.7,131.6 63.3,119.7 63.3,59.1 
				110.7,64.5 			"/>
			<polyline fill="none" stroke="#004970" stroke-width="2" stroke-miterlimit="10" points="63.3,59.1 117.2,53.1 117.2,116.9 
				114.2,117.2 			"/>
		</g>
		<g>
			<polyline fill="none" stroke="#004970" stroke-width="2" stroke-miterlimit="10" points="63.3,59.2 114.4,58.5 114.4,125.6 
				111.4,125.3 			"/>
			<polyline fill="none" stroke="#004970" stroke-width="2" stroke-miterlimit="10" points="62.8,59.1 115.3,48.4 115.3,53.1 			"/>
		</g>
	</g>
</g>
<g id="folder" display="none">
	<circle display="inline" fill="#F2F6F8" cx="90" cy="90" r="90"/>
	<g display="inline">
		<line fill="none" stroke="#004970" stroke-width="2" stroke-miterlimit="10" x1="33" y1="53" x2="148" y2="53"/>
		<line fill="none" stroke="#004970" stroke-width="2" stroke-miterlimit="10" x1="147" y1="52" x2="147" y2="128"/>
		<line fill="none" stroke="#004970" stroke-width="2" stroke-miterlimit="10" x1="88" y1="52" x2="88" y2="128"/>
		<line fill="none" stroke="#004970" stroke-width="2" stroke-miterlimit="10" x1="148" y1="128" x2="32" y2="128"/>
		<line fill="none" stroke="#004970" stroke-width="2" stroke-miterlimit="10" x1="33" y1="128" x2="33" y2="52"/>
		<path fill="none" stroke="#004970" stroke-width="2" stroke-miterlimit="10" d="M146,91h-3.9c0,0-6.4-0.2-11.9,7.2
			c-4.3,5.8-6.3,7.7-8.7,8.9c-2.5,1.2-6.1,3.7-16.7,5C90.6,113.8,91,122,91,122v5"/>
	</g>
</g>
</svg>
