<?xml version="1.0" encoding="utf-8"?>
<!-- Generator: Adobe Illustrator 17.1.0, SVG Export Plug-In . SVG Version: 6.00 Build 0)  -->
<!DOCTYPE svg PUBLIC "-//W3C//DTD SVG 1.1//EN" "http://www.w3.org/Graphics/SVG/1.1/DTD/svg11.dtd">
<svg version="1.1" id="Layer_1" xmlns="http://www.w3.org/2000/svg" xmlns:xlink="http://www.w3.org/1999/xlink" x="0px" y="0px"
	 viewBox="0 0 68.1 80.7" enable-background="new 0 0 68.1 80.7" xml:space="preserve">
<g>
	<defs>
		<rect id="SVGID_1_" y="0" width="68.1" height="80.7"/>
	</defs>
	<clipPath id="SVGID_2_">
		<use xlink:href="#SVGID_1_"  overflow="visible"/>
	</clipPath>
	<path clip-path="url(#SVGID_2_)" fill="#FFFFFF" d="M7.9,76.7c0,0.3,0,0.5-0.1,0.8c-0.1,0.2-0.2,0.4-0.4,0.6
		c-0.1,0.1-0.2,0.2-0.3,0.3c-0.1,0.1-0.2,0.2-0.4,0.2c-0.1,0.1-0.3,0.1-0.5,0.1c-0.2,0-0.4,0.1-0.6,0.1H4.9v1.9H3.5v-5.7h2.2
		c0.3,0,0.6,0,0.9,0.1C6.8,75,7,75.1,7.2,75.3c0.2,0.1,0.4,0.3,0.5,0.6C7.8,76.1,7.9,76.4,7.9,76.7 M6.4,76.7c0-0.2,0-0.3-0.1-0.4
		c-0.1-0.1-0.2-0.2-0.3-0.2C5.9,76,5.8,76,5.6,76c-0.1,0-0.3,0-0.5,0H4.9v1.7H5c0.1,0,0.3,0,0.4,0c0.1,0,0.2,0,0.3,0
		c0.1,0,0.2,0,0.2-0.1c0.1,0,0.2-0.1,0.2-0.1c0.1-0.1,0.2-0.2,0.2-0.3C6.4,77,6.4,76.9,6.4,76.7"/>
	<path clip-path="url(#SVGID_2_)" fill="#FFFFFF" d="M11.5,77.6h-0.1c-0.1,0-0.1,0-0.2,0c-0.1,0-0.2,0-0.3,0c-0.1,0-0.3,0-0.4,0.1
		c-0.2,0-0.3,0.1-0.5,0.1v2.9H8.6v-4.3h1.3v0.6c0.1-0.1,0.1-0.1,0.3-0.2c0.1-0.1,0.2-0.2,0.3-0.2c0.1-0.1,0.2-0.1,0.3-0.2
		c0.1,0,0.3-0.1,0.4-0.1c0,0,0.1,0,0.1,0c0.1,0,0.1,0,0.1,0V77.6z"/>
</g>
<path fill="#FFFFFF" d="M12,80.6h1.4v-4.3H12V80.6z M12,75.7h1.4v-1.1H12V75.7z"/>
<g>
	<defs>
		<rect id="SVGID_3_" y="0" width="68.1" height="80.7"/>
	</defs>
	<clipPath id="SVGID_4_">
		<use xlink:href="#SVGID_3_"  overflow="visible"/>
	</clipPath>
	<path clip-path="url(#SVGID_4_)" fill="#FFFFFF" d="M18.5,80.6h-1.4v-2.1c0-0.2,0-0.3,0-0.5c0-0.2,0-0.3-0.1-0.4
		c0-0.1-0.1-0.2-0.2-0.2c-0.1,0-0.2-0.1-0.4-0.1c-0.1,0-0.2,0-0.3,0.1c-0.1,0-0.2,0.1-0.4,0.2v3.1h-1.4v-4.3h1.4v0.5
		c0.2-0.2,0.4-0.3,0.6-0.4c0.2-0.1,0.4-0.2,0.7-0.2c0.4,0,0.8,0.1,1,0.4c0.2,0.3,0.4,0.7,0.4,1.2V80.6z"/>
	<path clip-path="url(#SVGID_4_)" fill="#FFFFFF" d="M21.1,80.7c-0.6,0-1-0.1-1.2-0.3c-0.3-0.2-0.4-0.6-0.4-1.1v-2H19v-0.9h0.5V75
		h1.4v1.2h1.3v0.9h-1.3v1.5c0,0.2,0,0.3,0,0.4c0,0.1,0,0.2,0.1,0.3c0,0.1,0.1,0.2,0.2,0.2c0.1,0.1,0.2,0.1,0.4,0.1
		c0.1,0,0.2,0,0.3,0c0.1,0,0.2-0.1,0.2-0.1h0.1v1c-0.1,0-0.3,0.1-0.5,0.1C21.6,80.7,21.4,80.7,21.1,80.7"/>
</g>
<rect x="22.8" y="79.1" fill="#FFFFFF" width="1.4" height="1.5"/>
<g>
	<defs>
		<rect id="SVGID_5_" y="0" width="68.1" height="80.7"/>
	</defs>
	<clipPath id="SVGID_6_">
		<use xlink:href="#SVGID_5_"  overflow="visible"/>
	</clipPath>
	<path clip-path="url(#SVGID_6_)" fill="#FFFFFF" d="M32,76.7c0,0.3,0,0.5-0.1,0.8c-0.1,0.2-0.2,0.4-0.4,0.6
		c-0.1,0.1-0.2,0.2-0.3,0.3c-0.1,0.1-0.2,0.2-0.4,0.2c-0.1,0.1-0.3,0.1-0.5,0.1c-0.2,0-0.4,0.1-0.6,0.1H29v1.9h-1.4v-5.7h2.2
		c0.3,0,0.6,0,0.9,0.1c0.2,0.1,0.5,0.2,0.7,0.3c0.2,0.1,0.4,0.3,0.5,0.6C32,76.1,32,76.4,32,76.7 M30.5,76.7c0-0.2,0-0.3-0.1-0.4
		c-0.1-0.1-0.2-0.2-0.3-0.2C30,76,29.9,76,29.8,76c-0.1,0-0.3,0-0.5,0H29v1.7h0.1c0.1,0,0.3,0,0.4,0c0.1,0,0.2,0,0.3,0
		c0.1,0,0.2,0,0.2-0.1c0.1,0,0.2-0.1,0.2-0.1c0.1-0.1,0.2-0.2,0.2-0.3C30.5,77,30.5,76.9,30.5,76.7"/>
	<path clip-path="url(#SVGID_6_)" fill="#FFFFFF" d="M34.9,80.7c-0.8,0-1.4-0.2-1.9-0.6c-0.4-0.4-0.7-1-0.7-1.7
		c0-0.7,0.2-1.3,0.6-1.7c0.4-0.4,1-0.6,1.7-0.6c0.7,0,1.2,0.2,1.5,0.5c0.3,0.4,0.5,0.9,0.5,1.5v0.5h-3c0,0.2,0.1,0.4,0.1,0.5
		c0.1,0.1,0.2,0.2,0.3,0.3c0.1,0.1,0.3,0.1,0.4,0.2c0.2,0,0.3,0.1,0.5,0.1c0.2,0,0.3,0,0.5-0.1c0.2,0,0.3-0.1,0.4-0.1
		c0.1,0,0.2-0.1,0.3-0.2c0.1-0.1,0.2-0.1,0.2-0.1h0.1v1.1c-0.1,0-0.2,0.1-0.3,0.1c-0.1,0-0.2,0.1-0.4,0.1c-0.1,0-0.3,0.1-0.5,0.1
		C35.3,80.7,35.2,80.7,34.9,80.7 M35.4,77.9c0-0.3-0.1-0.5-0.2-0.7c-0.1-0.1-0.3-0.2-0.6-0.2c-0.3,0-0.5,0.1-0.6,0.2
		c-0.1,0.2-0.2,0.4-0.2,0.6H35.4z"/>
	<path clip-path="url(#SVGID_6_)" fill="#FFFFFF" d="M40.3,77.6h-0.1c-0.1,0-0.1,0-0.2,0c-0.1,0-0.2,0-0.3,0c-0.1,0-0.3,0-0.4,0.1
		c-0.2,0-0.3,0.1-0.5,0.1v2.9h-1.3v-4.3h1.3v0.6c0.1-0.1,0.1-0.1,0.3-0.2c0.1-0.1,0.2-0.2,0.3-0.2c0.1-0.1,0.2-0.1,0.3-0.2
		c0.1,0,0.2-0.1,0.4-0.1c0,0,0.1,0,0.1,0c0.1,0,0.1,0,0.1,0V77.6z"/>
	<path clip-path="url(#SVGID_6_)" fill="#FFFFFF" d="M43.6,75.6h-0.1c-0.1,0-0.1,0-0.2-0.1c-0.1,0-0.2,0-0.3,0
		c-0.3,0-0.5,0.1-0.6,0.2c-0.1,0.1-0.1,0.3-0.1,0.6v0h1.1v0.9h-1v3.4h-1.4v-3.4h-0.5v-0.9h0.5v-0.1c0-0.5,0.1-0.9,0.4-1.2
		c0.3-0.3,0.7-0.4,1.3-0.4c0.2,0,0.4,0,0.5,0c0.2,0,0.3,0,0.4,0.1V75.6z"/>
	<path clip-path="url(#SVGID_6_)" fill="#FFFFFF" d="M46.1,80.7c-0.8,0-1.4-0.2-1.9-0.6c-0.4-0.4-0.7-1-0.7-1.7
		c0-0.7,0.2-1.3,0.6-1.7c0.4-0.4,1-0.6,1.7-0.6c0.7,0,1.2,0.2,1.5,0.5c0.3,0.4,0.5,0.9,0.5,1.5v0.5h-3c0,0.2,0.1,0.4,0.1,0.5
		c0.1,0.1,0.2,0.2,0.3,0.3c0.1,0.1,0.2,0.1,0.4,0.2c0.2,0,0.3,0.1,0.5,0.1c0.2,0,0.3,0,0.5-0.1c0.2,0,0.3-0.1,0.4-0.1
		c0.1,0,0.2-0.1,0.3-0.2c0.1-0.1,0.2-0.1,0.2-0.1h0.1v1.1c-0.1,0-0.2,0.1-0.3,0.1c-0.1,0-0.2,0.1-0.4,0.1c-0.1,0-0.3,0.1-0.5,0.1
		C46.5,80.7,46.3,80.7,46.1,80.7 M46.5,77.9c0-0.3-0.1-0.5-0.2-0.7C46.2,77.1,46,77,45.7,77c-0.3,0-0.5,0.1-0.6,0.2
		c-0.1,0.2-0.2,0.4-0.2,0.6H46.5z"/>
	<path clip-path="url(#SVGID_6_)" fill="#FFFFFF" d="M50.7,80.7c-0.4,0-0.7,0-1-0.1c-0.3-0.1-0.6-0.2-0.8-0.4
		c-0.2-0.2-0.4-0.4-0.5-0.7c-0.1-0.3-0.2-0.6-0.2-1c0-0.4,0.1-0.8,0.2-1.1c0.1-0.3,0.3-0.5,0.5-0.7c0.2-0.2,0.5-0.3,0.8-0.4
		c0.3-0.1,0.6-0.1,0.9-0.1c0.2,0,0.5,0,0.7,0.1c0.2,0.1,0.5,0.1,0.7,0.3v1.2h-0.2c-0.1-0.1-0.1-0.1-0.2-0.2
		c-0.1-0.1-0.2-0.1-0.3-0.2c-0.1-0.1-0.2-0.1-0.3-0.1c-0.1,0-0.3-0.1-0.4-0.1c-0.3,0-0.6,0.1-0.8,0.4c-0.2,0.2-0.3,0.6-0.3,1
		c0,0.4,0.1,0.8,0.3,1c0.2,0.2,0.5,0.3,0.8,0.3c0.2,0,0.3,0,0.4-0.1c0.1,0,0.2-0.1,0.3-0.1c0.1-0.1,0.2-0.1,0.2-0.2
		c0.1-0.1,0.1-0.1,0.2-0.2h0.2v1.2c-0.1,0-0.2,0.1-0.3,0.1c-0.1,0-0.2,0.1-0.3,0.1c-0.1,0-0.3,0.1-0.4,0.1
		C51,80.7,50.9,80.7,50.7,80.7"/>
	<path clip-path="url(#SVGID_6_)" fill="#FFFFFF" d="M54.4,80.7c-0.6,0-1-0.1-1.2-0.3c-0.3-0.2-0.4-0.6-0.4-1.1v-2h-0.5v-0.9h0.5V75
		h1.3v1.2h1.3v0.9h-1.3v1.5c0,0.2,0,0.3,0,0.4c0,0.1,0,0.2,0.1,0.3c0,0.1,0.1,0.2,0.2,0.2c0.1,0.1,0.2,0.1,0.4,0.1
		c0.1,0,0.2,0,0.3,0c0.1,0,0.2-0.1,0.2-0.1h0.1v1c-0.1,0-0.3,0.1-0.5,0.1C54.8,80.7,54.6,80.7,54.4,80.7"/>
	<path clip-path="url(#SVGID_6_)" fill="#FFFFFF" d="M58.2,80.7c-0.8,0-1.4-0.2-1.9-0.6c-0.4-0.4-0.7-1-0.7-1.7
		c0-0.7,0.2-1.3,0.6-1.7c0.4-0.4,1-0.6,1.7-0.6c0.7,0,1.2,0.2,1.5,0.5c0.3,0.4,0.5,0.9,0.5,1.5v0.5h-3c0,0.2,0.1,0.4,0.1,0.5
		c0.1,0.1,0.2,0.2,0.3,0.3c0.1,0.1,0.3,0.1,0.4,0.2c0.2,0,0.3,0.1,0.5,0.1c0.2,0,0.3,0,0.5-0.1c0.2,0,0.3-0.1,0.4-0.1
		c0.1,0,0.2-0.1,0.3-0.2c0.1-0.1,0.2-0.1,0.2-0.1h0.1v1.1c-0.1,0-0.2,0.1-0.3,0.1c-0.1,0-0.2,0.1-0.4,0.1c-0.1,0-0.3,0.1-0.5,0.1
		C58.6,80.7,58.4,80.7,58.2,80.7 M58.7,77.9c0-0.3-0.1-0.5-0.2-0.7c-0.1-0.1-0.3-0.2-0.6-0.2c-0.3,0-0.5,0.1-0.6,0.2
		c-0.1,0.2-0.2,0.4-0.2,0.6H58.7z"/>
	<path clip-path="url(#SVGID_6_)" fill="#FFFFFF" d="M64.6,80.6h-1.3v-0.4c-0.1,0.1-0.2,0.1-0.3,0.2s-0.2,0.1-0.3,0.2
		c-0.1,0.1-0.2,0.1-0.3,0.1c-0.1,0-0.2,0-0.4,0c-0.5,0-0.9-0.2-1.2-0.6c-0.3-0.4-0.4-1-0.4-1.6c0-0.4,0-0.7,0.1-1
		c0.1-0.3,0.2-0.5,0.4-0.7c0.2-0.2,0.3-0.3,0.6-0.4c0.2-0.1,0.5-0.2,0.7-0.2c0.2,0,0.4,0,0.6,0.1c0.1,0,0.3,0.1,0.5,0.2v-1.8h1.3
		V80.6z M63.3,79.4v-2.1c-0.1,0-0.2-0.1-0.3-0.1c-0.1,0-0.2,0-0.3,0c-0.3,0-0.6,0.1-0.7,0.3c-0.2,0.2-0.2,0.5-0.2,0.9
		c0,0.4,0.1,0.7,0.2,0.9c0.1,0.2,0.3,0.3,0.6,0.3c0.1,0,0.2,0,0.4-0.1C63.1,79.6,63.2,79.5,63.3,79.4"/>
</g>
<rect x="0.2" y="0.2" fill="#FFFFFF" width="67.8" height="67.7"/>
<path d="M0.4,0.4h67.4v67.3H0.4V0.4z M0,68.1h68.1V0H0V68.1z"/>
<g>
	<defs>
		<rect id="SVGID_7_" y="0" width="68.1" height="80.7"/>
	</defs>
	<clipPath id="SVGID_8_">
		<use xlink:href="#SVGID_7_"  overflow="visible"/>
	</clipPath>
	<path clip-path="url(#SVGID_8_)" fill="#EE342F" d="M65.6,65.6H2.5V16.3l2.2,6.5C15,29.2,28,29.7,40.8,29.3
		c2.7-0.1,5.4-0.3,8.1-0.6l1.1,1.1c-5.4,0.7-11.3,1-16.8,0.9c-7.3,0.8-14.3,0.9-21.6,0.6l7.5,7.5c13.5-0.2,27.2-1.3,38.1-8.5
		c0-0.2,0.2-0.1,0.3-0.2c2.1-1.4,4.1-3.1,6-5l-6.7-4.6c-2.5,2.4-5.2,4.4-8.1,5.9c-1.6-1.4-3-3-4.6-4.5c-13.5,1-27.6,0.7-38.2-6.7
		c-1.1-0.9-2.3-1.8-3.3-3V2.5h63.1V65.6z"/>
	<path clip-path="url(#SVGID_8_)" fill="#FFFFFF" d="M18.7,40c8.6-0.2,17.3-0.9,25.5-2.6h13.4l5,5l-57.3,0l5-5h5.9L18.7,40z"/>
</g>
<polygon fill="#FFFFFF" points="62.5,44.9 5.2,44.9 5.2,43.8 5.4,43.8 62.6,43.8 "/>
<polygon fill="#FFFFFF" points="62.6,47.4 5.2,47.4 5.2,46.2 62.6,46.2 "/>
<polygon fill="#FFFFFF" points="62.5,49.8 5.2,49.8 5.2,48.6 48.6,48.6 62.5,48.6 "/>
<g>
	<defs>
		<rect id="SVGID_9_" y="0" width="68.1" height="80.7"/>
	</defs>
	<clipPath id="SVGID_10_">
		<use xlink:href="#SVGID_9_"  overflow="visible"/>
	</clipPath>
	<path clip-path="url(#SVGID_10_)" fill="#FFFFFF" d="M9.7,7.2h1.6c1.4,0,2.1,0.3,2.1,1.3c0,0.7-0.4,1.2-1.3,1.4
		c0.6,0.2,1,0.6,1,1.2c0,0.5-0.2,1-0.7,1.3c-0.5,0.3-1,0.4-1.8,0.4H8.7L9.7,7.2z M10.8,11.6c0.4,0,0.6-0.2,0.6-0.7
		c0-0.3-0.2-0.5-0.6-0.5h-0.1l-0.2,1.2C10.7,11.6,10.8,11.6,10.8,11.6 M11.2,9.3c0.4,0,0.6-0.2,0.6-0.6c0-0.3-0.2-0.4-0.5-0.4
		c0,0-0.1,0-0.1,0l-0.2,1C11,9.3,11.1,9.3,11.2,9.3"/>
</g>
<polygon fill="#FFFFFF" points="17.8,7.2 19.5,7.2 18.6,12.8 16.9,12.8 "/>
<g>
	<defs>
		<rect id="SVGID_11_" y="0" width="68.1" height="80.7"/>
	</defs>
	<clipPath id="SVGID_12_">
		<use xlink:href="#SVGID_11_"  overflow="visible"/>
	</clipPath>
	<path clip-path="url(#SVGID_12_)" fill="#FFFFFF" d="M24.2,11.5c0.3,0,0.6-0.2,0.6-0.5c0-0.3-0.2-0.6-0.6-0.9
		c-0.5-0.4-0.8-0.8-0.8-1.3c0-1,0.8-1.8,2.1-1.8c0.5,0,1,0.1,1.4,0.3l-0.2,1.4c-0.4-0.2-0.7-0.4-1-0.4c-0.3,0-0.5,0.1-0.5,0.4
		c0,0.3,0.2,0.5,0.6,0.8c0.5,0.4,0.8,0.7,0.8,1.5c0,1.2-0.8,1.9-2.3,1.9c-0.6,0-1.2-0.1-1.5-0.4l0.3-1.5
		C23.4,11.4,23.9,11.5,24.2,11.5"/>
</g>
<polygon fill="#FFFFFF" points="31.1,7.2 32.8,7.2 32.5,9.2 33.2,9.2 33.5,7.2 35.2,7.2 34.3,12.8 32.5,12.8 32.9,10.6 32.2,10.6 
	31.9,12.8 30.2,12.8 "/>
<g>
	<defs>
		<rect id="SVGID_13_" y="0" width="68.1" height="80.7"/>
	</defs>
	<clipPath id="SVGID_14_">
		<use xlink:href="#SVGID_13_"  overflow="visible"/>
	</clipPath>
	<path clip-path="url(#SVGID_14_)" fill="#FFFFFF" d="M38.7,10.8c0-1.1,0.3-2.1,0.8-2.8c0.5-0.6,1.1-1,2-1c1.1,0,1.9,0.8,1.9,2.1
		c0,1.1-0.3,2.1-0.8,2.8c-0.5,0.6-1.1,1-2,1C39.5,12.9,38.7,12.1,38.7,10.8 M40.8,11.5c0.2,0,0.4-0.2,0.5-0.6
		c0.2-0.5,0.3-1.2,0.3-1.9c0-0.4-0.1-0.6-0.4-0.6c-0.3,0-0.4,0.2-0.6,0.5c-0.2,0.5-0.3,1.3-0.3,1.9C40.4,11.3,40.5,11.5,40.8,11.5"
		/>
	<path clip-path="url(#SVGID_14_)" fill="#FFFFFF" d="M47.9,7.2h1.5c1.6,0,2.3,0.4,2.3,1.6c0,1.4-0.9,2.2-2.5,2.2
		c-0.1,0-0.2,0-0.2,0l-0.3,1.9h-1.7L47.9,7.2z M49.2,9.6c0.1,0,0.1,0,0.2,0c0.5,0,0.7-0.3,0.7-0.8c0-0.3-0.2-0.4-0.6-0.4h-0.1
		L49.2,9.6z"/>
	<path clip-path="url(#SVGID_14_)" fill="#FFFFFF" d="M56.4,11.5c0.3,0,0.6-0.2,0.6-0.5c0-0.3-0.2-0.6-0.6-0.9
		c-0.5-0.4-0.8-0.8-0.8-1.3c0-1,0.8-1.8,2.1-1.8c0.5,0,1,0.1,1.4,0.3l-0.2,1.4c-0.4-0.2-0.7-0.4-1-0.4c-0.3,0-0.5,0.1-0.5,0.4
		c0,0.3,0.2,0.5,0.6,0.8c0.5,0.4,0.8,0.7,0.8,1.5c0,1.2-0.8,1.9-2.3,1.9c-0.6,0-1.2-0.1-1.5-0.4l0.3-1.5
		C55.6,11.4,56,11.5,56.4,11.5"/>
	<path clip-path="url(#SVGID_14_)" fill="#FFFFFF" d="M9.6,55.6H11c1.5,0,2.2,0.4,2.2,1.6c0,1.4-0.8,2.2-2.4,2.2c-0.1,0-0.1,0-0.2,0
		l-0.3,1.9H8.6L9.6,55.6z M10.8,58.1c0.1,0,0.1,0,0.2,0c0.5,0,0.7-0.3,0.7-0.8c0-0.3-0.2-0.4-0.6-0.4H11L10.8,58.1z"/>
	<path clip-path="url(#SVGID_14_)" fill="#FFFFFF" d="M16.6,55.6H18c1.5,0,2.3,0.2,2.3,1.4c0,0.9-0.4,1.5-1.2,1.7l0.7,2.5H18
		L17.7,59l-0.4,2.3h-1.6L16.6,55.6z M17.9,58.1c0.5,0,0.8-0.3,0.8-0.9c0-0.3-0.2-0.5-0.5-0.5c0,0-0.1,0-0.1,0L17.9,58.1L17.9,58.1z"
		/>
</g>
<polygon fill="#FFFFFF" points="23.7,55.6 25.3,55.6 24.4,61.2 22.8,61.2 "/>
<polygon fill="#FFFFFF" points="28.8,55.6 30.3,55.6 30.8,58.6 31.4,55.6 32.8,55.6 31.8,61.2 30.3,61.2 29.8,58.3 29.3,61.2 
	27.9,61.2 "/>
<polygon fill="#FFFFFF" points="36,61.2 36.6,57 35.7,57 35.9,55.6 39.5,55.6 39.3,57 38.3,57 37.6,61.2 "/>
<polygon fill="#FFFFFF" points="42.7,55.6 45.6,55.6 45.3,57 44.1,57 44,57.7 45.1,57.7 44.9,59 43.7,59 43.6,59.8 44.9,59.8 
	44.6,61.2 41.7,61.2 "/>
<g>
	<defs>
		<rect id="SVGID_15_" y="0" width="68.1" height="80.7"/>
	</defs>
	<clipPath id="SVGID_16_">
		<use xlink:href="#SVGID_15_"  overflow="visible"/>
	</clipPath>
	<path clip-path="url(#SVGID_16_)" fill="#FFFFFF" d="M48.8,55.6h1.4c1.5,0,2.3,0.2,2.3,1.4c0,0.9-0.4,1.5-1.2,1.7l0.7,2.5h-1.7
		L49.8,59l-0.4,2.3h-1.6L48.8,55.6z M50.1,58.1c0.5,0,0.8-0.3,0.8-0.9c0-0.3-0.2-0.5-0.5-0.5c0,0-0.1,0-0.1,0L50.1,58.1L50.1,58.1z"
		/>
	<path clip-path="url(#SVGID_16_)" fill="#FFFFFF" d="M56.2,60c0.3,0,0.5-0.2,0.5-0.5c0-0.3-0.2-0.6-0.6-0.9
		c-0.5-0.4-0.7-0.8-0.7-1.3c0-1,0.7-1.8,2-1.8c0.5,0,0.9,0.1,1.4,0.3l-0.2,1.4c-0.4-0.2-0.7-0.4-1-0.4c-0.3,0-0.4,0.2-0.4,0.4
		c0,0.3,0.2,0.5,0.5,0.8c0.4,0.4,0.7,0.7,0.7,1.5c0,1.2-0.8,1.9-2.2,1.9c-0.6,0-1.1-0.2-1.5-0.4l0.3-1.5C55.4,59.8,55.8,60,56.2,60"
		/>
</g>
</svg>
