<?xml version="1.0" encoding="utf-8"?>
<!-- Generator: Adobe Illustrator 18.0.0, SVG Export Plug-In . SVG Version: 6.00 Build 0)  -->
<!DOCTYPE svg PUBLIC "-//W3C//DTD SVG 1.1//EN" "http://www.w3.org/Graphics/SVG/1.1/DTD/svg11.dtd">
<svg version="1.1" xmlns="http://www.w3.org/2000/svg" xmlns:xlink="http://www.w3.org/1999/xlink" x="0px" y="0px"
	 viewBox="0 0 180 180" enable-background="new 0 0 180 180" xml:space="preserve">
<g id="Paper_sizes">
	<circle fill="#F2F6F8" cx="90" cy="90" r="90"/>
	<g>
		<g>
			<line fill="none" stroke="#004970" stroke-width="2" stroke-miterlimit="10" x1="37" y1="56" x2="144" y2="56"/>
			<line fill="none" stroke="#004970" stroke-width="2" stroke-miterlimit="10" x1="143" y1="55" x2="143" y2="126"/>
			<line fill="none" stroke="#004970" stroke-width="2" stroke-miterlimit="10" x1="89" y1="55" x2="89" y2="126"/>
			<line fill="none" stroke="#004970" stroke-width="2" stroke-miterlimit="10" x1="144" y1="126" x2="36" y2="126"/>
			<line fill="none" stroke="#004970" stroke-width="2" stroke-miterlimit="10" x1="37" y1="126" x2="37" y2="55"/>
		</g>
		<g>
			<g>
				<g>
					<path fill="#004970" stroke="#004970" stroke-miterlimit="10" d="M143.3,126.3H88.7V86h54.7V126.3z M89.3,125.7h53.4V86.6H89.3
						V125.7z"/>
				</g>
			</g>
			<g>
				<g>
					<path fill="#004970" stroke="#004970" stroke-miterlimit="10" d="M143.3,126.2h-28.1v-40h28.1V126.2z M115.9,125.6h26.9V86.5
						h-26.9V125.6z"/>
				</g>
			</g>
			<g>
				<g>
					<path fill="#010202" stroke="#004970" stroke-miterlimit="10" d="M143.3,126.3h-28.1v-20.8h28.1V126.3z M115.9,125.7h26.9
						v-19.6h-26.9V125.7z"/>
				</g>
			</g>
			<g>
				<g>
					<path fill="#004970" stroke="#004970" stroke-miterlimit="10" d="M143.3,126.3h-28.1v-20.8h28.1V126.3z M115.9,125.7h26.9
						v-19.6h-26.9V125.7z"/>
				</g>
			</g>
			<g>
				<g>
					<path fill="#004970" stroke="#004970" stroke-miterlimit="10" d="M143.3,126.2h-14.7v-20.7h14.7V126.2z M129.3,125.6h13.4
						v-19.5h-13.4V125.6z"/>
				</g>
			</g>
			<g>
				<g>
					<path fill="#004970" stroke="#004970" stroke-miterlimit="10" d="M143.3,126.2h-14.7v-10.9h14.7V126.2z M129.3,125.6h13.4v-9.6
						h-13.4V125.6z"/>
				</g>
			</g>
		</g>
	</g>
</g>
<g id="Glossary" display="none">
	<circle display="inline" fill="#F2F6F8" cx="90" cy="90" r="90"/>
	<g display="inline">
		<line fill="none" stroke="#004970" stroke-width="2" stroke-miterlimit="10" x1="37" y1="55" x2="144" y2="55"/>
		<line fill="none" stroke="#004970" stroke-width="2" stroke-miterlimit="10" x1="143" y1="54" x2="143" y2="125"/>
		<line fill="none" stroke="#004970" stroke-width="2" stroke-miterlimit="10" x1="89" y1="54" x2="89" y2="125"/>
		<line fill="none" stroke="#004970" stroke-width="2" stroke-miterlimit="10" x1="144" y1="125" x2="36" y2="125"/>
		<line fill="none" stroke="#004970" stroke-width="2" stroke-miterlimit="10" x1="37" y1="125" x2="37" y2="54"/>
	</g>
	<circle display="inline" fill="#004970" cx="63" cy="89.6" r="11.1"/>
	<text transform="matrix(1 0 0 1 58.5659 93.738)" display="inline" fill="#FFFFFF" font-family="'Stag-Semibold'" font-size="12">A</text>
	<circle display="inline" fill="#004970" cx="115" cy="89.6" r="11.1"/>
	<text transform="matrix(1 0 0 1 111.5801 93.738)" display="inline" fill="#FFFFFF" font-family="'Stag-Semibold'" font-size="12">Z</text>
</g>
<g id="FAQ_x27_s" display="none">
	<circle display="inline" fill="#F2F6F8" cx="90" cy="90" r="90"/>
	<g display="inline">
		<g>
			<polygon fill="none" stroke="#004970" stroke-width="2" stroke-miterlimit="10" points="110.7,138.2 63.3,126.4 63.3,65.7 
				110.7,71.1 			"/>
			<polyline fill="none" stroke="#004970" stroke-width="2" stroke-miterlimit="10" points="63.3,65.7 117.2,59.7 117.2,123.5 
				114.2,123.8 			"/>
		</g>
		<g>
			<polyline fill="none" stroke="#004970" stroke-width="2" stroke-miterlimit="10" points="63.3,65.8 114.4,65.1 114.4,132.2 
				111.4,131.9 			"/>
			<polyline fill="none" stroke="#004970" stroke-width="2" stroke-miterlimit="10" points="62.8,65.7 115.3,55 115.3,59.7 			"/>
		</g>
	</g>
	<path display="inline" fill="#004970" d="M96.7,100.6c0,6.1-4.9,10.2-11,9.2c-6.1-1.1-11-6.9-11-13.1c0-6.1,4.9-10.2,11-9.2
		C91.8,88.6,96.7,94.5,96.7,100.6z"/>
	
		<text transform="matrix(0.9912 0.1755 -1.096852e-04 1 82.9898 102.4041)" display="inline" fill="#FFFFFF" font-family="'Stag-Semibold'" font-size="12.0529">?</text>
</g>
<g id="folder" display="none">
	<circle display="inline" fill="#F2F6F8" cx="90" cy="90" r="90"/>
	<g display="inline">
		<line fill="none" stroke="#004970" stroke-width="2" stroke-miterlimit="10" x1="33" y1="53" x2="148" y2="53"/>
		<line fill="none" stroke="#004970" stroke-width="2" stroke-miterlimit="10" x1="147" y1="52" x2="147" y2="128"/>
		<line fill="none" stroke="#004970" stroke-width="2" stroke-miterlimit="10" x1="88" y1="52" x2="88" y2="128"/>
		<line fill="none" stroke="#004970" stroke-width="2" stroke-miterlimit="10" x1="148" y1="128" x2="32" y2="128"/>
		<line fill="none" stroke="#004970" stroke-width="2" stroke-miterlimit="10" x1="33" y1="128" x2="33" y2="52"/>
		<path fill="none" stroke="#004970" stroke-width="2" stroke-miterlimit="10" d="M146,91h-3.9c0,0-6.4-0.2-11.9,7.2
			c-4.3,5.8-6.3,7.7-8.7,8.9c-2.5,1.2-6.1,3.7-16.7,5C90.6,113.8,91,122,91,122v5"/>
	</g>
</g>
</svg>
