<?xml version="1.0" encoding="utf-8"?>
<!-- Generator: Adobe Illustrator 19.1.0, SVG Export Plug-In . SVG Version: 6.00 Build 0)  -->
<!DOCTYPE svg PUBLIC "-//W3C//DTD SVG 1.1//EN" "http://www.w3.org/Graphics/SVG/1.1/DTD/svg11.dtd">
<svg version="1.1" xmlns="http://www.w3.org/2000/svg" xmlns:xlink="http://www.w3.org/1999/xlink" x="0px" y="0px"
	 viewBox="0 0 180 180" style="enable-background:new 0 0 180 180;" xml:space="preserve">
<style type="text/css">
	.st0{display:none;}
	.st1{display:inline;fill:#F2F6F8;}
	.st2{display:inline;}
	.st3{fill:none;stroke:#004970;stroke-width:2;stroke-miterlimit:10;}
	.st4{fill:#004970;stroke:#004970;stroke-miterlimit:10;}
	.st5{fill:#010202;stroke:#004970;stroke-miterlimit:10;}
	.st6{display:inline;fill:#004970;}
	.st7{fill:#FFFFFF;}
	.st8{fill:#F2F6F8;}
	.st9{fill:#004970;}
	.st10{fill:#004970;stroke:#F2F6F8;stroke-miterlimit:10;}
	.st11{opacity:0.2;}
	.st12{opacity:0.3;}
	.st13{fill:#010202;}
</style>
<g id="Paper_sizes" class="st0">
	<circle class="st1" cx="90" cy="90" r="90"/>
	<g class="st2">
		<g>
			<line class="st3" x1="37" y1="56" x2="144" y2="56"/>
			<line class="st3" x1="143" y1="55" x2="143" y2="126"/>
			<line class="st3" x1="89" y1="55" x2="89" y2="126"/>
			<line class="st3" x1="144" y1="126" x2="36" y2="126"/>
			<line class="st3" x1="37" y1="126" x2="37" y2="55"/>
		</g>
		<g>
			<g>
				<g>
					<path class="st4" d="M143.3,126.3H88.7V86h54.7V126.3z M89.3,125.7h53.4V86.6H89.3V125.7z"/>
				</g>
			</g>
			<g>
				<g>
					<path class="st4" d="M143.3,126.2h-28.1v-40h28.1V126.2z M115.9,125.6h26.9V86.5h-26.9V125.6z"/>
				</g>
			</g>
			<g>
				<g>
					<path class="st5" d="M143.3,126.3h-28.1v-20.8h28.1V126.3z M115.9,125.7h26.9v-19.6h-26.9V125.7z"/>
				</g>
			</g>
			<g>
				<g>
					<path class="st4" d="M143.3,126.3h-28.1v-20.8h28.1V126.3z M115.9,125.7h26.9v-19.6h-26.9V125.7z"/>
				</g>
			</g>
			<g>
				<g>
					<path class="st4" d="M143.3,126.2h-14.7v-20.7h14.7V126.2z M129.3,125.6h13.4v-19.5h-13.4V125.6z"/>
				</g>
			</g>
			<g>
				<g>
					<path class="st4" d="M143.3,126.2h-14.7v-10.9h14.7V126.2z M129.3,125.6h13.4v-9.6h-13.4V125.6z"/>
				</g>
			</g>
		</g>
	</g>
</g>
<g id="Glossary" class="st0">
	<circle class="st1" cx="90" cy="90" r="90"/>
	<g class="st2">
		<line class="st3" x1="37" y1="55" x2="144" y2="55"/>
		<line class="st3" x1="143" y1="54" x2="143" y2="125"/>
		<line class="st3" x1="89" y1="54" x2="89" y2="125"/>
		<line class="st3" x1="144" y1="125" x2="36" y2="125"/>
		<line class="st3" x1="37" y1="125" x2="37" y2="54"/>
	</g>
	<circle class="st6" cx="63" cy="89.6" r="11.1"/>
	<g class="st2">
		<path class="st7" d="M58.7,92.5h0.2c0.2,0,0.4-0.1,0.5-0.4l1.9-5.2c0.1-0.2,0-0.3-0.2-0.3h-0.5v-1.3h4l2.2,6.9
			c0,0.2,0.2,0.3,0.4,0.3h0.3v1.2h-3.9v-1.2h1L64,91.2h-2.7l-0.1,0.3c-0.2,0.7-0.2,1.1,0.4,1.1H62v1.2h-3.4V92.5z M63.7,90l-0.9-3h0
			l-1,3H63.7z"/>
	</g>
	<circle class="st6" cx="115" cy="89.6" r="11.1"/>
	<g class="st2">
		<path class="st7" d="M111.7,92.2l4.1-5.5v0h-2.3l-0.2,1.2H112v-2.5h6.3v1.5l-4.2,5.5v0h2.5l0.2-1.3h1.4v2.7h-6.6V92.2z"/>
	</g>
</g>
<g id="FAQ_x27_s" class="st0">
	<circle class="st1" cx="90" cy="90" r="90"/>
	<g class="st2">
		<g>
			<polygon class="st3" points="110.7,138.2 63.3,126.4 63.3,65.7 110.7,71.1 			"/>
			<polyline class="st3" points="63.3,65.7 117.2,59.7 117.2,123.5 114.2,123.8 			"/>
		</g>
		<g>
			<polyline class="st3" points="63.3,65.8 114.4,65.1 114.4,132.2 111.4,131.9 			"/>
			<polyline class="st3" points="62.8,65.7 115.3,55 115.3,59.7 			"/>
		</g>
	</g>
	<path class="st6" d="M96.7,100.6c0,6.1-4.9,10.2-11,9.2c-6.1-1.1-11-6.9-11-13.1c0-6.1,4.9-10.2,11-9.2
		C91.8,88.6,96.7,94.5,96.7,100.6z"/>
	<g class="st2">
		<path class="st7" d="M85.1,97.9c0.3-0.3,0.9-0.7,0.9-1.3c0-0.5-0.2-0.8-0.7-0.9c-0.5-0.1-0.8,0.2-0.9,0.5l-1.2-0.2v-1.7
			c0.7-0.1,1.3-0.2,2.3,0c1.8,0.3,2.8,1.3,2.8,2.8c0,1-0.6,1.4-1.3,1.8c-0.8,0.4-1.3,0.7-1.3,1.5l-1.3-0.2
			C84.3,99.1,84.4,98.6,85.1,97.9z M84.1,101.6c0-0.6,0.5-1,1.1-0.9c0.6,0.1,1.1,0.7,1.1,1.3c0,0.6-0.5,1-1.1,0.9
			C84.6,102.8,84.1,102.2,84.1,101.6z"/>
	</g>
</g>
<g id="folder" class="st0">
	<circle class="st1" cx="90" cy="90" r="90"/>
	<g class="st2">
		<line class="st3" x1="41" y1="59" x2="138" y2="59"/>
		<line class="st3" x1="137" y1="58" x2="137" y2="122"/>
		<line class="st3" x1="87" y1="58" x2="87" y2="122"/>
		<line class="st3" x1="138" y1="122" x2="40" y2="122"/>
		<line class="st3" x1="41" y1="122" x2="41" y2="58"/>
		<path class="st3" d="M137,91h-2.6c0,0-5.4-0.1-10.1,6.1c-3.6,4.9-5.3,6.5-7.4,7.5c-2.1,1-5.7,3.1-14.7,4.2
			c-12.1,1.5-12.2,8.4-12.2,8.4v4.7"/>
	</g>
</g>
<g id="folder_copy">
	<circle class="st8" cx="90" cy="90" r="90"/>
	<g>
		<line class="st3" x1="41" y1="59" x2="138" y2="59"/>
		<line class="st3" x1="137" y1="58" x2="137" y2="122"/>
		<line class="st3" x1="138" y1="122" x2="40" y2="122"/>
		<line class="st3" x1="41" y1="122" x2="41" y2="58"/>
	</g>
	<rect x="41" y="59" class="st9" width="48.5" height="62.5"/>
	<path class="st10" d="M89.5,69.7L89.5,69.7c-0.7,0-1.2-0.6-1.2-1.2v-3.7c0-0.7,0.6-1.2,1.2-1.2l0,0c0.7,0,1.2,0.6,1.2,1.2v3.7
		C90.7,69.1,90.2,69.7,89.5,69.7z"/>
	<path class="st10" d="M89.5,81.5L89.5,81.5c-0.7,0-1.2-0.6-1.2-1.2v-3.7c0-0.7,0.6-1.2,1.2-1.2l0,0c0.7,0,1.2,0.6,1.2,1.2v3.7
		C90.7,80.9,90.2,81.5,89.5,81.5z"/>
	<path class="st10" d="M89.5,93.3L89.5,93.3c-0.7,0-1.2-0.6-1.2-1.2v-3.7c0-0.7,0.6-1.2,1.2-1.2l0,0c0.7,0,1.2,0.6,1.2,1.2V92
		C90.7,92.7,90.2,93.3,89.5,93.3z"/>
	<path class="st10" d="M89.5,105.1L89.5,105.1c-0.7,0-1.2-0.6-1.2-1.2v-3.7c0-0.7,0.6-1.2,1.2-1.2l0,0c0.7,0,1.2,0.6,1.2,1.2v3.7
		C90.7,104.5,90.2,105.1,89.5,105.1z"/>
	<path class="st10" d="M89.5,116.9L89.5,116.9c-0.7,0-1.2-0.6-1.2-1.2v-3.7c0-0.7,0.6-1.2,1.2-1.2l0,0c0.7,0,1.2,0.6,1.2,1.2v3.7
		C90.7,116.3,90.2,116.9,89.5,116.9z"/>
	<g class="st11">
		<polygon class="st7" points="69,60.6 42.2,87.5 42.2,91.2 72.7,60.6 		"/>
		<polygon class="st7" points="49.5,60.6 42.2,68 42.2,83.7 65.2,60.6 		"/>
		<polygon class="st7" points="75.5,60.6 42.2,94 42.2,95.2 76.8,60.6 		"/>
		<polygon class="st7" points="62.4,120.1 88.3,94.2 88.3,90.5 58.7,120.1 		"/>
		<polygon class="st7" points="66.5,120.1 88.3,98.3 88.3,97 65.2,120.1 		"/>
	</g>
	<g>
		<path class="st9" d="M115.9,101.9c-2.1,2.4-4.7,3.3-8,3.3c-5,0-8.8-2.7-8.8-8.1c0-6,4.4-8.7,10.9-8.7c2.2,0,3.8,0.2,5.4,0.5v-2.3
			c0-2.4-1.3-3.5-4.4-3.5c-3.1,0-4.7,1.2-6,2.2h-4.1v-6.7c2.7-1.1,6.6-2,12.2-2c7.9,0,11.7,2.6,11.7,9v12.6c0,0.6,0.7,1.3,1.3,1.3
			h1.3v4.5c-1.3,0.8-3.2,1.3-5.5,1.3C118.3,105.3,116.6,104.1,115.9,101.9z M115.3,98.4v-5.1c-1-0.2-2.2-0.3-3.3-0.3
			c-2.5,0-4.1,1.1-4.1,3.4c0,2.5,1.4,3.4,3.5,3.4C113,99.8,114.2,99.3,115.3,98.4z"/>
	</g>
	<g class="st12">
		<path class="st7" d="M101.9,79.6c2.7-1.1,6.6-2,12.2-2c4.1,0,7.1,0.7,9,2.3c-1.8-2.3-5.1-3.3-10-3.3c-5.5,0-9.4,0.9-12.2,2v6.7
			l1-1V79.6z"/>
		<path class="st7" d="M100,98.1c0-6,4.4-8.7,10.9-8.7c2.2,0,3.8,0.2,5.4,0.5v-2.3c0-1.4-0.8-3-2.2-3.8c1,0.7,1.2,2,1.2,2.8v2.3
			c-1.7-0.4-3.2-0.5-5.4-0.5c-6.4,0-10.9,2.7-10.9,8.7c0,2.8,1,4.9,2.7,6.2C100.6,102,100,100.3,100,98.1z"/>
		<path class="st7" d="M112.5,100.8c1.5,0,2.7-0.5,3.9-1.5v-6.7c-0.5,0.4-0.7,0.4-1,0.7v5.1c-1.1,1-2.3,1.5-3.9,1.5
			c-0.8,0-2.2-0.1-3-1.4C109.2,100.3,111.1,100.8,112.5,100.8z"/>
	</g>
	<g class="st12">
		<path class="st13" d="M105,85.3c1.3-1.1,2.9-2.2,6-2.2c1.3,0,2.2,0.2,2.9,0.6c-0.6-1.1-1.9-1.6-3.9-1.6c-3.1,0-4.7,1.2-6,2.2h-2.1
			l-1,1H105z"/>
		<path class="st13" d="M123.7,84.6v12.6c0,0.5,0.5,1.1,1.1,1.3c0-0.1-0.1-0.2-0.1-0.3V85.6c0-3.1-0.9-5.2-2.7-6.7
			C123.2,80.3,123.7,82.2,123.7,84.6z"/>
		<path class="st13" d="M115.9,101.9c-2.1,2.4-5.7,2.3-9,2.3c-2.4,0-4.6-0.6-6.1-1.9c1.6,1.9,4.2,2.9,7.1,2.9c3.2,0,5.7-0.8,7.7-3
			L115.9,101.9z"/>
		<path class="st13" d="M126.3,99.6v3.5c-1.3,0.8-3.2,1.3-5.5,1.3c-1.9,0-3.2-0.4-4.2-1.1c1,1.3,2.6,2.1,5.2,2.1
			c2.3,0,4.2-0.5,5.5-1.3v-4.5H126.3z"/>
		<path class="st13" d="M108.5,98.4c-0.3-0.5-0.5-1.2-0.5-2c0-2.4,1.5-3.4,4.1-3.4c0.8,0,1.8,0,3.3,0.3l1-0.7
			c-1-0.2-4.2-0.6-5.3-0.6c-2.5,0-4.1,1.1-4.1,3.4C107,96.9,107.5,97.9,108.5,98.4z"/>
	</g>
</g>
</svg>
