<?xml version="1.0" encoding="utf-8"?>
<!-- Generator: Adobe Illustrator 18.0.0, SVG Export Plug-In . SVG Version: 6.00 Build 0)  -->
<!DOCTYPE svg PUBLIC "-//W3C//DTD SVG 1.1//EN" "http://www.w3.org/Graphics/SVG/1.1/DTD/svg11.dtd">
<svg version="1.1" xmlns="http://www.w3.org/2000/svg" xmlns:xlink="http://www.w3.org/1999/xlink" x="0px" y="0px"
	 viewBox="0 0 600 426" enable-background="new 0 0 600 426" xml:space="preserve">
<g id="Layer_2">
</g>
<g id="Layer_1">
	<line fill="none" stroke="#004970" stroke-width="2" stroke-miterlimit="10" x1="3" y1="423" x2="3" y2="2"/>
	<line fill="none" stroke="#004970" stroke-width="2" stroke-miterlimit="10" x1="2" y1="3" x2="597" y2="3"/>
	<line fill="none" stroke="#004970" stroke-width="2" stroke-miterlimit="10" x1="298" y1="213" x2="597" y2="213"/>
	<line fill="none" stroke="#004970" stroke-width="2" stroke-miterlimit="10" x1="447" y1="318" x2="597" y2="318"/>
	<line fill="none" stroke="#004970" stroke-width="2" stroke-miterlimit="10" x1="520" y1="371" x2="597" y2="371"/>
	<line fill="none" stroke="#004970" stroke-width="2" stroke-miterlimit="10" x1="521" y1="423" x2="521" y2="317"/>
	<line fill="none" stroke="#004970" stroke-width="2" stroke-miterlimit="10" x1="2" y1="422" x2="597" y2="422"/>
	<line fill="none" stroke="#004970" stroke-width="2" stroke-miterlimit="10" x1="596" y1="423" x2="596" y2="2"/>
	<line fill="none" stroke="#004970" stroke-width="2" stroke-miterlimit="10" x1="299" y1="423" x2="299" y2="3"/>
	<line fill="none" stroke="#004970" stroke-width="2" stroke-miterlimit="10" x1="448" y1="423" x2="448" y2="212"/>
	<g>
		<path fill="#004970" d="M27.1,408.5l-1.2-4.1h-6.2l-1.2,4.1h-3.9l6-17.2H25l6.1,17.2H27.1z M25,401.4c-1.1-3.7-1.8-5.8-1.9-6.3
			s-0.2-0.9-0.3-1.1c-0.3,1-1,3.5-2.2,7.4H25z"/>
		<path fill="#004970" d="M41,408.5h-3.6v-9.9l0-1.6l0.1-1.8c-0.6,0.6-1,1-1.3,1.2l-2,1.6l-1.7-2.2l5.5-4.4h3V408.5z"/>
	</g>
	<g>
		<path fill="#004970" d="M323.1,408.5l-1.2-4.1h-6.2l-1.2,4.1h-3.9l6-17.2h4.4l6.1,17.2H323.1z M321,401.4
			c-1.1-3.7-1.8-5.8-1.9-6.3s-0.2-0.9-0.3-1.1c-0.3,1-1,3.5-2.2,7.4H321z"/>
		<path fill="#004970" d="M339.3,395.2c0,1.1-0.3,2-1,2.7s-1.6,1.3-2.7,1.5v0.1c1.4,0.2,2.4,0.6,3.1,1.3s1.1,1.6,1.1,2.7
			c0,1.6-0.6,2.9-1.8,3.8s-2.9,1.4-5.1,1.4c-1.9,0-3.5-0.3-4.9-0.9v-3.1c0.7,0.3,1.4,0.6,2.2,0.8s1.6,0.3,2.4,0.3
			c1.2,0,2.1-0.2,2.6-0.6s0.9-1.1,0.9-2c0-0.8-0.3-1.4-1-1.7s-1.7-0.5-3.1-0.5h-1.3v-2.8h1.3c1.3,0,2.3-0.2,2.9-0.5s0.9-0.9,0.9-1.8
			c0-1.3-0.8-1.9-2.4-1.9c-0.6,0-1.1,0.1-1.7,0.3s-1.2,0.5-1.9,1l-1.7-2.5c1.6-1.1,3.4-1.7,5.6-1.7c1.8,0,3.2,0.4,4.2,1.1
			S339.3,393.9,339.3,395.2z"/>
	</g>
	<g>
		<path fill="#004970" d="M472.6,408.5l-1.2-4.1h-6.2l-1.2,4.1H460l6-17.2h4.4l6.1,17.2H472.6z M470.5,401.4
			c-1.1-3.7-1.8-5.8-1.9-6.3s-0.2-0.9-0.3-1.1c-0.3,1-1,3.5-2.2,7.4H470.5z"/>
		<path fill="#004970" d="M483.8,397.6c1.7,0,3,0.5,4,1.4s1.5,2.2,1.5,3.8c0,1.9-0.6,3.4-1.8,4.4s-2.9,1.5-5.1,1.5
			c-1.9,0-3.4-0.3-4.6-0.9v-3.1c0.6,0.3,1.3,0.6,2.2,0.8s1.6,0.3,2.3,0.3c2.2,0,3.3-0.9,3.3-2.7c0-1.7-1.1-2.6-3.4-2.6
			c-0.4,0-0.9,0-1.4,0.1s-0.9,0.2-1.2,0.3l-1.4-0.8l0.6-8.7h9.3v3.1h-6.1l-0.3,3.4l0.4-0.1C482.5,397.6,483.1,397.6,483.8,397.6z"/>
	</g>
	<g>
		<path fill="#004970" d="M543.1,358.5l-1.2-4.1h-6.2l-1.2,4.1h-3.9l6-17.2h4.4l6.1,17.2H543.1z M541,351.4
			c-1.1-3.7-1.8-5.8-1.9-6.3s-0.2-0.9-0.3-1.1c-0.3,1-1,3.5-2.2,7.4H541z"/>
		<path fill="#004970" d="M547.9,351.2c0-3.4,0.7-5.9,2.2-7.6s3.6-2.5,6.4-2.5c1,0,1.7,0.1,2.3,0.2v2.9c-0.7-0.2-1.4-0.2-2.1-0.2
			c-1.2,0-2.3,0.2-3,0.6s-1.4,0.9-1.8,1.7s-0.6,1.8-0.7,3.1h0.2c0.8-1.3,2-2,3.7-2c1.5,0,2.7,0.5,3.6,1.4s1.3,2.3,1.3,4
			c0,1.8-0.5,3.3-1.5,4.3s-2.5,1.6-4.3,1.6c-1.3,0-2.4-0.3-3.3-0.9s-1.7-1.4-2.2-2.6S547.9,352.8,547.9,351.2z M554.1,355.8
			c0.8,0,1.4-0.3,1.8-0.8s0.6-1.3,0.6-2.2c0-0.8-0.2-1.5-0.6-2s-1-0.7-1.8-0.7c-0.7,0-1.4,0.2-1.9,0.7s-0.8,1-0.8,1.7
			c0,0.9,0.2,1.7,0.7,2.4S553.3,355.8,554.1,355.8z"/>
	</g>
	<g>
		<path fill="#004970" d="M323.1,200l-1.2-4.1h-6.2l-1.2,4.1h-3.9l6-17.2h4.4l6.1,17.2H323.1z M321,192.9c-1.1-3.7-1.8-5.8-1.9-6.3
			s-0.2-0.9-0.3-1.1c-0.3,1-1,3.5-2.2,7.4H321z"/>
		<path fill="#004970" d="M340,200h-12v-2.5l4.3-4.3c1.3-1.3,2.1-2.2,2.5-2.7s0.7-1,0.8-1.4s0.3-0.9,0.3-1.3c0-0.7-0.2-1.2-0.6-1.5
			s-0.9-0.5-1.5-0.5c-0.7,0-1.3,0.2-1.9,0.5s-1.3,0.7-2,1.3l-2-2.3c0.8-0.7,1.5-1.2,2.1-1.5s1.2-0.5,1.8-0.7s1.4-0.2,2.2-0.2
			c1.1,0,2,0.2,2.8,0.6s1.5,0.9,1.9,1.6s0.7,1.5,0.7,2.4c0,0.8-0.1,1.5-0.4,2.2s-0.7,1.4-1.3,2.1s-1.6,1.8-3.1,3.1l-2.2,2.1v0.2h7.5
			V200z"/>
	</g>
	<g>
		<path fill="#004970" d="M472.6,304.5l-1.2-4.1h-6.2l-1.2,4.1H460l6-17.2h4.4l6.1,17.2H472.6z M470.5,297.4
			c-1.1-3.7-1.8-5.8-1.9-6.3s-0.2-0.9-0.3-1.1c-0.3,1-1,3.5-2.2,7.4H470.5z"/>
		<path fill="#004970" d="M489.9,300.9h-2.1v3.6h-3.5v-3.6H477v-2.5l7.5-11.1h3.3v10.8h2.1V300.9z M484.3,298.1v-2.9
			c0-0.5,0-1.2,0.1-2.1s0.1-1.5,0.1-1.6h-0.1c-0.3,0.6-0.6,1.3-1,1.9l-3.1,4.7H484.3z"/>
	</g>
</g>
</svg>
