<?xml version="1.0" encoding="utf-8"?>
<!-- Generator: Adobe Illustrator 18.0.0, SVG Export Plug-In . SVG Version: 6.00 Build 0)  -->
<!DOCTYPE svg PUBLIC "-//W3C//DTD SVG 1.1//EN" "http://www.w3.org/Graphics/SVG/1.1/DTD/svg11.dtd">
<svg version="1.1" xmlns="http://www.w3.org/2000/svg" xmlns:xlink="http://www.w3.org/1999/xlink" x="0px" y="0px"
	 viewBox="0 0 180 180" enable-background="new 0 0 180 180" xml:space="preserve">
<g id="Paper_sizes" display="none">
	<circle display="inline" fill="#F2F6F8" cx="90" cy="90" r="90"/>
	<g display="inline">
		<g>
			<line fill="none" stroke="#004970" stroke-width="2" stroke-miterlimit="10" x1="37" y1="56" x2="144" y2="56"/>
			<line fill="none" stroke="#004970" stroke-width="2" stroke-miterlimit="10" x1="143" y1="55" x2="143" y2="126"/>
			<line fill="none" stroke="#004970" stroke-width="2" stroke-miterlimit="10" x1="89" y1="55" x2="89" y2="126"/>
			<line fill="none" stroke="#004970" stroke-width="2" stroke-miterlimit="10" x1="144" y1="126" x2="36" y2="126"/>
			<line fill="none" stroke="#004970" stroke-width="2" stroke-miterlimit="10" x1="37" y1="126" x2="37" y2="55"/>
		</g>
		<g>
			<g>
				<g>
					<path fill="#004970" stroke="#004970" stroke-miterlimit="10" d="M143.3,126.3H88.7V86h54.7V126.3z M89.3,125.7h53.4V86.6H89.3
						V125.7z"/>
				</g>
			</g>
			<g>
				<g>
					<path fill="#004970" stroke="#004970" stroke-miterlimit="10" d="M143.3,126.2h-28.1v-40h28.1V126.2z M115.9,125.6h26.9V86.5
						h-26.9V125.6z"/>
				</g>
			</g>
			<g>
				<g>
					<path fill="#010202" stroke="#004970" stroke-miterlimit="10" d="M143.3,126.3h-28.1v-20.8h28.1V126.3z M115.9,125.7h26.9
						v-19.6h-26.9V125.7z"/>
				</g>
			</g>
			<g>
				<g>
					<path fill="#004970" stroke="#004970" stroke-miterlimit="10" d="M143.3,126.3h-28.1v-20.8h28.1V126.3z M115.9,125.7h26.9
						v-19.6h-26.9V125.7z"/>
				</g>
			</g>
			<g>
				<g>
					<path fill="#004970" stroke="#004970" stroke-miterlimit="10" d="M143.3,126.2h-14.7v-20.7h14.7V126.2z M129.3,125.6h13.4
						v-19.5h-13.4V125.6z"/>
				</g>
			</g>
			<g>
				<g>
					<path fill="#004970" stroke="#004970" stroke-miterlimit="10" d="M143.3,126.2h-14.7v-10.9h14.7V126.2z M129.3,125.6h13.4v-9.6
						h-13.4V125.6z"/>
				</g>
			</g>
		</g>
	</g>
</g>
<g id="Glossary">
	<circle fill="#F2F6F8" cx="90" cy="90" r="90"/>
	<g>
		<line fill="none" stroke="#004970" stroke-width="2" stroke-miterlimit="10" x1="37" y1="55" x2="144" y2="55"/>
		<line fill="none" stroke="#004970" stroke-width="2" stroke-miterlimit="10" x1="143" y1="54" x2="143" y2="125"/>
		<line fill="none" stroke="#004970" stroke-width="2" stroke-miterlimit="10" x1="89" y1="54" x2="89" y2="125"/>
		<line fill="none" stroke="#004970" stroke-width="2" stroke-miterlimit="10" x1="144" y1="125" x2="36" y2="125"/>
		<line fill="none" stroke="#004970" stroke-width="2" stroke-miterlimit="10" x1="37" y1="125" x2="37" y2="54"/>
	</g>
	<circle fill="#004970" cx="63" cy="89.6" r="11.1"/>
	<g>
		<path fill="#FFFFFF" d="M58.7,92.5h0.2c0.2,0,0.4-0.1,0.5-0.4l1.9-5.2c0.1-0.2,0-0.3-0.2-0.3h-0.5v-1.3h4l2.2,6.9
			c0,0.2,0.2,0.3,0.4,0.3h0.3v1.2h-3.9v-1.2h1L64,91.2h-2.7l-0.1,0.3c-0.2,0.7-0.2,1.1,0.4,1.1H62v1.2h-3.4V92.5z M63.7,90l-0.9-3h0
			l-1,3H63.7z"/>
	</g>
	<circle fill="#004970" cx="115" cy="89.6" r="11.1"/>
	<g>
		<path fill="#FFFFFF" d="M111.7,92.2l4.1-5.5v0h-2.3l-0.2,1.2H112v-2.5h6.3v1.5l-4.2,5.5v0h2.5l0.2-1.3h1.4v2.7h-6.6V92.2z"/>
	</g>
</g>
<g id="FAQ_x27_s" display="none">
	<circle display="inline" fill="#F2F6F8" cx="90" cy="90" r="90"/>
	<g display="inline">
		<g>
			<polygon fill="none" stroke="#004970" stroke-width="2" stroke-miterlimit="10" points="110.7,138.2 63.3,126.4 63.3,65.7 
				110.7,71.1 			"/>
			<polyline fill="none" stroke="#004970" stroke-width="2" stroke-miterlimit="10" points="63.3,65.7 117.2,59.7 117.2,123.5 
				114.2,123.8 			"/>
		</g>
		<g>
			<polyline fill="none" stroke="#004970" stroke-width="2" stroke-miterlimit="10" points="63.3,65.8 114.4,65.1 114.4,132.2 
				111.4,131.9 			"/>
			<polyline fill="none" stroke="#004970" stroke-width="2" stroke-miterlimit="10" points="62.8,65.7 115.3,55 115.3,59.7 			"/>
		</g>
	</g>
	<path display="inline" fill="#004970" d="M96.7,100.6c0,6.1-4.9,10.2-11,9.2c-6.1-1.1-11-6.9-11-13.1c0-6.1,4.9-10.2,11-9.2
		C91.8,88.6,96.7,94.5,96.7,100.6z"/>
	<g display="inline">
		<path fill="#FFFFFF" d="M85.1,97.9c0.3-0.3,0.9-0.7,0.9-1.3c0-0.5-0.2-0.8-0.7-0.9c-0.5-0.1-0.8,0.2-0.9,0.5l-1.2-0.2v-1.7
			c0.7-0.1,1.3-0.2,2.3,0c1.8,0.3,2.8,1.3,2.8,2.8c0,1-0.6,1.4-1.3,1.8c-0.8,0.4-1.3,0.7-1.3,1.5l-1.3-0.2
			C84.3,99.1,84.4,98.6,85.1,97.9z M84.1,101.6c0-0.6,0.5-1,1.1-0.9c0.6,0.1,1.1,0.7,1.1,1.3c0,0.6-0.5,1-1.1,0.9
			C84.6,102.8,84.1,102.2,84.1,101.6z"/>
	</g>
</g>
<g id="folder" display="none">
	<circle display="inline" fill="#F2F6F8" cx="90" cy="90" r="90"/>
	<g display="inline">
		<line fill="none" stroke="#004970" stroke-width="2" stroke-miterlimit="10" x1="33" y1="53" x2="148" y2="53"/>
		<line fill="none" stroke="#004970" stroke-width="2" stroke-miterlimit="10" x1="147" y1="52" x2="147" y2="128"/>
		<line fill="none" stroke="#004970" stroke-width="2" stroke-miterlimit="10" x1="88" y1="52" x2="88" y2="128"/>
		<line fill="none" stroke="#004970" stroke-width="2" stroke-miterlimit="10" x1="148" y1="128" x2="32" y2="128"/>
		<line fill="none" stroke="#004970" stroke-width="2" stroke-miterlimit="10" x1="33" y1="128" x2="33" y2="52"/>
		<path fill="none" stroke="#004970" stroke-width="2" stroke-miterlimit="10" d="M146,91h-3.9c0,0-6.4-0.2-11.9,7.2
			c-4.3,5.8-6.3,7.7-8.7,8.9c-2.5,1.2-6.1,3.7-16.7,5C90.6,113.8,91,122,91,122v5"/>
	</g>
</g>
</svg>
