<?xml version="1.0" encoding="utf-8"?>
<!-- Generator: Adobe Illustrator 18.0.0, SVG Export Plug-In . SVG Version: 6.00 Build 0)  -->
<!DOCTYPE svg PUBLIC "-//W3C//DTD SVG 1.1//EN" "http://www.w3.org/Graphics/SVG/1.1/DTD/svg11.dtd">
<svg version="1.1" xmlns="http://www.w3.org/2000/svg" xmlns:xlink="http://www.w3.org/1999/xlink" x="0px" y="0px"
	 viewBox="0 0 231.6 124.5" enable-background="new 0 0 231.6 124.5" xml:space="preserve">
<g id="j" display="none">
	<g display="inline">
		<line fill="none" stroke="#004970" stroke-width="2" stroke-miterlimit="10" x1="52.4" y1="21.3" x2="180.4" y2="21.3"/>
		<line fill="none" stroke="#004970" stroke-width="2" stroke-miterlimit="10" x1="179.4" y1="20.3" x2="179.4" y2="105.3"/>
		<line fill="none" stroke="#004970" stroke-width="2" stroke-miterlimit="10" x1="114.4" y1="20.3" x2="114.4" y2="105.3"/>
		<line fill="none" stroke="#004970" stroke-width="2" stroke-miterlimit="10" x1="180.4" y1="105.3" x2="51.4" y2="105.3"/>
		<line fill="none" stroke="#004970" stroke-width="2" stroke-miterlimit="10" x1="52.4" y1="105.3" x2="52.4" y2="20.3"/>
		<line fill="none" stroke="#004970" stroke-width="2" stroke-miterlimit="10" x1="52.4" y1="11.3" x2="52.4" y2="18.3"/>
		<line fill="none" stroke="#004970" stroke-width="2" stroke-miterlimit="10" x1="51.4" y1="15.3" x2="115.4" y2="15.3"/>
		<line fill="none" stroke="#004970" stroke-width="2" stroke-miterlimit="10" x1="114.4" y1="11.3" x2="114.4" y2="18.3"/>
		<line fill="none" stroke="#004970" stroke-width="2" stroke-miterlimit="10" x1="45.4" y1="20.3" x2="45.4" y2="106.3"/>
		<line fill="none" stroke="#004970" stroke-width="2" stroke-miterlimit="10" x1="42.4" y1="105.3" x2="49.4" y2="105.3"/>
		<line fill="none" stroke="#004970" stroke-width="2" stroke-miterlimit="10" x1="42.4" y1="21.3" x2="49.4" y2="21.3"/>
		<line fill="none" stroke="#004970" stroke-width="2" stroke-miterlimit="10" x1="182.4" y1="64.3" x2="189.4" y2="64.3"/>
		<line fill="none" stroke="#004970" stroke-width="2" stroke-miterlimit="10" x1="185.4" y1="63.3" x2="185.4" y2="106.3"/>
		<line fill="none" stroke="#004970" stroke-width="2" stroke-miterlimit="10" x1="182.4" y1="105.3" x2="189.4" y2="105.3"/>
		<path fill="none" stroke="#004970" stroke-width="2" stroke-miterlimit="10" d="M178.4,64.3h-4.6c0,0-7.1-0.6-13.2,7.6
			c-4.8,6.4-7,8.4-9.8,9.7s-6.5,4-18.3,5.5c-15.9,2-15.1,11-15.1,11v6.2"/>
		<g>
			<g>
				<line fill="none" stroke="#004970" stroke-width="2" stroke-miterlimit="10" x1="178.3" y1="67.8" x2="177.6" y2="68.5"/>
				<polyline fill="none" stroke="#004970" stroke-width="2" stroke-miterlimit="10" stroke-dasharray="1.9556,1.9556" points="
					176.4,70 174.4,72.1 174.4,99.5 176.9,102.5 				"/>
				<line fill="none" stroke="#004970" stroke-width="2" stroke-miterlimit="10" x1="177.5" y1="103.2" x2="178.1" y2="104"/>
			</g>
		</g>
		<circle fill="#E71725" cx="84.6" cy="62.3" r="11.1"/>
		<g>
			<path fill="#FFFFFF" d="M81.8,65.7v-1.5H83c0.2,0.3,0.4,0.5,0.9,0.5c0.5,0,0.8-0.3,0.8-0.9v-4.6c0-0.1-0.2-0.3-0.3-0.3h-0.5v-1.3
				h4v1.3h-0.5c-0.2,0-0.3,0.2-0.3,0.3v4.5c0,1.7-0.9,2.4-3,2.4C83.1,66.1,82.4,66,81.8,65.7z"/>
		</g>
		<g>
			<path fill="#004970" d="M81,9.4h-5v-1l1.8-1.8c0.5-0.5,0.9-0.9,1-1.1C79,5.2,79.2,5,79.2,4.8c0.1-0.2,0.1-0.4,0.1-0.6
				c0-0.3-0.1-0.5-0.2-0.6c-0.2-0.1-0.4-0.2-0.6-0.2c-0.3,0-0.5,0.1-0.8,0.2c-0.3,0.1-0.5,0.3-0.8,0.5l-0.8-1
				c0.4-0.3,0.6-0.5,0.9-0.6c0.2-0.1,0.5-0.2,0.8-0.3c0.3-0.1,0.6-0.1,0.9-0.1c0.4,0,0.8,0.1,1.2,0.2s0.6,0.4,0.8,0.7
				c0.2,0.3,0.3,0.6,0.3,1c0,0.3-0.1,0.6-0.2,0.9c-0.1,0.3-0.3,0.6-0.5,0.9c-0.2,0.3-0.7,0.7-1.3,1.3L77.9,8v0.1H81V9.4z"/>
			<path fill="#004970" d="M85.5,9.4H84V5.2l0-0.7l0-0.7c-0.3,0.3-0.4,0.4-0.5,0.5L82.7,5L81.9,4l2.3-1.8h1.2V9.4z"/>
			<path fill="#004970" d="M90.1,4.8c0.7,0,1.2,0.2,1.6,0.6c0.4,0.4,0.6,0.9,0.6,1.6c0,0.8-0.2,1.4-0.7,1.8
				c-0.5,0.4-1.2,0.6-2.1,0.6c-0.8,0-1.4-0.1-1.9-0.4V7.8c0.3,0.1,0.6,0.2,0.9,0.3c0.3,0.1,0.7,0.1,1,0.1c0.9,0,1.4-0.4,1.4-1.1
				c0-0.7-0.5-1.1-1.4-1.1c-0.2,0-0.4,0-0.6,0.1c-0.2,0-0.4,0.1-0.5,0.1l-0.6-0.3L88,2.2h3.9v1.3h-2.5l-0.1,1.4l0.2,0
				C89.5,4.8,89.8,4.8,90.1,4.8z"/>
		</g>
		<g>
			<path fill="#004970" d="M36,65.7c0.4,0,0.8,0.1,1.1,0.4s0.5,0.6,0.6,1.1h0c0.1-0.6,0.2-1,0.5-1.3c0.3-0.3,0.7-0.4,1.1-0.4
				c0.7,0,1.2,0.2,1.6,0.7c0.4,0.5,0.6,1.2,0.6,2.1c0,0.8-0.1,1.5-0.4,2.1H40c0.1-0.3,0.3-0.6,0.3-0.9s0.1-0.7,0.1-1
				c0-0.5-0.1-0.9-0.3-1.1s-0.4-0.4-0.8-0.4c-0.3,0-0.6,0.1-0.7,0.4s-0.2,0.7-0.2,1.3v0.5h-1.2v-0.6c0-0.6-0.1-1-0.2-1.2
				c-0.1-0.3-0.4-0.4-0.7-0.4c-0.5,0-0.8,0.3-0.8,1c0,0.2,0,0.5,0.1,0.7s0.2,0.5,0.4,0.8l-1,0.7c-0.5-0.7-0.7-1.4-0.7-2.3
				c0-0.7,0.1-1.3,0.4-1.8S35.5,65.7,36,65.7z"/>
			<path fill="#004970" d="M38,59.8c1.2,0,2.2,0.2,2.8,0.6s0.9,1,0.9,1.9c0,0.8-0.3,1.4-0.9,1.9s-1.5,0.6-2.7,0.6
				c-1.3,0-2.2-0.2-2.8-0.6c-0.6-0.4-0.9-1-0.9-1.9c0-0.8,0.3-1.4,0.9-1.9S36.8,59.8,38,59.8z M38,63.3c0.9,0,1.5-0.1,1.9-0.2
				c0.4-0.2,0.6-0.4,0.6-0.8c0-0.4-0.2-0.6-0.6-0.8s-1-0.2-1.9-0.2c-0.9,0-1.5,0.1-1.9,0.2c-0.4,0.2-0.6,0.4-0.6,0.8
				c0,0.4,0.2,0.6,0.6,0.8C36.5,63.2,37.1,63.3,38,63.3z"/>
			<path fill="#004970" d="M37,56.4c0-0.7,0.2-1.2,0.6-1.6s0.9-0.6,1.6-0.6c0.8,0,1.4,0.2,1.8,0.7s0.6,1.2,0.6,2.1
				c0,0.8-0.1,1.4-0.4,1.9H40c0.1-0.3,0.2-0.6,0.3-0.9c0.1-0.3,0.1-0.7,0.1-1c0-0.9-0.4-1.4-1.1-1.4c-0.7,0-1.1,0.5-1.1,1.4
				c0,0.2,0,0.4,0.1,0.6c0,0.2,0.1,0.4,0.1,0.5l-0.3,0.6l-3.6-0.3v-3.9h1.3v2.5l1.4,0.1l0-0.2C37,57,37,56.7,37,56.4z"/>
		</g>
		<g>
			<path fill="#004970" d="M190,79.9v-1.5h4.1l0.7,0l0.7,0c-0.3-0.3-0.4-0.4-0.5-0.5l-0.7-0.8l0.9-0.7l1.8,2.3v1.2H190z"/>
			<path fill="#004970" d="M190,85.6v-1.5h4.1l0.7,0l0.7,0c-0.3-0.3-0.4-0.4-0.5-0.5l-0.7-0.8l0.9-0.7l1.8,2.3v1.2H190z"/>
			<path fill="#004970" d="M190,88.3l5.9,2.7v-3.5h1.3v5.1h-0.9l-6.2-2.7V88.3z"/>
		</g>
	</g>
</g>
<g id="i" display="none">
	<g display="inline">
		<line fill="none" stroke="#004970" stroke-width="2" stroke-miterlimit="10" x1="19.4" y1="21.3" x2="212.4" y2="21.3"/>
		<line fill="none" stroke="#004970" stroke-width="2" stroke-miterlimit="10" x1="146.4" y1="20.3" x2="146.4" y2="106.3"/>
		<line fill="none" stroke="#004970" stroke-width="2" stroke-miterlimit="10" x1="84.4" y1="20.3" x2="84.4" y2="106.3"/>
		<line fill="none" stroke="#004970" stroke-width="2" stroke-miterlimit="10" x1="81.4" y1="20.3" x2="81.4" y2="106.3"/>
		<line fill="none" stroke="#004970" stroke-width="2" stroke-miterlimit="10" x1="212.4" y1="105.3" x2="18.4" y2="105.3"/>
		<line fill="none" stroke="#004970" stroke-width="2" stroke-miterlimit="10" x1="19.4" y1="106.3" x2="19.4" y2="20.3"/>
		<line fill="none" stroke="#004970" stroke-width="2" stroke-miterlimit="10" x1="19.4" y1="11.3" x2="19.4" y2="18.3"/>
		<line fill="none" stroke="#004970" stroke-width="2" stroke-miterlimit="10" x1="18.4" y1="15.3" x2="82.4" y2="15.3"/>
		<line fill="none" stroke="#004970" stroke-width="2" stroke-miterlimit="10" x1="81.4" y1="11.3" x2="81.4" y2="18.3"/>
		<line fill="none" stroke="#004970" stroke-width="2" stroke-miterlimit="10" x1="12.4" y1="20.3" x2="12.4" y2="106.3"/>
		<line fill="none" stroke="#004970" stroke-width="2" stroke-miterlimit="10" x1="9.4" y1="105.3" x2="16.4" y2="105.3"/>
		<line fill="none" stroke="#004970" stroke-width="2" stroke-miterlimit="10" x1="9.4" y1="21.3" x2="16.4" y2="21.3"/>
		<line fill="none" stroke="#004970" stroke-width="2" stroke-miterlimit="10" x1="215.4" y1="85.3" x2="222.4" y2="85.3"/>
		<line fill="none" stroke="#004970" stroke-width="2" stroke-miterlimit="10" x1="218.4" y1="84.3" x2="218.4" y2="106.3"/>
		<line fill="none" stroke="#004970" stroke-width="2" stroke-miterlimit="10" x1="215.4" y1="105.3" x2="222.4" y2="105.3"/>
		<g>
			<g>
				<line fill="none" stroke="#004970" stroke-width="2" stroke-miterlimit="10" x1="145.3" y1="86" x2="144.6" y2="86.7"/>
				<polyline fill="none" stroke="#004970" stroke-width="2" stroke-miterlimit="10" stroke-dasharray="2.1285,2.1285" points="
					143.2,88.3 141.4,90.3 141.4,99.7 143.9,102.6 				"/>
				<line fill="none" stroke="#004970" stroke-width="2" stroke-miterlimit="10" x1="144.5" y1="103.4" x2="145.1" y2="104.2"/>
			</g>
		</g>
		<circle fill="#E71725" cx="51.6" cy="62.7" r="11.1"/>
		<g>
			<path fill="#FFFFFF" d="M49.8,65.2h0.5c0.2,0,0.3-0.2,0.3-0.4v-5.2c0-0.1-0.2-0.3-0.3-0.3h-0.5v-1.3h3.9v1.3h-0.5
				c-0.2,0-0.3,0.2-0.3,0.3v5.2c0,0.1,0.2,0.4,0.3,0.4h0.5v1.2h-3.9V65.2z"/>
		</g>
		<line fill="none" stroke="#004970" stroke-width="2" stroke-miterlimit="10" x1="83.4" y1="85.3" x2="147.4" y2="85.3"/>
		<line fill="none" stroke="#004970" stroke-width="2" stroke-miterlimit="10" x1="211.4" y1="20.3" x2="211.4" y2="106.3"/>
		<line fill="none" stroke="#004970" stroke-width="2" stroke-miterlimit="10" x1="149.4" y1="20.3" x2="149.4" y2="106.3"/>
		<g>
			<g>
				<line fill="none" stroke="#004970" stroke-width="2" stroke-miterlimit="10" x1="86.3" y1="86" x2="87" y2="86.7"/>
				<polyline fill="none" stroke="#004970" stroke-width="2" stroke-miterlimit="10" stroke-dasharray="2.1285,2.1285" points="
					88.5,88.3 90.4,90.3 90.4,99.7 87.9,102.6 				"/>
				<line fill="none" stroke="#004970" stroke-width="2" stroke-miterlimit="10" x1="87.2" y1="103.4" x2="86.5" y2="104.2"/>
			</g>
		</g>
		<g>
			<path fill="#004970" d="M48,9.4h-5v-1l1.8-1.8c0.5-0.5,0.9-0.9,1-1.1C46,5.2,46.2,5,46.2,4.8s0.1-0.4,0.1-0.6
				c0-0.3-0.1-0.5-0.2-0.6s-0.4-0.2-0.6-0.2c-0.3,0-0.5,0.1-0.8,0.2s-0.5,0.3-0.8,0.5l-0.8-1c0.4-0.3,0.6-0.5,0.9-0.6
				s0.5-0.2,0.8-0.3c0.3-0.1,0.6-0.1,0.9-0.1c0.4,0,0.8,0.1,1.2,0.2s0.6,0.4,0.8,0.7s0.3,0.6,0.3,1c0,0.3-0.1,0.6-0.2,0.9
				c-0.1,0.3-0.3,0.6-0.5,0.9s-0.7,0.7-1.3,1.3L44.9,8v0.1H48V9.4z"/>
			<path fill="#004970" d="M52.5,9.4H51V5.2l0-0.7l0-0.7c-0.3,0.3-0.4,0.4-0.5,0.5L49.7,5L48.9,4l2.3-1.8h1.2V9.4z"/>
			<path fill="#004970" d="M57.1,4.8c0.7,0,1.2,0.2,1.6,0.6s0.6,0.9,0.6,1.6c0,0.8-0.2,1.4-0.7,1.8s-1.2,0.6-2.1,0.6
				c-0.8,0-1.4-0.1-1.9-0.4V7.8c0.3,0.1,0.6,0.2,0.9,0.3c0.3,0.1,0.7,0.1,1,0.1c0.9,0,1.4-0.4,1.4-1.1c0-0.7-0.5-1.1-1.4-1.1
				c-0.2,0-0.4,0-0.6,0.1c-0.2,0-0.4,0.1-0.5,0.1l-0.6-0.3L55,2.2h3.9v1.3h-2.5l-0.1,1.4l0.2,0C56.5,4.8,56.8,4.8,57.1,4.8z"/>
		</g>
		<line fill="none" stroke="#004970" stroke-width="2" stroke-miterlimit="10" x1="84.4" y1="11.3" x2="84.4" y2="18.3"/>
		<line fill="none" stroke="#004970" stroke-width="2" stroke-miterlimit="10" x1="83.4" y1="15.3" x2="147.4" y2="15.3"/>
		<line fill="none" stroke="#004970" stroke-width="2" stroke-miterlimit="10" x1="146.4" y1="11.3" x2="146.4" y2="18.3"/>
		<g>
			<path fill="#004970" d="M113,9.4h-5v-1l1.8-1.8c0.5-0.5,0.9-0.9,1-1.1c0.2-0.2,0.3-0.4,0.4-0.6c0.1-0.2,0.1-0.4,0.1-0.6
				c0-0.3-0.1-0.5-0.2-0.6c-0.2-0.1-0.4-0.2-0.6-0.2c-0.3,0-0.5,0.1-0.8,0.2c-0.3,0.1-0.5,0.3-0.8,0.5l-0.8-1
				c0.4-0.3,0.6-0.5,0.9-0.6c0.2-0.1,0.5-0.2,0.8-0.3c0.3-0.1,0.6-0.1,0.9-0.1c0.4,0,0.8,0.1,1.2,0.2s0.6,0.4,0.8,0.7
				c0.2,0.3,0.3,0.6,0.3,1c0,0.3-0.1,0.6-0.2,0.9c-0.1,0.3-0.3,0.6-0.5,0.9c-0.2,0.3-0.7,0.7-1.3,1.3L109.9,8v0.1h3.1V9.4z"/>
			<path fill="#004970" d="M117.5,9.4H116V5.2l0-0.7l0-0.7c-0.3,0.3-0.4,0.4-0.5,0.5L114.7,5L113.9,4l2.3-1.8h1.2V9.4z"/>
			<path fill="#004970" d="M122.1,4.8c0.7,0,1.2,0.2,1.6,0.6c0.4,0.4,0.6,0.9,0.6,1.6c0,0.8-0.2,1.4-0.7,1.8
				c-0.5,0.4-1.2,0.6-2.1,0.6c-0.8,0-1.4-0.1-1.9-0.4V7.8c0.3,0.1,0.6,0.2,0.9,0.3c0.3,0.1,0.7,0.1,1,0.1c0.9,0,1.4-0.4,1.4-1.1
				c0-0.7-0.5-1.1-1.4-1.1c-0.2,0-0.4,0-0.6,0.1c-0.2,0-0.4,0.1-0.5,0.1l-0.6-0.3l0.3-3.6h3.9v1.3h-2.5l-0.1,1.4l0.2,0
				C121.5,4.8,121.8,4.8,122.1,4.8z"/>
		</g>
		<line fill="none" stroke="#004970" stroke-width="2" stroke-miterlimit="10" x1="149.4" y1="11.3" x2="149.4" y2="18.3"/>
		<line fill="none" stroke="#004970" stroke-width="2" stroke-miterlimit="10" x1="148.4" y1="15.3" x2="212.4" y2="15.3"/>
		<line fill="none" stroke="#004970" stroke-width="2" stroke-miterlimit="10" x1="211.4" y1="11.3" x2="211.4" y2="18.3"/>
		<g>
			<path fill="#004970" d="M178,9.4h-5v-1l1.8-1.8c0.5-0.5,0.9-0.9,1-1.1c0.2-0.2,0.3-0.4,0.4-0.6c0.1-0.2,0.1-0.4,0.1-0.6
				c0-0.3-0.1-0.5-0.2-0.6c-0.2-0.1-0.4-0.2-0.6-0.2c-0.3,0-0.5,0.1-0.8,0.2c-0.3,0.1-0.5,0.3-0.8,0.5l-0.8-1
				c0.4-0.3,0.6-0.5,0.9-0.6c0.2-0.1,0.5-0.2,0.8-0.3c0.3-0.1,0.6-0.1,0.9-0.1c0.4,0,0.8,0.1,1.2,0.2s0.6,0.4,0.8,0.7
				c0.2,0.3,0.3,0.6,0.3,1c0,0.3-0.1,0.6-0.2,0.9c-0.1,0.3-0.3,0.6-0.5,0.9c-0.2,0.3-0.7,0.7-1.3,1.3L174.9,8v0.1h3.1V9.4z"/>
			<path fill="#004970" d="M182.5,9.4H181V5.2l0-0.7l0-0.7c-0.3,0.3-0.4,0.4-0.5,0.5L179.7,5L178.9,4l2.3-1.8h1.2V9.4z"/>
			<path fill="#004970" d="M187.1,4.8c0.7,0,1.2,0.2,1.6,0.6c0.4,0.4,0.6,0.9,0.6,1.6c0,0.8-0.2,1.4-0.7,1.8
				c-0.5,0.4-1.2,0.6-2.1,0.6c-0.8,0-1.4-0.1-1.9-0.4V7.8c0.3,0.1,0.6,0.2,0.9,0.3c0.3,0.1,0.7,0.1,1,0.1c0.9,0,1.4-0.4,1.4-1.1
				c0-0.7-0.5-1.1-1.4-1.1c-0.2,0-0.4,0-0.6,0.1c-0.2,0-0.4,0.1-0.5,0.1l-0.6-0.3l0.3-3.6h3.9v1.3h-2.5l-0.1,1.4l0.2,0
				C186.5,4.8,186.8,4.8,187.1,4.8z"/>
		</g>
		<g>
			<path fill="#004970" d="M82.8,4.8c0.7,0,1.2,0.2,1.6,0.6c0.4,0.4,0.6,0.9,0.6,1.6c0,0.8-0.2,1.4-0.7,1.8
				c-0.5,0.4-1.2,0.6-2.1,0.6c-0.8,0-1.4-0.1-1.9-0.4V7.8c0.3,0.1,0.6,0.2,0.9,0.3c0.3,0.1,0.7,0.1,1,0.1c0.9,0,1.4-0.4,1.4-1.1
				c0-0.7-0.5-1.1-1.4-1.1c-0.2,0-0.4,0-0.6,0.1c-0.2,0-0.4,0.1-0.5,0.1l-0.6-0.3l0.3-3.6h3.9v1.3h-2.5l-0.1,1.4l0.2,0
				C82.3,4.8,82.6,4.8,82.8,4.8z"/>
		</g>
		<g>
			<path fill="#004970" d="M147.9,4.8c0.7,0,1.2,0.2,1.6,0.6c0.4,0.4,0.6,0.9,0.6,1.6c0,0.8-0.2,1.4-0.7,1.8
				c-0.5,0.4-1.2,0.6-2.1,0.6c-0.8,0-1.4-0.1-1.9-0.4V7.8c0.3,0.1,0.6,0.2,0.9,0.3c0.3,0.1,0.7,0.1,1,0.1c0.9,0,1.4-0.4,1.4-1.1
				c0-0.7-0.5-1.1-1.4-1.1c-0.2,0-0.4,0-0.6,0.1c-0.2,0-0.4,0.1-0.5,0.1l-0.6-0.3l0.3-3.6h3.9v1.3h-2.5L147,4.9l0.2,0
				C147.4,4.8,147.7,4.8,147.9,4.8z"/>
		</g>
		<g>
			<path fill="#004970" d="M3,65.9c0.4,0,0.8,0.1,1.1,0.4s0.5,0.6,0.6,1.1h0c0.1-0.6,0.2-1,0.5-1.3c0.3-0.3,0.7-0.4,1.1-0.4
				c0.7,0,1.2,0.2,1.6,0.7c0.4,0.5,0.6,1.2,0.6,2.1c0,0.8-0.1,1.5-0.4,2.1H7c0.1-0.3,0.3-0.6,0.3-0.9s0.1-0.7,0.1-1
				c0-0.5-0.1-0.9-0.3-1.1s-0.4-0.4-0.8-0.4c-0.3,0-0.6,0.1-0.7,0.4S5.5,68.4,5.5,69v0.5H4.3V69c0-0.6-0.1-1-0.2-1.2
				c-0.1-0.3-0.4-0.4-0.7-0.4c-0.5,0-0.8,0.3-0.8,1c0,0.2,0,0.5,0.1,0.7s0.2,0.5,0.4,0.8l-1,0.7c-0.5-0.7-0.7-1.4-0.7-2.3
				c0-0.7,0.1-1.3,0.4-1.8S2.5,65.9,3,65.9z"/>
			<path fill="#004970" d="M5,60c1.2,0,2.2,0.2,2.8,0.6s0.9,1,0.9,1.9c0,0.8-0.3,1.4-0.9,1.9S6.2,65,5,65c-1.3,0-2.2-0.2-2.8-0.6
				c-0.6-0.4-0.9-1-0.9-1.9c0-0.8,0.3-1.4,0.9-1.9S3.8,60,5,60z M5,63.5c0.9,0,1.5-0.1,1.9-0.2c0.4-0.2,0.6-0.4,0.6-0.8
				c0-0.4-0.2-0.6-0.6-0.8s-1-0.2-1.9-0.2c-0.9,0-1.5,0.1-1.9,0.2c-0.4,0.2-0.6,0.4-0.6,0.8c0,0.4,0.2,0.6,0.6,0.8
				C3.5,63.4,4.1,63.5,5,63.5z"/>
			<path fill="#004970" d="M4,56.6c0-0.7,0.2-1.2,0.6-1.6s0.9-0.6,1.6-0.6c0.8,0,1.4,0.2,1.8,0.7s0.6,1.2,0.6,2.1
				c0,0.8-0.1,1.4-0.4,1.9H7c0.1-0.3,0.2-0.6,0.3-0.9c0.1-0.3,0.1-0.7,0.1-1c0-0.9-0.4-1.4-1.1-1.4c-0.7,0-1.1,0.5-1.1,1.4
				c0,0.2,0,0.4,0.1,0.6c0,0.2,0.1,0.4,0.1,0.5L5.1,59l-3.6-0.3v-3.9h1.3v2.5l1.4,0.1l0-0.2C4,57.2,4,56.9,4,56.6z"/>
		</g>
		<g>
			<path fill="#004970" d="M223,90.1l5.9,2.7v-3.5h1.3v5.1h-0.9l-6.2-2.7V90.1z"/>
			<path fill="#004970" d="M227.6,97.7c0,0.7-0.2,1.2-0.6,1.6s-0.9,0.6-1.6,0.6c-0.8,0-1.4-0.2-1.8-0.7s-0.6-1.2-0.6-2.1
				c0-0.8,0.1-1.4,0.4-1.9h1.3c-0.1,0.3-0.2,0.6-0.3,0.9c-0.1,0.3-0.1,0.7-0.1,1c0,0.9,0.4,1.4,1.1,1.4c0.7,0,1.1-0.5,1.1-1.4
				c0-0.2,0-0.4-0.1-0.6c0-0.2-0.1-0.4-0.1-0.5l0.3-0.6l3.6,0.3v3.9h-1.3v-2.5l-1.4-0.1l0,0.2C227.6,97.2,227.6,97.4,227.6,97.7z"/>
		</g>
	</g>
</g>
<g id="h" display="none">
	<g display="inline">
		<line fill="none" stroke="#004970" stroke-width="2" stroke-miterlimit="10" x1="52.4" y1="21.3" x2="180.4" y2="21.3"/>
		<line fill="none" stroke="#004970" stroke-width="2" stroke-miterlimit="10" x1="179.4" y1="20.3" x2="179.4" y2="105.3"/>
		<line fill="none" stroke="#004970" stroke-width="2" stroke-miterlimit="10" x1="117.4" y1="20.3" x2="117.4" y2="105.3"/>
		<line fill="none" stroke="#004970" stroke-width="2" stroke-miterlimit="10" x1="114.4" y1="20.3" x2="114.4" y2="105.3"/>
		<line fill="none" stroke="#004970" stroke-width="2" stroke-miterlimit="10" x1="180.4" y1="105.3" x2="51.4" y2="105.3"/>
		<line fill="none" stroke="#004970" stroke-width="2" stroke-miterlimit="10" x1="52.4" y1="105.3" x2="52.4" y2="20.3"/>
		<line fill="none" stroke="#004970" stroke-width="2" stroke-miterlimit="10" x1="52.4" y1="11.3" x2="52.4" y2="18.3"/>
		<line fill="none" stroke="#004970" stroke-width="2" stroke-miterlimit="10" x1="51.4" y1="15.3" x2="115.4" y2="15.3"/>
		<line fill="none" stroke="#004970" stroke-width="2" stroke-miterlimit="10" x1="114.4" y1="11.3" x2="114.4" y2="18.3"/>
		<line fill="none" stroke="#004970" stroke-width="2" stroke-miterlimit="10" x1="117.4" y1="11.3" x2="117.4" y2="18.3"/>
		<line fill="none" stroke="#004970" stroke-width="2" stroke-miterlimit="10" x1="117.4" y1="15.3" x2="121.4" y2="15.3"/>
		<line fill="none" stroke="#004970" stroke-width="2" stroke-miterlimit="10" x1="120.4" y1="13.3" x2="120.4" y2="16.3"/>
		<line fill="none" stroke="#004970" stroke-width="2" stroke-miterlimit="10" x1="54.4" y1="24.3" x2="76.4" y2="24.3"/>
		<line fill="none" stroke="#004970" stroke-width="2" stroke-miterlimit="10" x1="45.4" y1="20.3" x2="45.4" y2="106.3"/>
		<line fill="none" stroke="#004970" stroke-width="2" stroke-miterlimit="10" x1="42.4" y1="105.3" x2="49.4" y2="105.3"/>
		<line fill="none" stroke="#004970" stroke-width="2" stroke-miterlimit="10" x1="42.4" y1="21.3" x2="49.4" y2="21.3"/>
		<line fill="none" stroke="#004970" stroke-width="2" stroke-miterlimit="10" x1="182.4" y1="50.3" x2="189.4" y2="50.3"/>
		<line fill="none" stroke="#004970" stroke-width="2" stroke-miterlimit="10" x1="185.4" y1="49.3" x2="185.4" y2="106.3"/>
		<line fill="none" stroke="#004970" stroke-width="2" stroke-miterlimit="10" x1="182.4" y1="105.3" x2="189.4" y2="105.3"/>
		<path fill="none" stroke="#004970" stroke-width="2" stroke-miterlimit="10" d="M53.4,49.3h5.4c0,0,7.1-0.5,13.2,10.8
			c4.8,8.8,7,11.7,9.8,13.5s6.4,3.5,17.9,7.6c15.4,5.5,14.7,15.2,14.7,15.2v7.8"/>
		<g>
			<g>
				<line fill="none" stroke="#004970" stroke-width="2" stroke-miterlimit="10" x1="54.3" y1="49.2" x2="55" y2="50"/>
				<polyline fill="none" stroke="#004970" stroke-width="2" stroke-miterlimit="10" stroke-dasharray="1.9364,1.9364" points="
					56.4,51.4 58.4,53.6 58.4,99.9 55.9,102.9 				"/>
				<line fill="none" stroke="#004970" stroke-width="2" stroke-miterlimit="10" x1="55.2" y1="103.7" x2="54.5" y2="104.4"/>
			</g>
		</g>
		<path fill="none" stroke="#004970" stroke-width="2" stroke-miterlimit="10" d="M178.4,49.3h-4.6c0,0-7.1-0.5-13.2,10.8
			c-4.8,8.8-7,11.7-9.8,13.5s-6.8,3.5-18.3,7.6c-15.4,5.5-15.1,15.2-15.1,15.2v7.8"/>
		<g>
			<g>
				<line fill="none" stroke="#004970" stroke-width="2" stroke-miterlimit="10" x1="178.3" y1="49.2" x2="177.6" y2="50"/>
				<polyline fill="none" stroke="#004970" stroke-width="2" stroke-miterlimit="10" stroke-dasharray="1.9364,1.9364" points="
					176.4,51.4 174.4,53.6 174.4,99.9 176.9,102.9 				"/>
				<line fill="none" stroke="#004970" stroke-width="2" stroke-miterlimit="10" x1="177.5" y1="103.7" x2="178.1" y2="104.4"/>
			</g>
		</g>
		<circle fill="#E71725" cx="84.6" cy="49.5" r="11.1"/>
		<g>
			<path fill="#FFFFFF" d="M80.5,51.9h0.4c0.2,0,0.3-0.2,0.3-0.4v-5.2c0-0.1-0.2-0.3-0.3-0.3h-0.4v-1.3h3.9V46h-0.9v2.3h2.6V46h-0.9
				v-1.3h3.9V46h-0.4c-0.2,0-0.3,0.2-0.3,0.3v5.2c0,0.1,0.2,0.4,0.3,0.4h0.4v1.2h-3.9v-1.2h0.9v-2.4h-2.6v2.4h0.9v1.2h-3.9V51.9z"/>
		</g>
		<g>
			<path fill="#004970" d="M81,9.4h-5v-1l1.8-1.8c0.5-0.5,0.9-0.9,1-1.1C79,5.2,79.2,5,79.2,4.8c0.1-0.2,0.1-0.4,0.1-0.6
				c0-0.3-0.1-0.5-0.2-0.6c-0.2-0.1-0.4-0.2-0.6-0.2c-0.3,0-0.5,0.1-0.8,0.2c-0.3,0.1-0.5,0.3-0.8,0.5l-0.8-1
				c0.4-0.3,0.6-0.5,0.9-0.6c0.2-0.1,0.5-0.2,0.8-0.3c0.3-0.1,0.6-0.1,0.9-0.1c0.4,0,0.8,0.1,1.2,0.2s0.6,0.4,0.8,0.7
				c0.2,0.3,0.3,0.6,0.3,1c0,0.3-0.1,0.6-0.2,0.9c-0.1,0.3-0.3,0.6-0.5,0.9c-0.2,0.3-0.7,0.7-1.3,1.3L77.9,8v0.1H81V9.4z"/>
			<path fill="#004970" d="M86.7,9.4h-5v-1l1.8-1.8c0.5-0.5,0.9-0.9,1-1.1c0.2-0.2,0.3-0.4,0.4-0.6C85,4.6,85,4.4,85,4.2
				c0-0.3-0.1-0.5-0.2-0.6c-0.2-0.1-0.4-0.2-0.6-0.2c-0.3,0-0.5,0.1-0.8,0.2c-0.3,0.1-0.5,0.3-0.8,0.5l-0.8-1
				c0.4-0.3,0.6-0.5,0.9-0.6c0.2-0.1,0.5-0.2,0.8-0.3c0.3-0.1,0.6-0.1,0.9-0.1c0.4,0,0.8,0.1,1.2,0.2s0.6,0.4,0.8,0.7
				c0.2,0.3,0.3,0.6,0.3,1c0,0.3-0.1,0.6-0.2,0.9c-0.1,0.3-0.3,0.6-0.5,0.9c-0.2,0.3-0.7,0.7-1.3,1.3L83.6,8v0.1h3.1V9.4z"/>
			<path fill="#004970" d="M87.4,6.3c0-1.4,0.3-2.5,0.9-3.2c0.6-0.7,1.5-1,2.7-1c0.4,0,0.7,0,1,0.1v1.2c-0.3-0.1-0.6-0.1-0.9-0.1
				c-0.5,0-0.9,0.1-1.3,0.2s-0.6,0.4-0.7,0.7c-0.2,0.3-0.3,0.7-0.3,1.3h0.1c0.3-0.6,0.8-0.8,1.5-0.8c0.6,0,1.1,0.2,1.5,0.6
				s0.5,1,0.5,1.7c0,0.8-0.2,1.4-0.6,1.8c-0.4,0.4-1,0.7-1.8,0.7c-0.5,0-1-0.1-1.4-0.4c-0.4-0.2-0.7-0.6-0.9-1.1
				C87.5,7.5,87.4,7,87.4,6.3z M90,8.2c0.3,0,0.6-0.1,0.7-0.3C90.9,7.7,91,7.4,91,7c0-0.3-0.1-0.6-0.2-0.8C90.6,6,90.3,5.9,90,5.9
				c-0.3,0-0.6,0.1-0.8,0.3c-0.2,0.2-0.3,0.4-0.3,0.7c0,0.4,0.1,0.7,0.3,1C89.4,8.1,89.7,8.2,90,8.2z"/>
		</g>
		<g>
			<path fill="#004970" d="M113.2,6.3c0-1.4,0.3-2.5,0.9-3.2c0.6-0.7,1.5-1,2.7-1c0.4,0,0.7,0,1,0.1v1.2c-0.3-0.1-0.6-0.1-0.9-0.1
				c-0.5,0-0.9,0.1-1.3,0.2s-0.6,0.4-0.7,0.7c-0.2,0.3-0.3,0.7-0.3,1.3h0.1c0.3-0.6,0.8-0.8,1.5-0.8c0.6,0,1.1,0.2,1.5,0.6
				s0.5,1,0.5,1.7c0,0.8-0.2,1.4-0.6,1.8c-0.4,0.4-1,0.7-1.8,0.7c-0.5,0-1-0.1-1.4-0.4c-0.4-0.2-0.7-0.6-0.9-1.1
				C113.3,7.5,113.2,7,113.2,6.3z M115.8,8.2c0.3,0,0.6-0.1,0.7-0.3c0.2-0.2,0.3-0.5,0.3-0.9c0-0.3-0.1-0.6-0.2-0.8
				c-0.2-0.2-0.4-0.3-0.7-0.3c-0.3,0-0.6,0.1-0.8,0.3c-0.2,0.2-0.3,0.4-0.3,0.7c0,0.4,0.1,0.7,0.3,1C115.2,8.1,115.5,8.2,115.8,8.2z
				"/>
		</g>
		<g>
			<path fill="#004970" d="M67.5,96.2h-1.2L64.4,93h0c0,0.6,0.1,1,0.1,1.2v2h-0.8V92h1.1l1.9,3.2h0c0-0.6,0-1,0-1.2v-2h0.8V96.2z"/>
			<path fill="#004970" d="M72.4,94.1c0,0.7-0.2,1.3-0.5,1.6s-0.9,0.6-1.5,0.6s-1.2-0.2-1.5-0.6s-0.5-0.9-0.5-1.6s0.2-1.3,0.5-1.6
				c0.4-0.4,0.9-0.6,1.5-0.6s1.2,0.2,1.5,0.6S72.4,93.4,72.4,94.1z M69.3,94.1c0,0.5,0.1,0.8,0.3,1.1s0.5,0.4,0.8,0.4
				c0.7,0,1.1-0.5,1.1-1.4c0-1-0.4-1.4-1.1-1.4c-0.4,0-0.6,0.1-0.8,0.4C69.4,93.3,69.3,93.6,69.3,94.1z"/>
			<path fill="#004970" d="M77.1,96.2H76L74.1,93h0c0,0.6,0.1,1,0.1,1.2v2h-0.8V92h1.1l1.9,3.2h0c0-0.6,0-1,0-1.2v-2h0.8V96.2z"/>
			<path fill="#004970" d="M77.8,95v-0.7h1.6V95H77.8z"/>
			<path fill="#004970" d="M81.9,92.7c-0.3,0-0.6,0.1-0.8,0.4s-0.3,0.6-0.3,1.1c0,1,0.4,1.4,1.1,1.4c0.3,0,0.7-0.1,1.1-0.2v0.8
				c-0.4,0.1-0.7,0.2-1.2,0.2c-0.6,0-1.1-0.2-1.4-0.6c-0.3-0.4-0.5-0.9-0.5-1.6c0-0.4,0.1-0.8,0.2-1.2c0.2-0.3,0.4-0.6,0.7-0.8
				c0.3-0.2,0.7-0.3,1.1-0.3c0.4,0,0.8,0.1,1.3,0.3l-0.3,0.7c-0.2-0.1-0.3-0.1-0.5-0.2S82.1,92.7,81.9,92.7z"/>
			<path fill="#004970" d="M86.6,96.2l-0.3-1h-1.6l-0.3,1h-1l1.5-4.3H86l1.5,4.3H86.6z M86,94.5c-0.3-0.9-0.4-1.4-0.5-1.6
				s-0.1-0.2-0.1-0.3c-0.1,0.2-0.2,0.9-0.6,1.9H86z"/>
			<path fill="#004970" d="M91,93.3c0,0.5-0.1,0.8-0.4,1.1s-0.7,0.4-1.2,0.4H89v1.5h-0.9V92h1.4c0.5,0,0.9,0.1,1.2,0.3
				S91,92.9,91,93.3z M89,94h0.3c0.3,0,0.5-0.1,0.6-0.2c0.1-0.1,0.2-0.3,0.2-0.5c0-0.2-0.1-0.4-0.2-0.5s-0.3-0.2-0.5-0.2H89V94z"/>
			<path fill="#004970" d="M94.5,96.2l-0.3-1h-1.6l-0.3,1h-1l1.5-4.3h1.1l1.5,4.3H94.5z M93.9,94.5c-0.3-0.9-0.4-1.4-0.5-1.6
				s-0.1-0.2-0.1-0.3c-0.1,0.2-0.2,0.9-0.6,1.9H93.9z"/>
			<path fill="#004970" d="M97.8,92.7c-0.3,0-0.6,0.1-0.8,0.4s-0.3,0.6-0.3,1.1c0,1,0.4,1.4,1.1,1.4c0.3,0,0.7-0.1,1.1-0.2v0.8
				c-0.4,0.1-0.7,0.2-1.2,0.2c-0.6,0-1.1-0.2-1.4-0.6c-0.3-0.4-0.5-0.9-0.5-1.6c0-0.4,0.1-0.8,0.2-1.2c0.2-0.3,0.4-0.6,0.7-0.8
				c0.3-0.2,0.7-0.3,1.1-0.3c0.4,0,0.8,0.1,1.3,0.3l-0.3,0.7c-0.2-0.1-0.3-0.1-0.5-0.2S98,92.7,97.8,92.7z"/>
			<path fill="#004970" d="M99.8,96.2V92h0.9v4.3H99.8z"/>
			<path fill="#004970" d="M103.5,96.2h-0.9v-3.5h-1.2V92h3.2v0.8h-1.2V96.2z"/>
			<path fill="#004970" d="M106.6,93.7l0.9-1.8h1l-1.4,2.6v1.7h-0.9v-1.6l-1.4-2.6h1L106.6,93.7z"/>
			<path fill="#004970" d="M77.7,99.3c0,0.5-0.1,0.8-0.4,1.1s-0.7,0.4-1.2,0.4h-0.4v1.5h-0.9V98h1.4c0.5,0,0.9,0.1,1.2,0.3
				S77.7,98.9,77.7,99.3z M75.7,100H76c0.3,0,0.5-0.1,0.6-0.2c0.1-0.1,0.2-0.3,0.2-0.5c0-0.2-0.1-0.4-0.2-0.5s-0.3-0.2-0.5-0.2h-0.4
				V100z"/>
			<path fill="#004970" d="M82.4,100.1c0,0.7-0.2,1.3-0.5,1.6s-0.9,0.6-1.5,0.6s-1.2-0.2-1.5-0.6s-0.5-0.9-0.5-1.6s0.2-1.3,0.5-1.6
				c0.4-0.4,0.9-0.6,1.5-0.6s1.2,0.2,1.5,0.6S82.4,99.4,82.4,100.1z M79.3,100.1c0,0.5,0.1,0.8,0.3,1.1s0.5,0.4,0.8,0.4
				c0.7,0,1.1-0.5,1.1-1.4c0-1-0.4-1.4-1.1-1.4c-0.4,0-0.6,0.1-0.8,0.4C79.4,99.3,79.3,99.6,79.3,100.1z"/>
			<path fill="#004970" d="M85.1,98.7c-0.3,0-0.6,0.1-0.8,0.4s-0.3,0.6-0.3,1.1c0,1,0.4,1.4,1.1,1.4c0.3,0,0.7-0.1,1.1-0.2v0.8
				c-0.4,0.1-0.7,0.2-1.2,0.2c-0.6,0-1.1-0.2-1.4-0.6c-0.3-0.4-0.5-0.9-0.5-1.6c0-0.4,0.1-0.8,0.2-1.2c0.2-0.3,0.4-0.6,0.7-0.8
				c0.3-0.2,0.7-0.3,1.1-0.3c0.4,0,0.8,0.1,1.3,0.3l-0.3,0.7c-0.2-0.1-0.3-0.1-0.5-0.2S85.3,98.7,85.1,98.7z"/>
			<path fill="#004970" d="M90.6,102.2h-1l-1.1-1.8l-0.4,0.3v1.5h-0.9V98H88v2l0.4-0.5l1.2-1.5h1l-1.5,1.9L90.6,102.2z"/>
			<path fill="#004970" d="M93.6,102.2h-2.5V98h2.5v0.7H92v0.9h1.5v0.7H92v1.1h1.6V102.2z"/>
			<path fill="#004970" d="M96.1,102.2h-0.9v-3.5H94V98h3.2v0.8h-1.2V102.2z"/>
		</g>
		<g>
			<path fill="#004970" d="M136.2,92.7c-0.3,0-0.6,0.1-0.8,0.4s-0.3,0.6-0.3,1.1c0,1,0.4,1.4,1.1,1.4c0.3,0,0.7-0.1,1.1-0.2v0.8
				c-0.4,0.1-0.7,0.2-1.2,0.2c-0.6,0-1.1-0.2-1.4-0.6c-0.3-0.4-0.5-0.9-0.5-1.6c0-0.4,0.1-0.8,0.2-1.2c0.2-0.3,0.4-0.6,0.7-0.8
				c0.3-0.2,0.7-0.3,1.1-0.3c0.4,0,0.8,0.1,1.3,0.3l-0.3,0.7c-0.2-0.1-0.3-0.1-0.5-0.2S136.4,92.7,136.2,92.7z"/>
			<path fill="#004970" d="M140.8,96.2l-0.3-1H139l-0.3,1h-1l1.5-4.3h1.1l1.5,4.3H140.8z M140.3,94.5c-0.3-0.9-0.4-1.4-0.5-1.6
				s-0.1-0.2-0.1-0.3c-0.1,0.2-0.2,0.9-0.6,1.9H140.3z"/>
			<path fill="#004970" d="M145.3,93.3c0,0.5-0.1,0.8-0.4,1.1s-0.7,0.4-1.2,0.4h-0.4v1.5h-0.9V92h1.4c0.5,0,0.9,0.1,1.2,0.3
				S145.3,92.9,145.3,93.3z M143.3,94h0.3c0.3,0,0.5-0.1,0.6-0.2c0.1-0.1,0.2-0.3,0.2-0.5c0-0.2-0.1-0.4-0.2-0.5s-0.3-0.2-0.5-0.2
				h-0.4V94z"/>
			<path fill="#004970" d="M148.7,96.2l-0.3-1h-1.6l-0.3,1h-1l1.5-4.3h1.1l1.5,4.3H148.7z M148.2,94.5c-0.3-0.9-0.4-1.4-0.5-1.6
				s-0.1-0.2-0.1-0.3c-0.1,0.2-0.2,0.9-0.6,1.9H148.2z"/>
			<path fill="#004970" d="M152.1,92.7c-0.3,0-0.6,0.1-0.8,0.4s-0.3,0.6-0.3,1.1c0,1,0.4,1.4,1.1,1.4c0.3,0,0.7-0.1,1.1-0.2v0.8
				c-0.4,0.1-0.7,0.2-1.2,0.2c-0.6,0-1.1-0.2-1.4-0.6c-0.3-0.4-0.5-0.9-0.5-1.6c0-0.4,0.1-0.8,0.2-1.2c0.2-0.3,0.4-0.6,0.7-0.8
				c0.3-0.2,0.7-0.3,1.1-0.3c0.4,0,0.8,0.1,1.3,0.3l-0.3,0.7c-0.2-0.1-0.3-0.1-0.5-0.2S152.2,92.7,152.1,92.7z"/>
			<path fill="#004970" d="M154.1,96.2V92h0.9v4.3H154.1z"/>
			<path fill="#004970" d="M157.7,96.2h-0.9v-3.5h-1.2V92h3.2v0.8h-1.2V96.2z"/>
			<path fill="#004970" d="M160.9,93.7l0.9-1.8h1l-1.4,2.6v1.7h-0.9v-1.6L159,92h1L160.9,93.7z"/>
			<path fill="#004970" d="M140.2,99.3c0,0.5-0.1,0.8-0.4,1.1s-0.7,0.4-1.2,0.4h-0.4v1.5h-0.9V98h1.4c0.5,0,0.9,0.1,1.2,0.3
				S140.2,98.9,140.2,99.3z M138.2,100h0.3c0.3,0,0.5-0.1,0.6-0.2c0.1-0.1,0.2-0.3,0.2-0.5c0-0.2-0.1-0.4-0.2-0.5s-0.3-0.2-0.5-0.2
				h-0.4V100z"/>
			<path fill="#004970" d="M144.9,100.1c0,0.7-0.2,1.3-0.5,1.6s-0.9,0.6-1.5,0.6s-1.2-0.2-1.5-0.6s-0.5-0.9-0.5-1.6s0.2-1.3,0.5-1.6
				c0.4-0.4,0.9-0.6,1.5-0.6s1.2,0.2,1.5,0.6S144.9,99.4,144.9,100.1z M141.8,100.1c0,0.5,0.1,0.8,0.3,1.1s0.5,0.4,0.8,0.4
				c0.7,0,1.1-0.5,1.1-1.4c0-1-0.4-1.4-1.1-1.4c-0.4,0-0.6,0.1-0.8,0.4C141.9,99.3,141.8,99.6,141.8,100.1z"/>
			<path fill="#004970" d="M147.6,98.7c-0.3,0-0.6,0.1-0.8,0.4s-0.3,0.6-0.3,1.1c0,1,0.4,1.4,1.1,1.4c0.3,0,0.7-0.1,1.1-0.2v0.8
				c-0.4,0.1-0.7,0.2-1.2,0.2c-0.6,0-1.1-0.2-1.4-0.6c-0.3-0.4-0.5-0.9-0.5-1.6c0-0.4,0.1-0.8,0.2-1.2c0.2-0.3,0.4-0.6,0.7-0.8
				c0.3-0.2,0.7-0.3,1.1-0.3c0.4,0,0.8,0.1,1.3,0.3l-0.3,0.7c-0.2-0.1-0.3-0.1-0.5-0.2S147.8,98.7,147.6,98.7z"/>
			<path fill="#004970" d="M153.1,102.2h-1l-1.1-1.8l-0.4,0.3v1.5h-0.9V98h0.9v2l0.4-0.5L152,98h1l-1.5,1.9L153.1,102.2z"/>
			<path fill="#004970" d="M156.1,102.2h-2.5V98h2.5v0.7h-1.6v0.9h1.5v0.7h-1.5v1.1h1.6V102.2z"/>
			<path fill="#004970" d="M158.6,102.2h-0.9v-3.5h-1.2V98h3.2v0.8h-1.2V102.2z"/>
		</g>
		<g>
			<path fill="#004970" d="M36,66.2c0.4,0,0.8,0.1,1.1,0.4s0.5,0.6,0.6,1.1h0c0.1-0.6,0.2-1,0.5-1.3c0.3-0.3,0.7-0.4,1.1-0.4
				c0.7,0,1.2,0.2,1.6,0.7c0.4,0.5,0.6,1.2,0.6,2.1c0,0.8-0.1,1.5-0.4,2.1H40c0.1-0.3,0.3-0.6,0.3-0.9s0.1-0.7,0.1-1
				c0-0.5-0.1-0.9-0.3-1.1s-0.4-0.4-0.8-0.4c-0.3,0-0.6,0.1-0.7,0.4s-0.2,0.7-0.2,1.3v0.5h-1.2v-0.6c0-0.6-0.1-1-0.2-1.2
				c-0.1-0.3-0.4-0.4-0.7-0.4c-0.5,0-0.8,0.3-0.8,1c0,0.2,0,0.5,0.1,0.7s0.2,0.5,0.4,0.8l-1,0.7c-0.5-0.7-0.7-1.4-0.7-2.3
				c0-0.7,0.1-1.3,0.4-1.8S35.5,66.2,36,66.2z"/>
			<path fill="#004970" d="M38,60.2c1.2,0,2.2,0.2,2.8,0.6s0.9,1,0.9,1.9c0,0.8-0.3,1.4-0.9,1.9s-1.5,0.6-2.7,0.6
				c-1.3,0-2.2-0.2-2.8-0.6c-0.6-0.4-0.9-1-0.9-1.9c0-0.8,0.3-1.4,0.9-1.9S36.8,60.2,38,60.2z M38,63.7c0.9,0,1.5-0.1,1.9-0.2
				c0.4-0.2,0.6-0.4,0.6-0.8c0-0.4-0.2-0.6-0.6-0.8s-1-0.2-1.9-0.2c-0.9,0-1.5,0.1-1.9,0.2c-0.4,0.2-0.6,0.4-0.6,0.8
				c0,0.4,0.2,0.6,0.6,0.8C36.5,63.6,37.1,63.7,38,63.7z"/>
			<path fill="#004970" d="M37,56.9c0-0.7,0.2-1.2,0.6-1.6s0.9-0.6,1.6-0.6c0.8,0,1.4,0.2,1.8,0.7s0.6,1.2,0.6,2.1
				c0,0.8-0.1,1.4-0.4,1.9H40c0.1-0.3,0.2-0.6,0.3-0.9c0.1-0.3,0.1-0.7,0.1-1c0-0.9-0.4-1.4-1.1-1.4c-0.7,0-1.1,0.5-1.1,1.4
				c0,0.2,0,0.4,0.1,0.6c0,0.2,0.1,0.4,0.1,0.5l-0.3,0.6L34.4,59v-3.9h1.3v2.5l1.4,0.1l0-0.2C37,57.4,37,57.2,37,56.9z"/>
		</g>
		<g>
			<path fill="#004970" d="M190,74v-5h1l1.8,1.8c0.5,0.5,0.9,0.9,1.1,1c0.2,0.2,0.4,0.3,0.6,0.4s0.4,0.1,0.6,0.1
				c0.3,0,0.5-0.1,0.6-0.2s0.2-0.4,0.2-0.6c0-0.3-0.1-0.5-0.2-0.8s-0.3-0.5-0.5-0.8l1-0.8c0.3,0.4,0.5,0.6,0.6,0.9s0.2,0.5,0.3,0.8
				c0.1,0.3,0.1,0.6,0.1,0.9c0,0.4-0.1,0.8-0.2,1.2s-0.4,0.6-0.7,0.8s-0.6,0.3-1,0.3c-0.3,0-0.6-0.1-0.9-0.2
				c-0.3-0.1-0.6-0.3-0.9-0.5s-0.7-0.7-1.3-1.3l-0.9-0.9h-0.1V74H190z"/>
			<path fill="#004970" d="M193.6,79.7c-1.2,0-2.2-0.2-2.8-0.6s-0.9-1-0.9-1.9c0-0.8,0.3-1.4,0.9-1.9s1.5-0.6,2.7-0.6
				c1.3,0,2.2,0.2,2.8,0.6c0.6,0.4,0.9,1,0.9,1.9c0,0.8-0.3,1.4-0.9,1.9S194.8,79.7,193.6,79.7z M193.6,76.2c-0.9,0-1.5,0.1-1.9,0.2
				c-0.4,0.2-0.6,0.4-0.6,0.8c0,0.4,0.2,0.6,0.6,0.8s1,0.2,1.9,0.2c0.9,0,1.5-0.1,1.9-0.2c0.4-0.2,0.6-0.4,0.6-0.8
				c0-0.4-0.2-0.6-0.6-0.8C195.1,76.2,194.5,76.2,193.6,76.2z"/>
			<path fill="#004970" d="M193.6,85.4c-1.2,0-2.2-0.2-2.8-0.6s-0.9-1-0.9-1.9c0-0.8,0.3-1.4,0.9-1.9s1.5-0.6,2.7-0.6
				c1.3,0,2.2,0.2,2.8,0.6c0.6,0.4,0.9,1,0.9,1.9c0,0.8-0.3,1.4-0.9,1.9S194.8,85.4,193.6,85.4z M193.6,81.9c-0.9,0-1.5,0.1-1.9,0.2
				c-0.4,0.2-0.6,0.4-0.6,0.8c0,0.4,0.2,0.6,0.6,0.8s1,0.2,1.9,0.2c0.9,0,1.5-0.1,1.9-0.2c0.4-0.2,0.6-0.4,0.6-0.8
				c0-0.4-0.2-0.6-0.6-0.8C195.1,82,194.5,81.9,193.6,81.9z"/>
		</g>
	</g>
</g>
<g id="g" display="none">
	<g display="inline">
		<polyline fill="none" stroke="#004970" stroke-width="2" stroke-miterlimit="10" points="179.4,81.3 120.8,81.3 116.6,105.3 		"/>
		<line fill="none" stroke="#004970" stroke-width="2" stroke-miterlimit="10" x1="52.4" y1="21.3" x2="180.4" y2="21.3"/>
		<line fill="none" stroke="#004970" stroke-width="2" stroke-miterlimit="10" x1="179.4" y1="20.3" x2="179.4" y2="105.3"/>
		<line fill="none" stroke="#004970" stroke-width="2" stroke-miterlimit="10" x1="116.4" y1="20.3" x2="116.4" y2="105.3"/>
		<line fill="none" stroke="#004970" stroke-width="2" stroke-miterlimit="10" x1="180.4" y1="105.3" x2="51.4" y2="105.3"/>
		<line fill="none" stroke="#004970" stroke-width="2" stroke-miterlimit="10" x1="52.4" y1="105.3" x2="52.4" y2="20.3"/>
		<line fill="none" stroke="#004970" stroke-width="2" stroke-miterlimit="10" x1="52.4" y1="11.3" x2="52.4" y2="18.3"/>
		<line fill="none" stroke="#004970" stroke-width="2" stroke-miterlimit="10" x1="51.4" y1="15.3" x2="115.4" y2="15.3"/>
		<line fill="none" stroke="#004970" stroke-width="2" stroke-miterlimit="10" x1="114.4" y1="11.3" x2="114.4" y2="18.3"/>
		<line fill="none" stroke="#004970" stroke-width="2" stroke-miterlimit="10" x1="45.4" y1="20.3" x2="45.4" y2="106.3"/>
		<line fill="none" stroke="#004970" stroke-width="2" stroke-miterlimit="10" x1="42.4" y1="105.3" x2="49.4" y2="105.3"/>
		<line fill="none" stroke="#004970" stroke-width="2" stroke-miterlimit="10" x1="42.4" y1="21.3" x2="49.4" y2="21.3"/>
		<line fill="none" stroke="#004970" stroke-width="2" stroke-miterlimit="10" x1="182.4" y1="81.3" x2="189.4" y2="81.3"/>
		<line fill="none" stroke="#004970" stroke-width="2" stroke-miterlimit="10" x1="185.4" y1="81.3" x2="185.4" y2="106.3"/>
		<line fill="none" stroke="#004970" stroke-width="2" stroke-miterlimit="10" x1="182.4" y1="105.3" x2="189.4" y2="105.3"/>
		<g>
			<g>
				<line fill="none" stroke="#004970" stroke-width="2" stroke-miterlimit="10" x1="178.3" y1="81.4" x2="177.6" y2="82.2"/>
				<polyline fill="none" stroke="#004970" stroke-width="2" stroke-miterlimit="10" stroke-dasharray="1.8582,1.8582" points="
					176.4,83.5 174.4,85.8 174.4,100.2 176.9,103.2 				"/>
				<line fill="none" stroke="#004970" stroke-width="2" stroke-miterlimit="10" x1="177.5" y1="103.9" x2="178.1" y2="104.7"/>
			</g>
		</g>
		<circle fill="#E71725" cx="84.6" cy="63" r="11.1"/>
		<g>
			<path fill="#FFFFFF" d="M80.8,62.6c0-2.8,1.6-4.4,4.2-4.4c0.6,0,1.1,0.1,1.4,0.1H88v2.8h-1.5l-0.2-1.2c-0.2-0.1-0.6-0.2-1-0.2
				c-1.2,0-2,0.8-2,2.8c0,1.9,0.6,2.9,1.8,2.9c0.4,0,0.6,0,0.9-0.1v-1.5h-0.7v-1.2h3.5v1.2h-0.2c-0.2,0-0.3,0.2-0.3,0.4v2.5H87
				c0,0-0.1-0.3-0.3-0.3c-0.4,0.2-1,0.4-1.7,0.4C82.3,66.8,80.8,65.3,80.8,62.6z"/>
		</g>
		<g>
			<path fill="#004970" d="M81,9.4h-5v-1l1.8-1.8c0.5-0.5,0.9-0.9,1-1.1C79,5.2,79.2,5,79.2,4.8c0.1-0.2,0.1-0.4,0.1-0.6
				c0-0.3-0.1-0.5-0.2-0.6c-0.2-0.1-0.4-0.2-0.6-0.2c-0.3,0-0.5,0.1-0.8,0.2c-0.3,0.1-0.5,0.3-0.8,0.5l-0.8-1
				c0.4-0.3,0.6-0.5,0.9-0.6c0.2-0.1,0.5-0.2,0.8-0.3c0.3-0.1,0.6-0.1,0.9-0.1c0.4,0,0.8,0.1,1.2,0.2s0.6,0.4,0.8,0.7
				c0.2,0.3,0.3,0.6,0.3,1c0,0.3-0.1,0.6-0.2,0.9c-0.1,0.3-0.3,0.6-0.5,0.9c-0.2,0.3-0.7,0.7-1.3,1.3L77.9,8v0.1H81V9.4z"/>
			<path fill="#004970" d="M86.7,9.4h-5v-1l1.8-1.8c0.5-0.5,0.9-0.9,1-1.1c0.2-0.2,0.3-0.4,0.4-0.6C85,4.6,85,4.4,85,4.2
				c0-0.3-0.1-0.5-0.2-0.6c-0.2-0.1-0.4-0.2-0.6-0.2c-0.3,0-0.5,0.1-0.8,0.2c-0.3,0.1-0.5,0.3-0.8,0.5l-0.8-1
				c0.4-0.3,0.6-0.5,0.9-0.6c0.2-0.1,0.5-0.2,0.8-0.3c0.3-0.1,0.6-0.1,0.9-0.1c0.4,0,0.8,0.1,1.2,0.2s0.6,0.4,0.8,0.7
				c0.2,0.3,0.3,0.6,0.3,1c0,0.3-0.1,0.6-0.2,0.9c-0.1,0.3-0.3,0.6-0.5,0.9c-0.2,0.3-0.7,0.7-1.3,1.3L83.6,8v0.1h3.1V9.4z"/>
			<path fill="#004970" d="M87.4,6.3c0-1.4,0.3-2.5,0.9-3.2c0.6-0.7,1.5-1,2.7-1c0.4,0,0.7,0,1,0.1v1.2c-0.3-0.1-0.6-0.1-0.9-0.1
				c-0.5,0-0.9,0.1-1.3,0.2s-0.6,0.4-0.7,0.7c-0.2,0.3-0.3,0.7-0.3,1.3h0.1c0.3-0.6,0.8-0.8,1.5-0.8c0.6,0,1.1,0.2,1.5,0.6
				s0.5,1,0.5,1.7c0,0.8-0.2,1.4-0.6,1.8c-0.4,0.4-1,0.7-1.8,0.7c-0.5,0-1-0.1-1.4-0.4c-0.4-0.2-0.7-0.6-0.9-1.1
				C87.5,7.5,87.4,7,87.4,6.3z M90,8.2c0.3,0,0.6-0.1,0.7-0.3C90.9,7.7,91,7.4,91,7c0-0.3-0.1-0.6-0.2-0.8C90.6,6,90.3,5.9,90,5.9
				c-0.3,0-0.6,0.1-0.8,0.3c-0.2,0.2-0.3,0.4-0.3,0.7c0,0.4,0.1,0.7,0.3,1C89.4,8.1,89.7,8.2,90,8.2z"/>
		</g>
		<g>
			<path fill="#004970" d="M36,66.4c0.4,0,0.8,0.1,1.1,0.4s0.5,0.6,0.6,1.1h0c0.1-0.6,0.2-1,0.5-1.3c0.3-0.3,0.7-0.4,1.1-0.4
				c0.7,0,1.2,0.2,1.6,0.7c0.4,0.5,0.6,1.2,0.6,2.1c0,0.8-0.1,1.5-0.4,2.1H40c0.1-0.3,0.3-0.6,0.3-0.9s0.1-0.7,0.1-1
				c0-0.5-0.1-0.9-0.3-1.1s-0.4-0.4-0.8-0.4c-0.3,0-0.6,0.1-0.7,0.4s-0.2,0.7-0.2,1.3V70h-1.2v-0.6c0-0.6-0.1-1-0.2-1.2
				c-0.1-0.3-0.4-0.4-0.7-0.4c-0.5,0-0.8,0.3-0.8,1c0,0.2,0,0.5,0.1,0.7s0.2,0.5,0.4,0.8l-1,0.7c-0.5-0.7-0.7-1.4-0.7-2.3
				c0-0.7,0.1-1.3,0.4-1.8S35.5,66.4,36,66.4z"/>
			<path fill="#004970" d="M38,60.4c1.2,0,2.2,0.2,2.8,0.6s0.9,1,0.9,1.9c0,0.8-0.3,1.4-0.9,1.9s-1.5,0.6-2.7,0.6
				c-1.3,0-2.2-0.2-2.8-0.6c-0.6-0.4-0.9-1-0.9-1.9c0-0.8,0.3-1.4,0.9-1.9S36.8,60.4,38,60.4z M38,63.9c0.9,0,1.5-0.1,1.9-0.2
				c0.4-0.2,0.6-0.4,0.6-0.8c0-0.4-0.2-0.6-0.6-0.8s-1-0.2-1.9-0.2c-0.9,0-1.5,0.1-1.9,0.2c-0.4,0.2-0.6,0.4-0.6,0.8
				c0,0.4,0.2,0.6,0.6,0.8C36.5,63.9,37.1,63.9,38,63.9z"/>
			<path fill="#004970" d="M37,57.1c0-0.7,0.2-1.2,0.6-1.6s0.9-0.6,1.6-0.6c0.8,0,1.4,0.2,1.8,0.7s0.6,1.2,0.6,2.1
				c0,0.8-0.1,1.4-0.4,1.9H40c0.1-0.3,0.2-0.6,0.3-0.9c0.1-0.3,0.1-0.7,0.1-1c0-0.9-0.4-1.4-1.1-1.4c-0.7,0-1.1,0.5-1.1,1.4
				c0,0.2,0,0.4,0.1,0.6c0,0.2,0.1,0.4,0.1,0.5l-0.3,0.6l-3.6-0.3v-3.9h1.3v2.5l1.4,0.1l0-0.2C37,57.6,37,57.4,37,57.1z"/>
		</g>
		<g>
			<path fill="#004970" d="M194.1,91.7c-1.4,0-2.5-0.3-3.1-0.9s-1-1.5-1-2.7c0-0.4,0-0.7,0.1-1h1.2c-0.1,0.3-0.1,0.6-0.1,0.9
				c0,0.5,0.1,0.9,0.2,1.2c0.1,0.3,0.4,0.6,0.7,0.7c0.3,0.2,0.8,0.3,1.3,0.3v-0.1c-0.3-0.2-0.5-0.4-0.6-0.7s-0.2-0.6-0.2-0.9
				c0-0.6,0.2-1.1,0.6-1.5c0.4-0.4,1-0.5,1.7-0.5c0.8,0,1.4,0.2,1.8,0.7c0.4,0.4,0.7,1,0.7,1.8c0,0.5-0.1,1-0.4,1.4
				s-0.6,0.7-1.1,0.9C195.3,91.6,194.8,91.7,194.1,91.7z M196,89.1c0-0.3-0.1-0.6-0.3-0.7s-0.5-0.3-0.9-0.3c-0.3,0-0.6,0.1-0.8,0.2
				s-0.3,0.4-0.3,0.7c0,0.3,0.1,0.6,0.3,0.8c0.2,0.2,0.4,0.3,0.7,0.3c0.4,0,0.7-0.1,1-0.3S196,89.4,196,89.1z"/>
			<path fill="#004970" d="M193.6,97.4c-1.2,0-2.2-0.2-2.8-0.6s-0.9-1-0.9-1.9c0-0.8,0.3-1.4,0.9-1.9s1.5-0.6,2.7-0.6
				c1.3,0,2.2,0.2,2.8,0.6c0.6,0.4,0.9,1,0.9,1.9c0,0.8-0.3,1.4-0.9,1.9S194.8,97.4,193.6,97.4z M193.6,93.9c-0.9,0-1.5,0.1-1.9,0.2
				c-0.4,0.2-0.6,0.4-0.6,0.8c0,0.4,0.2,0.6,0.6,0.8s1,0.2,1.9,0.2c0.9,0,1.5-0.1,1.9-0.2c0.4-0.2,0.6-0.4,0.6-0.8
				c0-0.4-0.2-0.6-0.6-0.8C195.1,94,194.5,93.9,193.6,93.9z"/>
		</g>
	</g>
</g>
<g id="f">
	<g>
		<line fill="none" stroke="#004970" stroke-width="2" stroke-miterlimit="10" x1="52.4" y1="21.3" x2="180.4" y2="21.3"/>
		<line fill="none" stroke="#004970" stroke-width="2" stroke-miterlimit="10" x1="179.4" y1="22.3" x2="179.4" y2="105.3"/>
		<line fill="none" stroke="#004970" stroke-width="2" stroke-miterlimit="10" x1="158.4" y1="22.3" x2="158.4" y2="105.3"/>
		<line fill="none" stroke="#004970" stroke-width="2" stroke-miterlimit="10" x1="116.4" y1="20.3" x2="116.4" y2="105.3"/>
		<line fill="none" stroke="#004970" stroke-width="2" stroke-miterlimit="10" x1="180.4" y1="105.3" x2="51.4" y2="105.3"/>
		<line fill="none" stroke="#004970" stroke-width="2" stroke-miterlimit="10" x1="52.4" y1="105.3" x2="52.4" y2="20.3"/>
		<line fill="none" stroke="#004970" stroke-width="2" stroke-miterlimit="10" x1="52.4" y1="11.3" x2="52.4" y2="18.3"/>
		<line fill="none" stroke="#004970" stroke-width="2" stroke-miterlimit="10" x1="51.4" y1="15.3" x2="117.4" y2="15.3"/>
		<line fill="none" stroke="#004970" stroke-width="2" stroke-miterlimit="10" x1="116.4" y1="11.3" x2="116.4" y2="18.3"/>
		<line fill="none" stroke="#004970" stroke-width="2" stroke-miterlimit="10" x1="45.4" y1="20.3" x2="45.4" y2="106.3"/>
		<line fill="none" stroke="#004970" stroke-width="2" stroke-miterlimit="10" x1="42.4" y1="105.3" x2="49.4" y2="105.3"/>
		<line fill="none" stroke="#004970" stroke-width="2" stroke-miterlimit="10" x1="42.4" y1="21.3" x2="49.4" y2="21.3"/>
		<circle fill="#E71725" cx="84.5" cy="63.7" r="11.1"/>
		<g>
			<path fill="#FFFFFF" d="M81.5,65.7h0.4c0.2,0,0.3-0.2,0.3-0.4v-5.2c0-0.1-0.2-0.3-0.3-0.3h-0.4v-1.3h6.8v2.6H87l-0.2-1.2h-2.2
				v2.4h1.1l0.1-0.8H87v2.9h-1.2l-0.1-0.8h-1.1v2.2h1v1.2h-4V65.7z"/>
		</g>
		<g>
			<path fill="#004970" d="M81.2,9.4h-5v-1L78,6.5c0.5-0.5,0.9-0.9,1-1.1c0.2-0.2,0.3-0.4,0.4-0.6c0.1-0.2,0.1-0.4,0.1-0.6
				c0-0.3-0.1-0.5-0.2-0.6c-0.2-0.1-0.4-0.2-0.6-0.2c-0.3,0-0.5,0.1-0.8,0.2c-0.3,0.1-0.5,0.3-0.8,0.5l-0.8-1
				c0.4-0.3,0.6-0.5,0.9-0.6c0.2-0.1,0.5-0.2,0.8-0.3c0.3-0.1,0.6-0.1,0.9-0.1c0.4,0,0.8,0.1,1.2,0.2s0.6,0.4,0.8,0.7
				C80.9,3.3,81,3.7,81,4c0,0.3-0.1,0.6-0.2,0.9c-0.1,0.3-0.3,0.6-0.5,0.9C80,6.2,79.6,6.6,79,7.2L78.1,8v0.1h3.1V9.4z"/>
			<path fill="#004970" d="M86.9,9.4h-5v-1l1.8-1.8c0.5-0.5,0.9-0.9,1-1.1C84.9,5.2,85,5,85.1,4.8c0.1-0.2,0.1-0.4,0.1-0.6
				c0-0.3-0.1-0.5-0.2-0.6c-0.2-0.1-0.4-0.2-0.6-0.2c-0.3,0-0.5,0.1-0.8,0.2c-0.3,0.1-0.5,0.3-0.8,0.5l-0.8-1
				c0.4-0.3,0.6-0.5,0.9-0.6c0.2-0.1,0.5-0.2,0.8-0.3c0.3-0.1,0.6-0.1,0.9-0.1c0.4,0,0.8,0.1,1.2,0.2s0.6,0.4,0.8,0.7
				c0.2,0.3,0.3,0.6,0.3,1c0,0.3-0.1,0.6-0.2,0.9c-0.1,0.3-0.3,0.6-0.5,0.9c-0.2,0.3-0.7,0.7-1.3,1.3L83.8,8v0.1h3.1V9.4z"/>
			<path fill="#004970" d="M91.3,9.4h-1.5V5.2l0-0.7l0-0.7c-0.3,0.3-0.4,0.4-0.5,0.5L88.5,5L87.8,4l2.3-1.8h1.2V9.4z"/>
		</g>
		<g>
			<path fill="#004970" d="M36.1,65.6c0.4,0,0.8,0.1,1.1,0.4s0.5,0.6,0.6,1.1h0c0.1-0.6,0.2-1,0.5-1.3c0.3-0.3,0.7-0.4,1.1-0.4
				c0.7,0,1.2,0.2,1.6,0.7c0.4,0.5,0.6,1.2,0.6,2.1c0,0.8-0.1,1.5-0.4,2.1h-1.3c0.1-0.3,0.3-0.6,0.3-0.9s0.1-0.7,0.1-1
				c0-0.5-0.1-0.9-0.3-1.1S39.9,67,39.5,67c-0.3,0-0.6,0.1-0.7,0.4s-0.2,0.7-0.2,1.3v0.5h-1.2v-0.6c0-0.6-0.1-1-0.2-1.2
				c-0.1-0.3-0.4-0.4-0.7-0.4c-0.5,0-0.8,0.3-0.8,1c0,0.2,0,0.5,0.1,0.7s0.2,0.5,0.4,0.8l-1,0.7c-0.5-0.7-0.7-1.4-0.7-2.3
				c0-0.7,0.1-1.3,0.4-1.8S35.6,65.6,36.1,65.6z"/>
			<path fill="#004970" d="M38.1,59.7c1.2,0,2.2,0.2,2.8,0.6s0.9,1,0.9,1.9c0,0.8-0.3,1.4-0.9,1.9s-1.5,0.6-2.7,0.6
				c-1.3,0-2.2-0.2-2.8-0.6c-0.6-0.4-0.9-1-0.9-1.9c0-0.8,0.3-1.4,0.9-1.9S36.9,59.7,38.1,59.7z M38.1,63.1c0.9,0,1.5-0.1,1.9-0.2
				c0.4-0.2,0.6-0.4,0.6-0.8c0-0.4-0.2-0.6-0.6-0.8s-1-0.2-1.9-0.2c-0.9,0-1.5,0.1-1.9,0.2c-0.4,0.2-0.6,0.4-0.6,0.8
				c0,0.4,0.2,0.6,0.6,0.8C36.6,63.1,37.2,63.1,38.1,63.1z"/>
			<path fill="#004970" d="M38.7,58.9c-1.4,0-2.5-0.3-3.2-0.9s-1-1.5-1-2.7c0-0.4,0-0.7,0.1-1h1.2c-0.1,0.3-0.1,0.6-0.1,0.9
				c0,0.5,0.1,0.9,0.2,1.3s0.4,0.6,0.7,0.7s0.7,0.3,1.3,0.3v-0.1c-0.6-0.3-0.8-0.8-0.8-1.5c0-0.6,0.2-1.1,0.6-1.5s1-0.5,1.7-0.5
				c0.8,0,1.4,0.2,1.8,0.6c0.4,0.4,0.7,1,0.7,1.8c0,0.5-0.1,1-0.4,1.4s-0.6,0.7-1.1,0.9S39.3,58.9,38.7,58.9z M40.6,56.4
				c0-0.3-0.1-0.6-0.3-0.7c-0.2-0.2-0.5-0.3-0.9-0.3c-0.3,0-0.6,0.1-0.8,0.2c-0.2,0.2-0.3,0.4-0.3,0.7c0,0.3,0.1,0.6,0.3,0.8
				s0.4,0.3,0.7,0.3c0.4,0,0.7-0.1,1-0.3S40.6,56.7,40.6,56.4z"/>
		</g>
		<g>
			<g>
				<line fill="none" stroke="#004970" stroke-width="2" stroke-miterlimit="10" x1="159.1" y1="23.2" x2="159.9" y2="23.9"/>
				<polyline fill="none" stroke="#004970" stroke-width="2" stroke-miterlimit="10" stroke-dasharray="1.9233,1.9233" points="
					161.3,25.2 163.5,27.3 174.8,27.3 177.8,24.7 				"/>
				<line fill="none" stroke="#004970" stroke-width="2" stroke-miterlimit="10" x1="178.6" y1="24.1" x2="179.3" y2="23.4"/>
			</g>
		</g>
		<g>
			<g>
				<line fill="none" stroke="#004970" stroke-width="2" stroke-miterlimit="10" x1="159.1" y1="103.2" x2="159.9" y2="102.5"/>
				<polyline fill="none" stroke="#004970" stroke-width="2" stroke-miterlimit="10" stroke-dasharray="1.9233,1.9233" points="
					161.3,101.3 163.5,99.3 174.8,99.3 177.8,101.8 				"/>
				<line fill="none" stroke="#004970" stroke-width="2" stroke-miterlimit="10" x1="178.6" y1="102.4" x2="179.3" y2="103"/>
			</g>
		</g>
		<line fill="none" stroke="#004970" stroke-width="2" stroke-miterlimit="10" x1="158.4" y1="11.3" x2="158.4" y2="18.3"/>
		<line fill="none" stroke="#004970" stroke-width="2" stroke-miterlimit="10" x1="157.4" y1="15.3" x2="180.4" y2="15.3"/>
		<line fill="none" stroke="#004970" stroke-width="2" stroke-miterlimit="10" x1="179.4" y1="11.3" x2="179.4" y2="18.3"/>
		<g>
			<path fill="#004970" d="M168.3,5.3c0,1.4-0.3,2.5-0.9,3.1c-0.6,0.7-1.5,1-2.7,1c-0.4,0-0.7,0-1-0.1V8.2c0.3,0.1,0.6,0.1,0.9,0.1
				c0.5,0,0.9-0.1,1.2-0.2c0.3-0.1,0.6-0.4,0.7-0.7c0.2-0.3,0.3-0.8,0.3-1.3h-0.1c-0.2,0.3-0.4,0.5-0.7,0.6
				c-0.2,0.1-0.6,0.2-0.9,0.2c-0.6,0-1.1-0.2-1.5-0.6c-0.4-0.4-0.5-1-0.5-1.7c0-0.8,0.2-1.4,0.7-1.8c0.4-0.4,1-0.7,1.8-0.7
				c0.5,0,1,0.1,1.4,0.4s0.7,0.6,0.9,1.1C168.2,4.1,168.3,4.6,168.3,5.3z M165.7,3.3c-0.3,0-0.6,0.1-0.7,0.3s-0.3,0.5-0.3,0.9
				c0,0.3,0.1,0.6,0.2,0.8c0.2,0.2,0.4,0.3,0.7,0.3c0.3,0,0.6-0.1,0.8-0.3c0.2-0.2,0.3-0.4,0.3-0.7c0-0.4-0.1-0.7-0.3-1
				C166.3,3.5,166.1,3.3,165.7,3.3z"/>
			<path fill="#004970" d="M171.7,4.8c0.7,0,1.2,0.2,1.6,0.6c0.4,0.4,0.6,0.9,0.6,1.6c0,0.8-0.2,1.4-0.7,1.8
				c-0.5,0.4-1.2,0.6-2.1,0.6c-0.8,0-1.4-0.1-1.9-0.4V7.8c0.3,0.1,0.6,0.2,0.9,0.3c0.3,0.1,0.7,0.1,1,0.1c0.9,0,1.4-0.4,1.4-1.1
				c0-0.7-0.5-1.1-1.4-1.1c-0.2,0-0.4,0-0.6,0.1c-0.2,0-0.4,0.1-0.5,0.1l-0.6-0.3l0.3-3.6h3.9v1.3h-2.5l-0.1,1.4l0.2,0
				C171.1,4.8,171.4,4.8,171.7,4.8z"/>
		</g>
	</g>
</g>
<g id="e" display="none">
	<g display="inline">
		<line fill="none" stroke="#004970" stroke-width="2" stroke-miterlimit="10" x1="52.4" y1="21.3" x2="180.4" y2="21.3"/>
		<line fill="none" stroke="#004970" stroke-width="2" stroke-miterlimit="10" x1="179.4" y1="22.3" x2="179.4" y2="105.3"/>
		<line fill="none" stroke="#004970" stroke-width="2" stroke-miterlimit="10" x1="116.4" y1="20.3" x2="116.4" y2="105.3"/>
		<line fill="none" stroke="#004970" stroke-width="2" stroke-miterlimit="10" x1="180.4" y1="105.3" x2="51.4" y2="105.3"/>
		<line fill="none" stroke="#004970" stroke-width="2" stroke-miterlimit="10" x1="52.4" y1="105.3" x2="52.4" y2="20.3"/>
		<line fill="none" stroke="#004970" stroke-width="2" stroke-miterlimit="10" x1="52.4" y1="11.3" x2="52.4" y2="18.3"/>
		<line fill="none" stroke="#004970" stroke-width="2" stroke-miterlimit="10" x1="51.4" y1="15.3" x2="117.4" y2="15.3"/>
		<line fill="none" stroke="#004970" stroke-width="2" stroke-miterlimit="10" x1="116.4" y1="11.3" x2="116.4" y2="18.3"/>
		<line fill="none" stroke="#004970" stroke-width="2" stroke-miterlimit="10" x1="45.4" y1="20.3" x2="45.4" y2="106.3"/>
		<line fill="none" stroke="#004970" stroke-width="2" stroke-miterlimit="10" x1="42.4" y1="105.3" x2="49.4" y2="105.3"/>
		<line fill="none" stroke="#004970" stroke-width="2" stroke-miterlimit="10" x1="42.4" y1="21.3" x2="49.4" y2="21.3"/>
		<line fill="none" stroke="#004970" stroke-width="2" stroke-miterlimit="10" x1="182.4" y1="84.3" x2="189.4" y2="84.3"/>
		<line fill="none" stroke="#004970" stroke-width="2" stroke-miterlimit="10" x1="185.4" y1="84.3" x2="185.4" y2="106.3"/>
		<line fill="none" stroke="#004970" stroke-width="2" stroke-miterlimit="10" x1="182.4" y1="105.3" x2="189.4" y2="105.3"/>
		<circle fill="#E71725" cx="84.6" cy="64.2" r="11.1"/>
		<g>
			<path fill="#FFFFFF" d="M81.3,66.9h0.4c0.2,0,0.3-0.2,0.3-0.4v-5.2c0-0.1-0.2-0.3-0.3-0.3h-0.4v-1.3h6.9v2.5h-1.3l-0.2-1.1h-2.3
				v2.1h1.1l0.1-0.7h1.2v2.7h-1.2l-0.1-0.7h-1.1v2.3h2.4l0.2-1.3h1.4v2.6h-7V66.9z"/>
		</g>
		<g>
			<path fill="#004970" d="M81,9.4h-5v-1l1.8-1.8c0.5-0.5,0.9-0.9,1-1.1C79,5.2,79.2,5,79.2,4.8c0.1-0.2,0.1-0.4,0.1-0.6
				c0-0.3-0.1-0.5-0.2-0.6c-0.2-0.1-0.4-0.2-0.6-0.2c-0.3,0-0.5,0.1-0.8,0.2c-0.3,0.1-0.5,0.3-0.8,0.5l-0.8-1
				c0.4-0.3,0.6-0.5,0.9-0.6c0.2-0.1,0.5-0.2,0.8-0.3c0.3-0.1,0.6-0.1,0.9-0.1c0.4,0,0.8,0.1,1.2,0.2s0.6,0.4,0.8,0.7
				c0.2,0.3,0.3,0.6,0.3,1c0,0.3-0.1,0.6-0.2,0.9c-0.1,0.3-0.3,0.6-0.5,0.9c-0.2,0.3-0.7,0.7-1.3,1.3L77.9,8v0.1H81V9.4z"/>
			<path fill="#004970" d="M86.7,9.4h-5v-1l1.8-1.8c0.5-0.5,0.9-0.9,1-1.1c0.2-0.2,0.3-0.4,0.4-0.6C85,4.6,85,4.4,85,4.2
				c0-0.3-0.1-0.5-0.2-0.6c-0.2-0.1-0.4-0.2-0.6-0.2c-0.3,0-0.5,0.1-0.8,0.2c-0.3,0.1-0.5,0.3-0.8,0.5l-0.8-1
				c0.4-0.3,0.6-0.5,0.9-0.6c0.2-0.1,0.5-0.2,0.8-0.3c0.3-0.1,0.6-0.1,0.9-0.1c0.4,0,0.8,0.1,1.2,0.2s0.6,0.4,0.8,0.7
				c0.2,0.3,0.3,0.6,0.3,1c0,0.3-0.1,0.6-0.2,0.9c-0.1,0.3-0.3,0.6-0.5,0.9c-0.2,0.3-0.7,0.7-1.3,1.3L83.6,8v0.1h3.1V9.4z"/>
			<path fill="#004970" d="M91.2,9.4h-1.5V5.2l0-0.7l0-0.7c-0.3,0.3-0.4,0.4-0.5,0.5L88.4,5L87.7,4L90,2.2h1.2V9.4z"/>
		</g>
		<line fill="none" stroke="#004970" stroke-width="2" stroke-miterlimit="10" x1="179.4" y1="115.3" x2="179.4" y2="108.3"/>
		<line fill="none" stroke="#004970" stroke-width="2" stroke-miterlimit="10" x1="179.4" y1="111.3" x2="123.4" y2="111.3"/>
		<line fill="none" stroke="#004970" stroke-width="2" stroke-miterlimit="10" x1="123.4" y1="115.3" x2="123.4" y2="108.3"/>
		<g>
			<path fill="#004970" d="M147.7,122.6h-1.5v-4.1l0-0.7l0-0.7c-0.3,0.3-0.4,0.4-0.5,0.5l-0.8,0.7l-0.7-0.9l2.3-1.8h1.2V122.6z"/>
			<path fill="#004970" d="M154.7,118.5c0,1.4-0.3,2.5-0.9,3.1c-0.6,0.7-1.5,1-2.7,1c-0.4,0-0.7,0-1-0.1v-1.2
				c0.3,0.1,0.6,0.1,0.9,0.1c0.5,0,0.9-0.1,1.2-0.2c0.3-0.1,0.6-0.4,0.7-0.7c0.2-0.3,0.3-0.8,0.3-1.3h-0.1c-0.2,0.3-0.4,0.5-0.7,0.6
				c-0.2,0.1-0.6,0.2-0.9,0.2c-0.6,0-1.1-0.2-1.5-0.6c-0.4-0.4-0.5-1-0.5-1.7c0-0.8,0.2-1.4,0.7-1.8c0.4-0.4,1-0.7,1.8-0.7
				c0.5,0,1,0.1,1.4,0.4s0.7,0.6,0.9,1.1C154.5,117.3,154.7,117.8,154.7,118.5z M152.1,116.6c-0.3,0-0.6,0.1-0.7,0.3
				s-0.3,0.5-0.3,0.9c0,0.3,0.1,0.6,0.2,0.8c0.2,0.2,0.4,0.3,0.7,0.3c0.3,0,0.6-0.1,0.8-0.3c0.2-0.2,0.3-0.4,0.3-0.7
				c0-0.4-0.1-0.7-0.3-1C152.6,116.7,152.4,116.6,152.1,116.6z"/>
			<path fill="#004970" d="M158,118c0.7,0,1.2,0.2,1.6,0.6c0.4,0.4,0.6,0.9,0.6,1.6c0,0.8-0.2,1.4-0.7,1.8c-0.5,0.4-1.2,0.6-2.1,0.6
				c-0.8,0-1.4-0.1-1.9-0.4V121c0.3,0.1,0.6,0.2,0.9,0.3c0.3,0.1,0.7,0.1,1,0.1c0.9,0,1.4-0.4,1.4-1.1c0-0.7-0.5-1.1-1.4-1.1
				c-0.2,0-0.4,0-0.6,0.1c-0.2,0-0.4,0.1-0.5,0.1l-0.6-0.3l0.3-3.6h3.9v1.3h-2.5l-0.1,1.4l0.2,0C157.5,118,157.7,118,158,118z"/>
		</g>
		<g>
			<path fill="#004970" d="M36,66.8c0.4,0,0.8,0.1,1.1,0.4s0.5,0.6,0.6,1.1h0c0.1-0.6,0.2-1,0.5-1.3c0.3-0.3,0.7-0.4,1.1-0.4
				c0.7,0,1.2,0.2,1.6,0.7c0.4,0.5,0.6,1.2,0.6,2.1c0,0.8-0.1,1.5-0.4,2.1H40c0.1-0.3,0.3-0.6,0.3-0.9s0.1-0.7,0.1-1
				c0-0.5-0.1-0.9-0.3-1.1s-0.4-0.4-0.8-0.4c-0.3,0-0.6,0.1-0.7,0.4s-0.2,0.7-0.2,1.3v0.5h-1.2v-0.6c0-0.6-0.1-1-0.2-1.2
				c-0.1-0.3-0.4-0.4-0.7-0.4c-0.5,0-0.8,0.3-0.8,1c0,0.2,0,0.5,0.1,0.7s0.2,0.5,0.4,0.8l-1,0.7c-0.5-0.7-0.7-1.4-0.7-2.3
				c0-0.7,0.1-1.3,0.4-1.8S35.5,66.8,36,66.8z"/>
			<path fill="#004970" d="M38,60.9c1.2,0,2.2,0.2,2.8,0.6s0.9,1,0.9,1.9c0,0.8-0.3,1.4-0.9,1.9s-1.5,0.6-2.7,0.6
				c-1.3,0-2.2-0.2-2.8-0.6c-0.6-0.4-0.9-1-0.9-1.9c0-0.8,0.3-1.4,0.9-1.9S36.8,60.9,38,60.9z M38,64.4c0.9,0,1.5-0.1,1.9-0.2
				c0.4-0.2,0.6-0.4,0.6-0.8c0-0.4-0.2-0.6-0.6-0.8s-1-0.2-1.9-0.2c-0.9,0-1.5,0.1-1.9,0.2c-0.4,0.2-0.6,0.4-0.6,0.8
				c0,0.4,0.2,0.6,0.6,0.8C36.5,64.3,37.1,64.4,38,64.4z"/>
			<path fill="#004970" d="M41.6,56.4v1.5h-4.1l-0.7,0l-0.7,0c0.3,0.3,0.4,0.4,0.5,0.5l0.7,0.8l-0.9,0.7l-1.8-2.3v-1.2H41.6z"/>
		</g>
		<g>
			<path fill="#004970" d="M190,90l5.9,2.7v-3.5h1.3v5.1h-0.9l-6.2-2.7V90z"/>
			<path fill="#004970" d="M193.1,94.9c1.4,0,2.5,0.3,3.2,0.9s1,1.5,1,2.7c0,0.4,0,0.7-0.1,1H196c0.1-0.3,0.1-0.6,0.1-0.9
				c0-0.5-0.1-0.9-0.2-1.3s-0.4-0.6-0.7-0.7s-0.7-0.3-1.3-0.3v0.1c0.6,0.3,0.8,0.8,0.8,1.5c0,0.6-0.2,1.1-0.6,1.5s-1,0.5-1.7,0.5
				c-0.8,0-1.4-0.2-1.8-0.6c-0.4-0.4-0.7-1-0.7-1.8c0-0.5,0.1-1,0.4-1.4s0.6-0.7,1.1-0.9S192.4,94.9,193.1,94.9z M191.1,97.5
				c0,0.3,0.1,0.6,0.3,0.7c0.2,0.2,0.5,0.3,0.9,0.3c0.3,0,0.6-0.1,0.8-0.2c0.2-0.2,0.3-0.4,0.3-0.7c0-0.3-0.1-0.6-0.3-0.8
				s-0.4-0.3-0.7-0.3c-0.4,0-0.7,0.1-1,0.3S191.1,97.2,191.1,97.5z"/>
		</g>
		<path fill="none" stroke="#004970" stroke-width="2" stroke-miterlimit="10" d="M180.4,84.3h-52.6c0,0-3.7,2.1-3.8,21"/>
		<g>
			<g>
				<line fill="none" stroke="#004970" stroke-width="2" stroke-miterlimit="10" x1="179.3" y1="84.7" x2="178.6" y2="85.4"/>
				<polyline fill="none" stroke="#004970" stroke-width="2" stroke-miterlimit="10" stroke-dasharray="1.9233,1.9233" points="
					177.4,86.8 175.4,89 175.4,100.4 177.9,103.4 				"/>
				<line fill="none" stroke="#004970" stroke-width="2" stroke-miterlimit="10" x1="178.5" y1="104.1" x2="179.1" y2="104.9"/>
			</g>
		</g>
		<path fill="none" stroke="#004970" stroke-width="2" stroke-miterlimit="10" d="M51.4,84.3h53.8c0,0,3.1,2.1,3.2,21"/>
		<g>
			<g>
				<line fill="none" stroke="#004970" stroke-width="2" stroke-miterlimit="10" x1="53.7" y1="84.7" x2="54.4" y2="85.4"/>
				<polyline fill="none" stroke="#004970" stroke-width="2" stroke-miterlimit="10" stroke-dasharray="1.9233,1.9233" points="
					55.5,86.8 57.4,89 57.4,100.4 55,103.4 				"/>
				<line fill="none" stroke="#004970" stroke-width="2" stroke-miterlimit="10" x1="54.5" y1="104.1" x2="53.9" y2="104.9"/>
			</g>
		</g>
	</g>
</g>
<g id="d" display="none">
	<g display="inline">
		<line fill="none" stroke="#004970" stroke-width="2" stroke-miterlimit="10" x1="51.4" y1="21.3" x2="180.4" y2="21.3"/>
		<line fill="none" stroke="#004970" stroke-width="2" stroke-miterlimit="10" x1="179.4" y1="20.3" x2="179.4" y2="105.3"/>
		<line fill="none" stroke="#004970" stroke-width="2" stroke-miterlimit="10" x1="115.4" y1="20.3" x2="115.4" y2="105.3"/>
		<line fill="none" stroke="#004970" stroke-width="2" stroke-miterlimit="10" x1="180.4" y1="105.3" x2="51.4" y2="105.3"/>
		<line fill="none" stroke="#004970" stroke-width="2" stroke-miterlimit="10" x1="52.4" y1="105.3" x2="52.4" y2="20.3"/>
		<line fill="none" stroke="#004970" stroke-width="2" stroke-miterlimit="10" x1="52.4" y1="11.3" x2="52.4" y2="18.3"/>
		<line fill="none" stroke="#004970" stroke-width="2" stroke-miterlimit="10" x1="51.4" y1="15.3" x2="116.4" y2="15.3"/>
		<line fill="none" stroke="#004970" stroke-width="2" stroke-miterlimit="10" x1="115.4" y1="11.3" x2="115.4" y2="18.3"/>
		<line fill="none" stroke="#004970" stroke-width="2" stroke-miterlimit="10" x1="45.4" y1="20.3" x2="45.4" y2="106.3"/>
		<line fill="none" stroke="#004970" stroke-width="2" stroke-miterlimit="10" x1="42.4" y1="105.3" x2="49.4" y2="105.3"/>
		<line fill="none" stroke="#004970" stroke-width="2" stroke-miterlimit="10" x1="42.4" y1="21.3" x2="49.4" y2="21.3"/>
		<line fill="none" stroke="#004970" stroke-width="2" stroke-miterlimit="10" x1="182.4" y1="73.3" x2="189.4" y2="73.3"/>
		<line fill="none" stroke="#004970" stroke-width="2" stroke-miterlimit="10" x1="185.4" y1="72.3" x2="185.4" y2="106.3"/>
		<line fill="none" stroke="#004970" stroke-width="2" stroke-miterlimit="10" x1="182.4" y1="105.3" x2="189.4" y2="105.3"/>
		<circle fill="#E71725" cx="84.6" cy="63.1" r="11.1"/>
		<g>
			<path fill="#FFFFFF" d="M80.7,65.6h0.4c0.2,0,0.3-0.2,0.3-0.4V60c0-0.1-0.2-0.3-0.3-0.3h-0.4v-1.3h3.7c3,0,4.5,1.3,4.5,4.1
				c0,2.8-1.6,4.2-4.6,4.2h-3.6V65.6z M84.3,65.6c1.5,0,2.3-0.9,2.3-2.9c0-2-0.7-2.9-2.3-2.9h-0.6v5.8H84.3z"/>
		</g>
		<g>
			<path fill="#004970" d="M81,9.4h-5v-1l1.8-1.8c0.5-0.5,0.9-0.9,1-1.1C79,5.2,79.2,5,79.2,4.8c0.1-0.2,0.1-0.4,0.1-0.6
				c0-0.3-0.1-0.5-0.2-0.6c-0.2-0.1-0.4-0.2-0.6-0.2c-0.3,0-0.5,0.1-0.8,0.2c-0.3,0.1-0.5,0.3-0.8,0.5l-0.8-1
				c0.4-0.3,0.6-0.5,0.9-0.6c0.2-0.1,0.5-0.2,0.8-0.3c0.3-0.1,0.6-0.1,0.9-0.1c0.4,0,0.8,0.1,1.2,0.2s0.6,0.4,0.8,0.7
				c0.2,0.3,0.3,0.6,0.3,1c0,0.3-0.1,0.6-0.2,0.9c-0.1,0.3-0.3,0.6-0.5,0.9c-0.2,0.3-0.7,0.7-1.3,1.3L77.9,8v0.1H81V9.4z"/>
			<path fill="#004970" d="M85.5,9.4H84V5.2l0-0.7l0-0.7c-0.3,0.3-0.4,0.4-0.5,0.5L82.7,5L81.9,4l2.3-1.8h1.2V9.4z"/>
			<path fill="#004970" d="M87.4,6.3c0-1.4,0.3-2.5,0.9-3.2c0.6-0.7,1.5-1,2.7-1c0.4,0,0.7,0,1,0.1v1.2c-0.3-0.1-0.6-0.1-0.9-0.1
				c-0.5,0-0.9,0.1-1.3,0.2s-0.6,0.4-0.7,0.7c-0.2,0.3-0.3,0.7-0.3,1.3h0.1c0.3-0.6,0.8-0.8,1.5-0.8c0.6,0,1.1,0.2,1.5,0.6
				s0.5,1,0.5,1.7c0,0.8-0.2,1.4-0.6,1.8c-0.4,0.4-1,0.7-1.8,0.7c-0.5,0-1-0.1-1.4-0.4c-0.4-0.2-0.7-0.6-0.9-1.1
				C87.5,7.5,87.4,7,87.4,6.3z M90,8.2c0.3,0,0.6-0.1,0.7-0.3C90.9,7.7,91,7.4,91,7c0-0.3-0.1-0.6-0.2-0.8C90.6,6,90.3,5.9,90,5.9
				c-0.3,0-0.6,0.1-0.8,0.3c-0.2,0.2-0.3,0.4-0.3,0.7c0,0.4,0.1,0.7,0.3,1C89.4,8.1,89.7,8.2,90,8.2z"/>
		</g>
		<g>
			<path fill="#004970" d="M36,66.5c0.4,0,0.8,0.1,1.1,0.4s0.5,0.6,0.6,1.1h0c0.1-0.6,0.2-1,0.5-1.3c0.3-0.3,0.7-0.4,1.1-0.4
				c0.7,0,1.2,0.2,1.6,0.7c0.4,0.5,0.6,1.2,0.6,2.1c0,0.8-0.1,1.5-0.4,2.1H40c0.1-0.3,0.3-0.6,0.3-0.9s0.1-0.7,0.1-1
				c0-0.5-0.1-0.9-0.3-1.1s-0.4-0.4-0.8-0.4c-0.3,0-0.6,0.1-0.7,0.4s-0.2,0.7-0.2,1.3v0.5h-1.2v-0.6c0-0.6-0.1-1-0.2-1.2
				C37,68.1,36.7,68,36.4,68c-0.5,0-0.8,0.3-0.8,1c0,0.2,0,0.5,0.1,0.7s0.2,0.5,0.4,0.8l-1,0.7c-0.5-0.7-0.7-1.4-0.7-2.3
				c0-0.7,0.1-1.3,0.4-1.8S35.5,66.5,36,66.5z"/>
			<path fill="#004970" d="M38,60.6c1.2,0,2.2,0.2,2.8,0.6s0.9,1,0.9,1.9c0,0.8-0.3,1.4-0.9,1.9s-1.5,0.6-2.7,0.6
				c-1.3,0-2.2-0.2-2.8-0.6c-0.6-0.4-0.9-1-0.9-1.9c0-0.8,0.3-1.4,0.9-1.9S36.8,60.6,38,60.6z M38,64c0.9,0,1.5-0.1,1.9-0.2
				c0.4-0.2,0.6-0.4,0.6-0.8c0-0.4-0.2-0.6-0.6-0.8s-1-0.2-1.9-0.2c-0.9,0-1.5,0.1-1.9,0.2c-0.4,0.2-0.6,0.4-0.6,0.8
				c0,0.4,0.2,0.6,0.6,0.8C36.5,64,37.1,64,38,64z"/>
			<path fill="#004970" d="M37,57.2c0-0.7,0.2-1.2,0.6-1.6s0.9-0.6,1.6-0.6c0.8,0,1.4,0.2,1.8,0.7s0.6,1.2,0.6,2.1
				c0,0.8-0.1,1.4-0.4,1.9H40c0.1-0.3,0.2-0.6,0.3-0.9c0.1-0.3,0.1-0.7,0.1-1c0-0.9-0.4-1.4-1.1-1.4c-0.7,0-1.1,0.5-1.1,1.4
				c0,0.2,0,0.4,0.1,0.6c0,0.2,0.1,0.4,0.1,0.5l-0.3,0.6l-3.6-0.3v-3.9h1.3V58l1.4,0.1l0-0.2C37,57.7,37,57.5,37,57.2z"/>
		</g>
		<g>
			<path fill="#004970" d="M190,89v-1.5h4.1l0.7,0l0.7,0c-0.3-0.3-0.4-0.4-0.5-0.5l-0.7-0.8l0.9-0.7l1.8,2.3V89H190z"/>
			<path fill="#004970" d="M190,96v-5h1l1.8,1.8c0.5,0.5,0.9,0.9,1.1,1c0.2,0.2,0.4,0.3,0.6,0.4s0.4,0.1,0.6,0.1
				c0.3,0,0.5-0.1,0.6-0.2s0.2-0.4,0.2-0.6c0-0.3-0.1-0.5-0.2-0.8s-0.3-0.5-0.5-0.8l1-0.8c0.3,0.4,0.5,0.6,0.6,0.9s0.2,0.5,0.3,0.8
				c0.1,0.3,0.1,0.6,0.1,0.9c0,0.4-0.1,0.8-0.2,1.2s-0.4,0.6-0.7,0.8s-0.6,0.3-1,0.3c-0.3,0-0.6-0.1-0.9-0.2
				c-0.3-0.1-0.6-0.3-0.9-0.5s-0.7-0.7-1.3-1.3l-0.9-0.9h-0.1V96H190z"/>
			<path fill="#004970" d="M193.6,101.7c-1.2,0-2.2-0.2-2.8-0.6s-0.9-1-0.9-1.9c0-0.8,0.3-1.4,0.9-1.9s1.5-0.6,2.7-0.6
				c1.3,0,2.2,0.2,2.8,0.6c0.6,0.4,0.9,1,0.9,1.9c0,0.8-0.3,1.4-0.9,1.9S194.8,101.7,193.6,101.7z M193.6,98.2
				c-0.9,0-1.5,0.1-1.9,0.2c-0.4,0.2-0.6,0.4-0.6,0.8c0,0.4,0.2,0.6,0.6,0.8s1,0.2,1.9,0.2c0.9,0,1.5-0.1,1.9-0.2
				c0.4-0.2,0.6-0.4,0.6-0.8c0-0.4-0.2-0.6-0.6-0.8C195.1,98.2,194.5,98.2,193.6,98.2z"/>
		</g>
		<line fill="none" stroke="#004970" stroke-width="2" stroke-miterlimit="10" x1="179.3" y1="73.3" x2="117.8" y2="105.3"/>
		<g>
			<g>
				<line fill="none" stroke="#004970" stroke-width="2" stroke-miterlimit="10" x1="179.3" y1="73.6" x2="178.6" y2="74.3"/>
				<polyline fill="none" stroke="#004970" stroke-width="2" stroke-miterlimit="10" stroke-dasharray="1.8916,1.8916" points="
					177.4,75.7 175.4,77.9 175.4,100.3 177.9,103.3 				"/>
				<line fill="none" stroke="#004970" stroke-width="2" stroke-miterlimit="10" x1="178.5" y1="104" x2="179.1" y2="104.8"/>
			</g>
		</g>
	</g>
</g>
<g id="c" display="none">
	<g display="inline">
		<line fill="none" stroke="#004970" stroke-width="2" stroke-miterlimit="10" x1="52.4" y1="21.3" x2="180.4" y2="21.3"/>
		<line fill="none" stroke="#004970" stroke-width="2" stroke-miterlimit="10" x1="179.4" y1="22.3" x2="179.4" y2="105.3"/>
		<line fill="none" stroke="#004970" stroke-width="2" stroke-miterlimit="10" x1="117.4" y1="20.3" x2="117.4" y2="105.3"/>
		<line fill="none" stroke="#004970" stroke-width="2" stroke-miterlimit="10" x1="114.4" y1="20.3" x2="114.4" y2="105.3"/>
		<line fill="none" stroke="#004970" stroke-width="2" stroke-miterlimit="10" x1="180.4" y1="105.3" x2="51.4" y2="105.3"/>
		<line fill="none" stroke="#004970" stroke-width="2" stroke-miterlimit="10" x1="52.4" y1="105.3" x2="52.4" y2="20.3"/>
		<line fill="none" stroke="#004970" stroke-width="2" stroke-miterlimit="10" x1="52.4" y1="11.3" x2="52.4" y2="18.3"/>
		<line fill="none" stroke="#004970" stroke-width="2" stroke-miterlimit="10" x1="51.4" y1="15.3" x2="115.4" y2="15.3"/>
		<line fill="none" stroke="#004970" stroke-width="2" stroke-miterlimit="10" x1="114.4" y1="11.3" x2="114.4" y2="18.3"/>
		<line fill="none" stroke="#004970" stroke-width="2" stroke-miterlimit="10" x1="45.4" y1="20.3" x2="45.4" y2="106.3"/>
		<line fill="none" stroke="#004970" stroke-width="2" stroke-miterlimit="10" x1="42.4" y1="105.3" x2="49.4" y2="105.3"/>
		<line fill="none" stroke="#004970" stroke-width="2" stroke-miterlimit="10" x1="42.4" y1="21.3" x2="49.4" y2="21.3"/>
		<line fill="none" stroke="#004970" stroke-width="2" stroke-miterlimit="10" x1="182.4" y1="81.3" x2="189.4" y2="81.3"/>
		<line fill="none" stroke="#004970" stroke-width="2" stroke-miterlimit="10" x1="185.4" y1="81.3" x2="185.4" y2="106.3"/>
		<line fill="none" stroke="#004970" stroke-width="2" stroke-miterlimit="10" x1="182.4" y1="105.3" x2="189.4" y2="105.3"/>
		<circle fill="#E71725" cx="84.6" cy="63.7" r="11.1"/>
		<g>
			<path fill="#FFFFFF" d="M81.1,63c0-2.8,1.6-4.4,4.1-4.4c0.6,0,1.2,0.1,1.4,0.1h1.6v2.8h-1.5l-0.2-1.3c-0.2-0.1-0.6-0.2-1-0.2
				c-1.2,0-2,0.8-2,2.8c0,1.9,0.6,2.9,1.9,2.9c0.8,0,1.4-0.4,1.8-0.9h1.1v1.5c-0.7,0.5-1.8,0.9-3.1,0.9C82.6,67.3,81.1,65.8,81.1,63
				z"/>
		</g>
		<g>
			<path fill="#004970" d="M81,9.4h-5v-1l1.8-1.8c0.5-0.5,0.9-0.9,1-1.1C79,5.2,79.2,5,79.2,4.8c0.1-0.2,0.1-0.4,0.1-0.6
				c0-0.3-0.1-0.5-0.2-0.6c-0.2-0.1-0.4-0.2-0.6-0.2c-0.3,0-0.5,0.1-0.8,0.2c-0.3,0.1-0.5,0.3-0.8,0.5l-0.8-1
				c0.4-0.3,0.6-0.5,0.9-0.6c0.2-0.1,0.5-0.2,0.8-0.3c0.3-0.1,0.6-0.1,0.9-0.1c0.4,0,0.8,0.1,1.2,0.2s0.6,0.4,0.8,0.7
				c0.2,0.3,0.3,0.6,0.3,1c0,0.3-0.1,0.6-0.2,0.9c-0.1,0.3-0.3,0.6-0.5,0.9c-0.2,0.3-0.7,0.7-1.3,1.3L77.9,8v0.1H81V9.4z"/>
			<path fill="#004970" d="M86.7,9.4h-5v-1l1.8-1.8c0.5-0.5,0.9-0.9,1-1.1c0.2-0.2,0.3-0.4,0.4-0.6C85,4.6,85,4.4,85,4.2
				c0-0.3-0.1-0.5-0.2-0.6c-0.2-0.1-0.4-0.2-0.6-0.2c-0.3,0-0.5,0.1-0.8,0.2c-0.3,0.1-0.5,0.3-0.8,0.5l-0.8-1
				c0.4-0.3,0.6-0.5,0.9-0.6c0.2-0.1,0.5-0.2,0.8-0.3c0.3-0.1,0.6-0.1,0.9-0.1c0.4,0,0.8,0.1,1.2,0.2s0.6,0.4,0.8,0.7
				c0.2,0.3,0.3,0.6,0.3,1c0,0.3-0.1,0.6-0.2,0.9c-0.1,0.3-0.3,0.6-0.5,0.9c-0.2,0.3-0.7,0.7-1.3,1.3L83.6,8v0.1h3.1V9.4z"/>
			<path fill="#004970" d="M90.1,4.8c0.7,0,1.2,0.2,1.6,0.6c0.4,0.4,0.6,0.9,0.6,1.6c0,0.8-0.2,1.4-0.7,1.8
				c-0.5,0.4-1.2,0.6-2.1,0.6c-0.8,0-1.4-0.1-1.9-0.4V7.8c0.3,0.1,0.6,0.2,0.9,0.3c0.3,0.1,0.7,0.1,1,0.1c0.9,0,1.4-0.4,1.4-1.1
				c0-0.7-0.5-1.1-1.4-1.1c-0.2,0-0.4,0-0.6,0.1c-0.2,0-0.4,0.1-0.5,0.1l-0.6-0.3L88,2.2h3.9v1.3h-2.5l-0.1,1.4l0.2,0
				C89.5,4.8,89.8,4.8,90.1,4.8z"/>
		</g>
		<g>
			<path fill="#004970" d="M36,65.8c0.4,0,0.8,0.1,1.1,0.4s0.5,0.6,0.6,1.1h0c0.1-0.6,0.2-1,0.5-1.3c0.3-0.3,0.7-0.4,1.1-0.4
				c0.7,0,1.2,0.2,1.6,0.7c0.4,0.5,0.6,1.2,0.6,2.1c0,0.8-0.1,1.5-0.4,2.1H40c0.1-0.3,0.3-0.6,0.3-0.9s0.1-0.7,0.1-1
				c0-0.5-0.1-0.9-0.3-1.1s-0.4-0.4-0.8-0.4c-0.3,0-0.6,0.1-0.7,0.4s-0.2,0.7-0.2,1.3v0.5h-1.2v-0.6c0-0.6-0.1-1-0.2-1.2
				c-0.1-0.3-0.4-0.4-0.7-0.4c-0.5,0-0.8,0.3-0.8,1c0,0.2,0,0.5,0.1,0.7s0.2,0.5,0.4,0.8l-1,0.7c-0.5-0.7-0.7-1.4-0.7-2.3
				c0-0.7,0.1-1.3,0.4-1.8S35.5,65.8,36,65.8z"/>
			<path fill="#004970" d="M38,59.9c1.2,0,2.2,0.2,2.8,0.6s0.9,1,0.9,1.9c0,0.8-0.3,1.4-0.9,1.9s-1.5,0.6-2.7,0.6
				c-1.3,0-2.2-0.2-2.8-0.6c-0.6-0.4-0.9-1-0.9-1.9c0-0.8,0.3-1.4,0.9-1.9S36.8,59.9,38,59.9z M38,63.4c0.9,0,1.5-0.1,1.9-0.2
				c0.4-0.2,0.6-0.4,0.6-0.8c0-0.4-0.2-0.6-0.6-0.8s-1-0.2-1.9-0.2c-0.9,0-1.5,0.1-1.9,0.2c-0.4,0.2-0.6,0.4-0.6,0.8
				c0,0.4,0.2,0.6,0.6,0.8C36.5,63.3,37.1,63.4,38,63.4z"/>
			<path fill="#004970" d="M36,54.4c0.4,0,0.8,0.1,1.1,0.4s0.5,0.6,0.6,1.1h0c0.1-0.6,0.2-1,0.5-1.3c0.3-0.3,0.7-0.4,1.1-0.4
				c0.7,0,1.2,0.2,1.6,0.7c0.4,0.5,0.6,1.2,0.6,2.1c0,0.8-0.1,1.5-0.4,2.1H40c0.1-0.3,0.3-0.6,0.3-0.9s0.1-0.7,0.1-1
				c0-0.5-0.1-0.9-0.3-1.1s-0.4-0.4-0.8-0.4c-0.3,0-0.6,0.1-0.7,0.4s-0.2,0.7-0.2,1.3V58h-1.2v-0.6c0-0.6-0.1-1-0.2-1.2
				c-0.1-0.3-0.4-0.4-0.7-0.4c-0.5,0-0.8,0.3-0.8,1c0,0.2,0,0.5,0.1,0.7s0.2,0.5,0.4,0.8l-1,0.7c-0.5-0.7-0.7-1.4-0.7-2.3
				c0-0.7,0.1-1.3,0.4-1.8S35.5,54.4,36,54.4z"/>
		</g>
		<g>
			<path fill="#004970" d="M194.1,92.4c-1.4,0-2.5-0.3-3.1-0.9s-1-1.5-1-2.7c0-0.4,0-0.7,0.1-1h1.2c-0.1,0.3-0.1,0.6-0.1,0.9
				c0,0.5,0.1,0.9,0.2,1.2c0.1,0.3,0.4,0.6,0.7,0.7c0.3,0.2,0.8,0.3,1.3,0.3V91c-0.3-0.2-0.5-0.4-0.6-0.7s-0.2-0.6-0.2-0.9
				c0-0.6,0.2-1.1,0.6-1.5c0.4-0.4,1-0.5,1.7-0.5c0.8,0,1.4,0.2,1.8,0.7c0.4,0.4,0.7,1,0.7,1.8c0,0.5-0.1,1-0.4,1.4
				s-0.6,0.7-1.1,0.9C195.3,92.3,194.8,92.4,194.1,92.4z M196,89.8c0-0.3-0.1-0.6-0.3-0.7s-0.5-0.3-0.9-0.3c-0.3,0-0.6,0.1-0.8,0.2
				s-0.3,0.4-0.3,0.7c0,0.3,0.1,0.6,0.3,0.8c0.2,0.2,0.4,0.3,0.7,0.3c0.4,0,0.7-0.1,1-0.3S196,90.2,196,89.8z"/>
			<path fill="#004970" d="M193.6,98.1c-1.2,0-2.2-0.2-2.8-0.6s-0.9-1-0.9-1.9c0-0.8,0.3-1.4,0.9-1.9s1.5-0.6,2.7-0.6
				c1.3,0,2.2,0.2,2.8,0.6c0.6,0.4,0.9,1,0.9,1.9c0,0.8-0.3,1.4-0.9,1.9S194.8,98.1,193.6,98.1z M193.6,94.6c-0.9,0-1.5,0.1-1.9,0.2
				c-0.4,0.2-0.6,0.4-0.6,0.8c0,0.4,0.2,0.6,0.6,0.8s1,0.2,1.9,0.2c0.9,0,1.5-0.1,1.9-0.2c0.4-0.2,0.6-0.4,0.6-0.8
				c0-0.4-0.2-0.6-0.6-0.8C195.1,94.7,194.5,94.6,193.6,94.6z"/>
		</g>
		<line fill="none" stroke="#004970" stroke-width="2" stroke-miterlimit="10" x1="117.4" y1="11.3" x2="117.4" y2="18.3"/>
		<line fill="none" stroke="#004970" stroke-width="2" stroke-miterlimit="10" x1="117.4" y1="15.3" x2="121.4" y2="15.3"/>
		<line fill="none" stroke="#004970" stroke-width="2" stroke-miterlimit="10" x1="120.4" y1="13.3" x2="120.4" y2="16.3"/>
		<g>
			<path fill="#004970" d="M114.2,6.3c0-1.4,0.3-2.5,0.9-3.2c0.6-0.7,1.5-1,2.7-1c0.4,0,0.7,0,1,0.1v1.2c-0.3-0.1-0.6-0.1-0.9-0.1
				c-0.5,0-0.9,0.1-1.3,0.2s-0.6,0.4-0.7,0.7c-0.2,0.3-0.3,0.7-0.3,1.3h0.1c0.3-0.6,0.8-0.8,1.5-0.8c0.6,0,1.1,0.2,1.5,0.6
				s0.5,1,0.5,1.7c0,0.8-0.2,1.4-0.6,1.8c-0.4,0.4-1,0.7-1.8,0.7c-0.5,0-1-0.1-1.4-0.4c-0.4-0.2-0.7-0.6-0.9-1.1
				C114.3,7.5,114.2,7,114.2,6.3z M116.8,8.2c0.3,0,0.6-0.1,0.7-0.3c0.2-0.2,0.3-0.5,0.3-0.9c0-0.3-0.1-0.6-0.2-0.8
				c-0.2-0.2-0.4-0.3-0.7-0.3c-0.3,0-0.6,0.1-0.8,0.3c-0.2,0.2-0.3,0.4-0.3,0.7c0,0.4,0.1,0.7,0.3,1C116.2,8.1,116.5,8.2,116.8,8.2z
				"/>
		</g>
		<polyline fill="none" stroke="#004970" stroke-width="2" stroke-miterlimit="10" points="180.4,81.3 121.8,81.3 117.6,105.3 		"/>
		<g>
			<g>
				<line fill="none" stroke="#004970" stroke-width="2" stroke-miterlimit="10" x1="179.3" y1="81.1" x2="178.6" y2="81.9"/>
				<polyline fill="none" stroke="#004970" stroke-width="2" stroke-miterlimit="10" stroke-dasharray="1.8582,1.8582" points="
					177.4,83.2 175.4,85.5 175.4,99.8 177.9,102.9 				"/>
				<line fill="none" stroke="#004970" stroke-width="2" stroke-miterlimit="10" x1="178.5" y1="103.6" x2="179.1" y2="104.3"/>
			</g>
		</g>
	</g>
</g>
<g id="b" display="none">
	<g display="inline">
		<line fill="none" stroke="#004970" stroke-width="2" stroke-miterlimit="10" x1="52.4" y1="21.3" x2="180.4" y2="21.3"/>
		<line fill="none" stroke="#004970" stroke-width="2" stroke-miterlimit="10" x1="179.4" y1="22.3" x2="179.4" y2="105.3"/>
		<polyline fill="none" stroke="#004970" stroke-width="2" stroke-miterlimit="10" points="162.4,91.3 162.4,29.8 176.9,21.1 		"/>
		<line fill="none" stroke="#004970" stroke-width="2" stroke-miterlimit="10" x1="117.4" y1="20.3" x2="117.4" y2="105.3"/>
		<line fill="none" stroke="#004970" stroke-width="2" stroke-miterlimit="10" x1="114.4" y1="20.3" x2="114.4" y2="105.3"/>
		<line fill="none" stroke="#004970" stroke-width="2" stroke-miterlimit="10" x1="180.4" y1="105.3" x2="51.4" y2="105.3"/>
		<line fill="none" stroke="#004970" stroke-width="2" stroke-miterlimit="10" x1="52.4" y1="105.3" x2="52.4" y2="20.3"/>
		<line fill="none" stroke="#004970" stroke-width="2" stroke-miterlimit="10" x1="52.4" y1="11.3" x2="52.4" y2="18.3"/>
		<line fill="none" stroke="#004970" stroke-width="2" stroke-miterlimit="10" x1="51.4" y1="15.3" x2="115.4" y2="15.3"/>
		<line fill="none" stroke="#004970" stroke-width="2" stroke-miterlimit="10" x1="114.4" y1="11.3" x2="114.4" y2="18.3"/>
		<line fill="none" stroke="#004970" stroke-width="2" stroke-miterlimit="10" x1="45.4" y1="20.3" x2="45.4" y2="106.3"/>
		<line fill="none" stroke="#004970" stroke-width="2" stroke-miterlimit="10" x1="42.4" y1="105.3" x2="49.4" y2="105.3"/>
		<line fill="none" stroke="#004970" stroke-width="2" stroke-miterlimit="10" x1="42.4" y1="21.3" x2="49.4" y2="21.3"/>
		<line fill="none" stroke="#004970" stroke-width="2" stroke-miterlimit="10" x1="182.4" y1="91.3" x2="189.4" y2="91.3"/>
		<line fill="none" stroke="#004970" stroke-width="2" stroke-miterlimit="10" x1="185.4" y1="91.3" x2="185.4" y2="106.3"/>
		<line fill="none" stroke="#004970" stroke-width="2" stroke-miterlimit="10" x1="182.4" y1="105.3" x2="189.4" y2="105.3"/>
		<circle fill="#E71725" cx="84.6" cy="62.7" r="11.1"/>
		<g>
			<path fill="#FFFFFF" d="M81.1,65.4h0.4c0.2,0,0.3-0.2,0.3-0.4v-5.2c0-0.1-0.2-0.4-0.3-0.4h-0.4v-1.2h3.7c2.2,0,3.3,0.7,3.3,2.2
				c0,1.1-0.6,1.6-1.7,1.8v0c1.3,0.2,2,0.8,2,2c0,1.6-1.4,2.4-3.5,2.4h-3.8V65.4z M84.7,61.7c0.9,0,1.2-0.4,1.2-1.1
				c0-0.7-0.3-1.1-1.2-1.1h-0.6v2.1H84.7z M84.8,65.3c1,0,1.3-0.5,1.3-1.3c0-0.8-0.3-1.2-1.3-1.2h-0.7v2.4H84.8z"/>
		</g>
		<g>
			<path fill="#004970" d="M81,9.4h-5v-1l1.8-1.8c0.5-0.5,0.9-0.9,1-1.1C79,5.2,79.2,5,79.2,4.8c0.1-0.2,0.1-0.4,0.1-0.6
				c0-0.3-0.1-0.5-0.2-0.6c-0.2-0.1-0.4-0.2-0.6-0.2c-0.3,0-0.5,0.1-0.8,0.2c-0.3,0.1-0.5,0.3-0.8,0.5l-0.8-1
				c0.4-0.3,0.6-0.5,0.9-0.6c0.2-0.1,0.5-0.2,0.8-0.3c0.3-0.1,0.6-0.1,0.9-0.1c0.4,0,0.8,0.1,1.2,0.2s0.6,0.4,0.8,0.7
				c0.2,0.3,0.3,0.6,0.3,1c0,0.3-0.1,0.6-0.2,0.9c-0.1,0.3-0.3,0.6-0.5,0.9c-0.2,0.3-0.7,0.7-1.3,1.3L77.9,8v0.1H81V9.4z"/>
			<path fill="#004970" d="M86.7,9.4h-5v-1l1.8-1.8c0.5-0.5,0.9-0.9,1-1.1c0.2-0.2,0.3-0.4,0.4-0.6C85,4.6,85,4.4,85,4.2
				c0-0.3-0.1-0.5-0.2-0.6c-0.2-0.1-0.4-0.2-0.6-0.2c-0.3,0-0.5,0.1-0.8,0.2c-0.3,0.1-0.5,0.3-0.8,0.5l-0.8-1
				c0.4-0.3,0.6-0.5,0.9-0.6c0.2-0.1,0.5-0.2,0.8-0.3c0.3-0.1,0.6-0.1,0.9-0.1c0.4,0,0.8,0.1,1.2,0.2s0.6,0.4,0.8,0.7
				c0.2,0.3,0.3,0.6,0.3,1c0,0.3-0.1,0.6-0.2,0.9c-0.1,0.3-0.3,0.6-0.5,0.9c-0.2,0.3-0.7,0.7-1.3,1.3L83.6,8v0.1h3.1V9.4z"/>
			<path fill="#004970" d="M92.4,5.8c0,1.2-0.2,2.2-0.6,2.8c-0.4,0.6-1,0.9-1.9,0.9c-0.8,0-1.4-0.3-1.9-0.9
				c-0.4-0.6-0.6-1.5-0.6-2.7c0-1.3,0.2-2.2,0.6-2.8c0.4-0.6,1-0.9,1.9-0.9c0.8,0,1.4,0.3,1.9,0.9C92.2,3.7,92.4,4.6,92.4,5.8z
				 M88.9,5.8c0,0.9,0.1,1.5,0.2,1.9c0.2,0.4,0.4,0.6,0.8,0.6c0.4,0,0.6-0.2,0.8-0.6s0.2-1,0.2-1.9c0-0.9-0.1-1.5-0.2-1.9
				c-0.2-0.4-0.4-0.6-0.8-0.6c-0.4,0-0.6,0.2-0.8,0.6C89,4.3,88.9,4.9,88.9,5.8z"/>
		</g>
		<line fill="none" stroke="#004970" stroke-width="2" stroke-miterlimit="10" x1="162.4" y1="11.3" x2="162.4" y2="18.3"/>
		<line fill="none" stroke="#004970" stroke-width="2" stroke-miterlimit="10" x1="162.4" y1="15.3" x2="180.4" y2="15.3"/>
		<line fill="none" stroke="#004970" stroke-width="2" stroke-miterlimit="10" x1="179.4" y1="11.3" x2="179.4" y2="18.3"/>
		<g>
			<path fill="#004970" d="M165.8,6.3c0-1.4,0.3-2.5,0.9-3.2c0.6-0.7,1.5-1,2.7-1c0.4,0,0.7,0,1,0.1v1.2c-0.3-0.1-0.6-0.1-0.9-0.1
				c-0.5,0-0.9,0.1-1.3,0.2s-0.6,0.4-0.7,0.7c-0.2,0.3-0.3,0.7-0.3,1.3h0.1c0.3-0.6,0.8-0.8,1.5-0.8c0.6,0,1.1,0.2,1.5,0.6
				s0.5,1,0.5,1.7c0,0.8-0.2,1.4-0.6,1.8c-0.4,0.4-1,0.7-1.8,0.7c-0.5,0-1-0.1-1.4-0.4c-0.4-0.2-0.7-0.6-0.9-1.1
				C166,7.5,165.8,7,165.8,6.3z M168.4,8.2c0.3,0,0.6-0.1,0.7-0.3c0.2-0.2,0.3-0.5,0.3-0.9c0-0.3-0.1-0.6-0.2-0.8
				c-0.2-0.2-0.4-0.3-0.7-0.3c-0.3,0-0.6,0.1-0.8,0.3c-0.2,0.2-0.3,0.4-0.3,0.7c0,0.4,0.1,0.7,0.3,1C167.9,8.1,168.1,8.2,168.4,8.2z
				"/>
			<path fill="#004970" d="M176.8,7.9h-0.9v1.5h-1.5V7.9h-3v-1l3.1-4.6h1.4v4.5h0.9V7.9z M174.4,6.7V5.5c0-0.2,0-0.5,0-0.9
				c0-0.4,0-0.6,0-0.7h0c-0.1,0.3-0.3,0.5-0.4,0.8l-1.3,2H174.4z"/>
		</g>
		<g>
			<path fill="#004970" d="M36,66.3c0.4,0,0.8,0.1,1.1,0.4s0.5,0.6,0.6,1.1h0c0.1-0.6,0.2-1,0.5-1.3c0.3-0.3,0.7-0.4,1.1-0.4
				c0.7,0,1.2,0.2,1.6,0.7c0.4,0.5,0.6,1.2,0.6,2.1c0,0.8-0.1,1.5-0.4,2.1H40c0.1-0.3,0.3-0.6,0.3-0.9s0.1-0.7,0.1-1
				c0-0.5-0.1-0.9-0.3-1.1s-0.4-0.4-0.8-0.4c-0.3,0-0.6,0.1-0.7,0.4s-0.2,0.7-0.2,1.3v0.5h-1.2v-0.6c0-0.6-0.1-1-0.2-1.2
				c-0.1-0.3-0.4-0.4-0.7-0.4c-0.5,0-0.8,0.3-0.8,1c0,0.2,0,0.5,0.1,0.7s0.2,0.5,0.4,0.8L35,71c-0.5-0.7-0.7-1.4-0.7-2.3
				c0-0.7,0.1-1.3,0.4-1.8S35.5,66.3,36,66.3z"/>
			<path fill="#004970" d="M38,60.3c1.2,0,2.2,0.2,2.8,0.6s0.9,1,0.9,1.9c0,0.8-0.3,1.4-0.9,1.9s-1.5,0.6-2.7,0.6
				c-1.3,0-2.2-0.2-2.8-0.6c-0.6-0.4-0.9-1-0.9-1.9c0-0.8,0.3-1.4,0.9-1.9S36.8,60.3,38,60.3z M38,63.8c0.9,0,1.5-0.1,1.9-0.2
				c0.4-0.2,0.6-0.4,0.6-0.8c0-0.4-0.2-0.6-0.6-0.8s-1-0.2-1.9-0.2c-0.9,0-1.5,0.1-1.9,0.2c-0.4,0.2-0.6,0.4-0.6,0.8
				c0,0.4,0.2,0.6,0.6,0.8C36.5,63.7,37.1,63.8,38,63.8z"/>
			<path fill="#004970" d="M37,57c0-0.7,0.2-1.2,0.6-1.6s0.9-0.6,1.6-0.6c0.8,0,1.4,0.2,1.8,0.7s0.6,1.2,0.6,2.1
				c0,0.8-0.1,1.4-0.4,1.9H40c0.1-0.3,0.2-0.6,0.3-0.9c0.1-0.3,0.1-0.7,0.1-1c0-0.9-0.4-1.4-1.1-1.4c-0.7,0-1.1,0.5-1.1,1.4
				c0,0.2,0,0.4,0.1,0.6c0,0.2,0.1,0.4,0.1,0.5l-0.3,0.6l-3.6-0.3v-3.9h1.3v2.5l1.4,0.1l0-0.2C37,57.5,37,57.3,37,57z"/>
		</g>
		<g>
			<path fill="#004970" d="M190,92.9l5.9,2.7v-3.5h1.3v5.1h-0.9l-6.2-2.7V92.9z"/>
			<path fill="#004970" d="M191.5,103.1v-0.9H190v-1.5h1.5v-3h1l4.6,3.1v1.4h-4.5v0.9H191.5z M192.7,100.7h1.2c0.2,0,0.5,0,0.9,0
				s0.6,0,0.7,0v0c-0.3-0.1-0.5-0.3-0.8-0.4l-2-1.3V100.7z"/>
		</g>
		<polyline fill="none" stroke="#004970" stroke-width="2" stroke-miterlimit="10" points="179.4,91.3 127.7,91.3 118.6,105.8 		"/>
		<g>
			<g>
				<path fill="none" stroke="#004970" stroke-width="2" stroke-miterlimit="10" d="M167.6,91.2c0-0.3,0-0.7,0-1"/>
				<path fill="none" stroke="#004970" stroke-width="2" stroke-miterlimit="10" stroke-dasharray="2.258,2.258" d="M168,88
					c0.7-2.3,2-3.9,3.6-3.9c1.8,0,3.3,2.1,3.8,5"/>
				<path fill="none" stroke="#004970" stroke-width="2" stroke-miterlimit="10" d="M175.5,90.2c0,0.3,0,0.7,0,1"/>
			</g>
		</g>
		<line fill="none" stroke="#004970" stroke-width="2" stroke-miterlimit="10" x1="117.4" y1="11.3" x2="117.4" y2="18.3"/>
		<line fill="none" stroke="#004970" stroke-width="2" stroke-miterlimit="10" x1="117.4" y1="15.3" x2="121.4" y2="15.3"/>
		<line fill="none" stroke="#004970" stroke-width="2" stroke-miterlimit="10" x1="120.4" y1="13.3" x2="120.4" y2="16.3"/>
		<g>
			<path fill="#004970" d="M114.2,6.3c0-1.4,0.3-2.5,0.9-3.2c0.6-0.7,1.5-1,2.7-1c0.4,0,0.7,0,1,0.1v1.2c-0.3-0.1-0.6-0.1-0.9-0.1
				c-0.5,0-0.9,0.1-1.3,0.2s-0.6,0.4-0.7,0.7c-0.2,0.3-0.3,0.7-0.3,1.3h0.1c0.3-0.6,0.8-0.8,1.5-0.8c0.6,0,1.1,0.2,1.5,0.6
				s0.5,1,0.5,1.7c0,0.8-0.2,1.4-0.6,1.8c-0.4,0.4-1,0.7-1.8,0.7c-0.5,0-1-0.1-1.4-0.4c-0.4-0.2-0.7-0.6-0.9-1.1
				C114.3,7.5,114.2,7,114.2,6.3z M116.8,8.2c0.3,0,0.6-0.1,0.7-0.3c0.2-0.2,0.3-0.5,0.3-0.9c0-0.3-0.1-0.6-0.2-0.8
				c-0.2-0.2-0.4-0.3-0.7-0.3c-0.3,0-0.6,0.1-0.8,0.3c-0.2,0.2-0.3,0.4-0.3,0.7c0,0.4,0.1,0.7,0.3,1C116.2,8.1,116.5,8.2,116.8,8.2z
				"/>
		</g>
	</g>
</g>
<g id="a" display="none">
	<g display="inline">
		<line fill="none" stroke="#004970" stroke-width="2" stroke-miterlimit="10" x1="52.4" y1="21.3" x2="180.4" y2="21.3"/>
		<line fill="none" stroke="#004970" stroke-width="2" stroke-miterlimit="10" x1="179.4" y1="22.3" x2="179.4" y2="105.3"/>
		<polyline fill="none" stroke="#004970" stroke-width="2" stroke-miterlimit="10" points="162.4,91.3 162.4,29.8 176.9,21.1 		"/>
		<line fill="none" stroke="#004970" stroke-width="2" stroke-miterlimit="10" x1="116.4" y1="20.3" x2="116.4" y2="105.3"/>
		<line fill="none" stroke="#004970" stroke-width="2" stroke-miterlimit="10" x1="180.4" y1="105.3" x2="51.4" y2="105.3"/>
		<line fill="none" stroke="#004970" stroke-width="2" stroke-miterlimit="10" x1="52.4" y1="105.3" x2="52.4" y2="20.3"/>
		<line fill="none" stroke="#004970" stroke-width="2" stroke-miterlimit="10" x1="52.4" y1="11.3" x2="52.4" y2="18.3"/>
		<line fill="none" stroke="#004970" stroke-width="2" stroke-miterlimit="10" x1="51.4" y1="15.3" x2="115.4" y2="15.3"/>
		<line fill="none" stroke="#004970" stroke-width="2" stroke-miterlimit="10" x1="114.4" y1="11.3" x2="114.4" y2="18.3"/>
		<line fill="none" stroke="#004970" stroke-width="2" stroke-miterlimit="10" x1="45.4" y1="20.3" x2="45.4" y2="106.3"/>
		<line fill="none" stroke="#004970" stroke-width="2" stroke-miterlimit="10" x1="42.4" y1="105.3" x2="49.4" y2="105.3"/>
		<line fill="none" stroke="#004970" stroke-width="2" stroke-miterlimit="10" x1="42.4" y1="21.3" x2="49.4" y2="21.3"/>
		<line fill="none" stroke="#004970" stroke-width="2" stroke-miterlimit="10" x1="182.4" y1="91.3" x2="189.4" y2="91.3"/>
		<line fill="none" stroke="#004970" stroke-width="2" stroke-miterlimit="10" x1="185.4" y1="91.3" x2="185.4" y2="106.3"/>
		<line fill="none" stroke="#004970" stroke-width="2" stroke-miterlimit="10" x1="182.4" y1="105.3" x2="189.4" y2="105.3"/>
		<circle fill="#E71725" cx="84.6" cy="62.7" r="11.1"/>
		<g>
			<path fill="#FFFFFF" d="M80.5,65.2h0.2c0.2,0,0.4-0.1,0.5-0.4l1.9-5.2c0.1-0.2,0-0.3-0.2-0.3h-0.5V58h4l2.2,6.9
				c0,0.2,0.2,0.3,0.4,0.3h0.3v1.2h-3.9v-1.2h1l-0.4-1.4h-2.7L83,64.1c-0.2,0.7-0.2,1.1,0.4,1.1h0.4v1.2h-3.4V65.2z M85.5,62.7
				l-0.9-3h0l-1,3H85.5z"/>
		</g>
		<g>
			<path fill="#004970" d="M81,9.4h-5v-1l1.8-1.8c0.5-0.5,0.9-0.9,1-1.1C79,5.2,79.2,5,79.2,4.8c0.1-0.2,0.1-0.4,0.1-0.6
				c0-0.3-0.1-0.5-0.2-0.6c-0.2-0.1-0.4-0.2-0.6-0.2c-0.3,0-0.5,0.1-0.8,0.2c-0.3,0.1-0.5,0.3-0.8,0.5l-0.8-1
				c0.4-0.3,0.6-0.5,0.9-0.6c0.2-0.1,0.5-0.2,0.8-0.3c0.3-0.1,0.6-0.1,0.9-0.1c0.4,0,0.8,0.1,1.2,0.2s0.6,0.4,0.8,0.7
				c0.2,0.3,0.3,0.6,0.3,1c0,0.3-0.1,0.6-0.2,0.9c-0.1,0.3-0.3,0.6-0.5,0.9c-0.2,0.3-0.7,0.7-1.3,1.3L77.9,8v0.1H81V9.4z"/>
			<path fill="#004970" d="M85.5,9.4H84V5.2l0-0.7l0-0.7c-0.3,0.3-0.4,0.4-0.5,0.5L82.7,5L81.9,4l2.3-1.8h1.2V9.4z"/>
			<path fill="#004970" d="M88.2,9.4l2.7-5.9h-3.5V2.2h5.1v0.9l-2.7,6.2H88.2z"/>
		</g>
		<line fill="none" stroke="#004970" stroke-width="2" stroke-miterlimit="10" x1="162.4" y1="11.3" x2="162.4" y2="18.3"/>
		<line fill="none" stroke="#004970" stroke-width="2" stroke-miterlimit="10" x1="162.4" y1="15.3" x2="180.4" y2="15.3"/>
		<line fill="none" stroke="#004970" stroke-width="2" stroke-miterlimit="10" x1="179.4" y1="11.3" x2="179.4" y2="18.3"/>
		<g>
			<path fill="#004970" d="M165.8,6.3c0-1.4,0.3-2.5,0.9-3.2c0.6-0.7,1.5-1,2.7-1c0.4,0,0.7,0,1,0.1v1.2c-0.3-0.1-0.6-0.1-0.9-0.1
				c-0.5,0-0.9,0.1-1.3,0.2s-0.6,0.4-0.7,0.7c-0.2,0.3-0.3,0.7-0.3,1.3h0.1c0.3-0.6,0.8-0.8,1.5-0.8c0.6,0,1.1,0.2,1.5,0.6
				s0.5,1,0.5,1.7c0,0.8-0.2,1.4-0.6,1.8c-0.4,0.4-1,0.7-1.8,0.7c-0.5,0-1-0.1-1.4-0.4c-0.4-0.2-0.7-0.6-0.9-1.1
				C166,7.5,165.8,7,165.8,6.3z M168.4,8.2c0.3,0,0.6-0.1,0.7-0.3c0.2-0.2,0.3-0.5,0.3-0.9c0-0.3-0.1-0.6-0.2-0.8
				c-0.2-0.2-0.4-0.3-0.7-0.3c-0.3,0-0.6,0.1-0.8,0.3c-0.2,0.2-0.3,0.4-0.3,0.7c0,0.4,0.1,0.7,0.3,1C167.9,8.1,168.1,8.2,168.4,8.2z
				"/>
			<path fill="#004970" d="M174.2,4.8c0.7,0,1.2,0.2,1.6,0.6c0.4,0.4,0.6,0.9,0.6,1.6c0,0.8-0.2,1.4-0.7,1.8
				c-0.5,0.4-1.2,0.6-2.1,0.6c-0.8,0-1.4-0.1-1.9-0.4V7.8c0.3,0.1,0.6,0.2,0.9,0.3c0.3,0.1,0.7,0.1,1,0.1c0.9,0,1.4-0.4,1.4-1.1
				c0-0.7-0.5-1.1-1.4-1.1c-0.2,0-0.4,0-0.6,0.1c-0.2,0-0.4,0.1-0.5,0.1l-0.6-0.3l0.3-3.6h3.9v1.3h-2.5l-0.1,1.4l0.2,0
				C173.7,4.8,173.9,4.8,174.2,4.8z"/>
		</g>
		<g>
			<path fill="#004970" d="M36,66.1c0.4,0,0.8,0.1,1.1,0.4s0.5,0.6,0.6,1.1h0c0.1-0.6,0.2-1,0.5-1.3c0.3-0.3,0.7-0.4,1.1-0.4
				c0.7,0,1.2,0.2,1.6,0.7c0.4,0.5,0.6,1.2,0.6,2.1c0,0.8-0.1,1.5-0.4,2.1H40c0.1-0.3,0.3-0.6,0.3-0.9s0.1-0.7,0.1-1
				c0-0.5-0.1-0.9-0.3-1.1s-0.4-0.4-0.8-0.4c-0.3,0-0.6,0.1-0.7,0.4s-0.2,0.7-0.2,1.3v0.5h-1.2v-0.6c0-0.6-0.1-1-0.2-1.2
				c-0.1-0.3-0.4-0.4-0.7-0.4c-0.5,0-0.8,0.3-0.8,1c0,0.2,0,0.5,0.1,0.7s0.2,0.5,0.4,0.8l-1,0.7c-0.5-0.7-0.7-1.4-0.7-2.3
				c0-0.7,0.1-1.3,0.4-1.8S35.5,66.1,36,66.1z"/>
			<path fill="#004970" d="M41.6,61.3v1.5h-4.1l-0.7,0l-0.7,0c0.3,0.3,0.4,0.4,0.5,0.5l0.7,0.8l-0.9,0.7l-1.8-2.3v-1.2H41.6z"/>
			<path fill="#004970" d="M38,54.4c1.2,0,2.2,0.2,2.8,0.6s0.9,1,0.9,1.9c0,0.8-0.3,1.4-0.9,1.9s-1.5,0.6-2.7,0.6
				c-1.3,0-2.2-0.2-2.8-0.6c-0.6-0.4-0.9-1-0.9-1.9c0-0.8,0.3-1.4,0.9-1.9S36.8,54.4,38,54.4z M38,57.9c0.9,0,1.5-0.1,1.9-0.2
				c0.4-0.2,0.6-0.4,0.6-0.8c0-0.4-0.2-0.6-0.6-0.8s-1-0.2-1.9-0.2c-0.9,0-1.5,0.1-1.9,0.2c-0.4,0.2-0.6,0.4-0.6,0.8
				c0,0.4,0.2,0.6,0.6,0.8C36.5,57.8,37.1,57.9,38,57.9z"/>
		</g>
		<g>
			<path fill="#004970" d="M190,92.7l5.9,2.7v-3.5h1.3V97h-0.9l-6.2-2.7V92.7z"/>
			<path fill="#004970" d="M190,102.7v-5h1l1.8,1.8c0.5,0.5,0.9,0.9,1.1,1c0.2,0.2,0.4,0.3,0.6,0.4s0.4,0.1,0.6,0.1
				c0.3,0,0.5-0.1,0.6-0.2s0.2-0.4,0.2-0.6c0-0.3-0.1-0.5-0.2-0.8s-0.3-0.5-0.5-0.8l1-0.8c0.3,0.4,0.5,0.6,0.6,0.9s0.2,0.5,0.3,0.8
				c0.1,0.3,0.1,0.6,0.1,0.9c0,0.4-0.1,0.8-0.2,1.2s-0.4,0.6-0.7,0.8s-0.6,0.3-1,0.3c-0.3,0-0.6-0.1-0.9-0.2
				c-0.3-0.1-0.6-0.3-0.9-0.5s-0.7-0.7-1.3-1.3l-0.9-0.9h-0.1v3.1H190z"/>
		</g>
		<polyline fill="none" stroke="#004970" stroke-width="2" stroke-miterlimit="10" points="179.4,91.3 127.7,91.3 118.6,105.8 		"/>
		<g>
			<g>
				<path fill="none" stroke="#004970" stroke-width="2" stroke-miterlimit="10" d="M167.6,91.2c0-0.3,0-0.7,0-1"/>
				<path fill="none" stroke="#004970" stroke-width="2" stroke-miterlimit="10" stroke-dasharray="2.258,2.258" d="M168,88
					c0.7-2.3,2-3.9,3.6-3.9c1.8,0,3.3,2.1,3.8,5"/>
				<path fill="none" stroke="#004970" stroke-width="2" stroke-miterlimit="10" d="M175.5,90.2c0,0.3,0,0.7,0,1"/>
			</g>
		</g>
	</g>
</g>
</svg>
